G04*
G04 #@! TF.GenerationSoftware,Altium Limited,Altium Designer,19.0.4 (130)*
G04*
G04 Layer_Color=16711935*
%FSLAX44Y44*%
%MOMM*%
G71*
G01*
G75*
%ADD13C,0.2540*%
%ADD22R,1.1332X1.1832*%
%ADD23C,1.2032*%
%ADD27R,1.1832X1.1332*%
%ADD28R,1.7272X1.9812*%
%ADD29O,1.7272X1.9812*%
%ADD30O,1.9812X1.7272*%
%ADD31R,1.9812X1.7272*%
%ADD32C,2.2032*%
%ADD33R,2.2032X2.2032*%
%ADD50R,4.2032X2.2032*%
%ADD51R,5.2032X2.2032*%
%ADD52R,1.4532X0.9032*%
%ADD53R,2.4892X1.2192*%
%ADD54R,5.2832X4.0132*%
%ADD55R,2.7032X1.7032*%
G36*
X820700Y66460D02*
X795300Y66460D01*
X796570Y61380D01*
X802920Y55030D01*
X810540Y53760D01*
X815620Y56300D01*
X818160Y58840D01*
X820700Y63920D01*
Y66460D01*
D02*
G37*
G36*
Y71540D02*
X795300D01*
X796570Y76620D01*
X802920Y82970D01*
X810540Y84240D01*
X815620Y81700D01*
X818160Y79160D01*
X820700Y74080D01*
Y71540D01*
D02*
G37*
G36*
X856700Y67350D02*
X831300Y67350D01*
X832570Y62270D01*
X838920Y55920D01*
X846540Y54650D01*
X851620Y57190D01*
X854160Y59730D01*
X856700Y64810D01*
Y67350D01*
D02*
G37*
G36*
Y72430D02*
X831300D01*
X832570Y77510D01*
X838920Y83860D01*
X846540Y85130D01*
X851620Y82590D01*
X854160Y80050D01*
X856700Y74970D01*
Y72430D01*
D02*
G37*
D13*
X856700D02*
G03*
X831300Y72430I-12700J0D01*
G01*
Y67350D02*
G03*
X856700Y67350I12700J0D01*
G01*
X820700Y71540D02*
G03*
X795300Y71540I-12700J0D01*
G01*
Y66460D02*
G03*
X820700Y66460I12700J0D01*
G01*
X831300Y72430D02*
X856700D01*
X831300Y67350D02*
X856700Y67350D01*
X795300Y71540D02*
X820700D01*
X795300Y66460D02*
X820700Y66460D01*
D22*
X534600Y98500D02*
D03*
X550000Y98500D02*
D03*
X534600Y119250D02*
D03*
X550000Y119250D02*
D03*
X534600Y77750D02*
D03*
X550000D02*
D03*
X144000Y161440D02*
D03*
X159400D02*
D03*
X534600Y140000D02*
D03*
X550000Y140000D02*
D03*
X550000Y57000D02*
D03*
X534600Y57000D02*
D03*
D23*
X844000Y78780D02*
D03*
Y61000D02*
D03*
X808000Y77890D02*
D03*
Y60110D02*
D03*
D27*
X491000Y135700D02*
D03*
X491000Y120300D02*
D03*
X472000Y135700D02*
D03*
X472000Y120300D02*
D03*
Y78300D02*
D03*
X472000Y93700D02*
D03*
X491000Y78300D02*
D03*
Y93700D02*
D03*
X381000Y37700D02*
D03*
Y22300D02*
D03*
X139000Y137400D02*
D03*
Y122000D02*
D03*
D28*
X555000Y179000D02*
D03*
X364600D02*
D03*
D29*
X529600D02*
D03*
X440800D02*
D03*
X415400D02*
D03*
X390000D02*
D03*
D30*
X880000Y50400D02*
D03*
Y152000D02*
D03*
Y126600D02*
D03*
Y101200D02*
D03*
Y75800D02*
D03*
Y25000D02*
D03*
D31*
Y177400D02*
D03*
D32*
X101000Y130848D02*
D03*
D33*
X51000D02*
D03*
D50*
X774700Y99060D02*
D03*
D51*
X607060D02*
D03*
D52*
X399001Y29500D02*
D03*
X419000Y20000D02*
D03*
Y39000D02*
D03*
D53*
X448880Y87140D02*
D03*
X448880Y132860D02*
D03*
X448880Y110000D02*
D03*
D54*
X393000D02*
D03*
D55*
X116680Y38530D02*
D03*
X30320D02*
D03*
X116680Y100125D02*
D03*
X30320D02*
D03*
Y161720D02*
D03*
X116680D02*
D03*
M02*
