G04*
G04 #@! TF.GenerationSoftware,Altium Limited,Altium Designer,19.0.4 (130)*
G04*
G04 Layer_Color=255*
%FSLAX44Y44*%
%MOMM*%
G71*
G01*
G75*
%ADD17R,0.9300X0.9800*%
%ADD18O,2.1000X0.3000*%
%ADD19O,0.3000X2.1000*%
%ADD20R,1.1500X1.4000*%
%ADD21R,0.9800X0.9300*%
%ADD34C,1.0000*%
%ADD37R,1.5240X1.7780*%
%ADD38O,1.5240X1.7780*%
%ADD39O,1.7780X1.5240*%
%ADD40R,1.7780X1.5240*%
%ADD41C,2.0000*%
%ADD42R,2.0000X2.0000*%
D17*
X197700Y43000D02*
D03*
X182300D02*
D03*
X81629Y55000D02*
D03*
X66229D02*
D03*
X64229Y165000D02*
D03*
X48829D02*
D03*
X168700Y180000D02*
D03*
X153300D02*
D03*
X85229Y165000D02*
D03*
X100629D02*
D03*
X258300Y156000D02*
D03*
X273700Y156000D02*
D03*
X273000Y177000D02*
D03*
X257600D02*
D03*
D18*
X134730Y137500D02*
D03*
Y132500D02*
D03*
Y127500D02*
D03*
Y122500D02*
D03*
Y117500D02*
D03*
Y112500D02*
D03*
Y107500D02*
D03*
Y102500D02*
D03*
Y97500D02*
D03*
Y92500D02*
D03*
Y87500D02*
D03*
Y82500D02*
D03*
X219016D02*
D03*
X219016Y87500D02*
D03*
Y92500D02*
D03*
X219016Y97500D02*
D03*
Y102500D02*
D03*
Y107500D02*
D03*
Y112500D02*
D03*
Y117500D02*
D03*
X219016Y122500D02*
D03*
Y127500D02*
D03*
X219016Y132500D02*
D03*
Y137500D02*
D03*
D19*
X149500Y67730D02*
D03*
X154500D02*
D03*
X159500D02*
D03*
X164500D02*
D03*
X169500D02*
D03*
X174500D02*
D03*
X179500D02*
D03*
X184500D02*
D03*
X189500D02*
D03*
X194500D02*
D03*
X199500D02*
D03*
X204500D02*
D03*
Y152270D02*
D03*
X199500D02*
D03*
X194500D02*
D03*
X189500D02*
D03*
X184500D02*
D03*
X179500D02*
D03*
X174500D02*
D03*
X169500D02*
D03*
X164500D02*
D03*
X159500D02*
D03*
X154500D02*
D03*
X149500D02*
D03*
D20*
X66229Y98000D02*
D03*
X82229Y76000D02*
D03*
X66229D02*
D03*
X82229Y98000D02*
D03*
D21*
X47229Y98700D02*
D03*
Y83300D02*
D03*
X102229Y95700D02*
D03*
X102229Y80300D02*
D03*
D34*
X914000Y17000D02*
D03*
D37*
X555000Y179000D02*
D03*
X364600D02*
D03*
D38*
X529600D02*
D03*
X440800D02*
D03*
X415400D02*
D03*
X390000D02*
D03*
D39*
X880000Y50400D02*
D03*
Y152000D02*
D03*
Y126600D02*
D03*
Y101200D02*
D03*
Y75800D02*
D03*
Y25000D02*
D03*
D40*
Y177400D02*
D03*
D41*
X101000Y130848D02*
D03*
D42*
X51000D02*
D03*
M02*
