G04*
G04 #@! TF.GenerationSoftware,Altium Limited,Altium Designer,19.0.4 (130)*
G04*
G04 Layer_Color=128*
%FSLAX44Y44*%
%MOMM*%
G71*
G01*
G75*
%ADD17R,0.9300X0.9800*%
%ADD21R,0.9800X0.9300*%
%ADD44R,4.0000X2.0000*%
%ADD45R,5.0000X2.0000*%
%ADD46R,1.2500X0.7000*%
%ADD47R,2.2860X1.0160*%
%ADD48R,5.0800X3.8100*%
%ADD49R,2.5000X1.5000*%
D17*
X534600Y98500D02*
D03*
X550000Y98500D02*
D03*
X534600Y119250D02*
D03*
X550000Y119250D02*
D03*
X534600Y77750D02*
D03*
X550000D02*
D03*
X144000Y161440D02*
D03*
X159400D02*
D03*
X534600Y140000D02*
D03*
X550000Y140000D02*
D03*
X550000Y57000D02*
D03*
X534600Y57000D02*
D03*
D21*
X491000Y135700D02*
D03*
X491000Y120300D02*
D03*
X472000Y135700D02*
D03*
X472000Y120300D02*
D03*
Y78300D02*
D03*
X472000Y93700D02*
D03*
X491000Y78300D02*
D03*
Y93700D02*
D03*
X381000Y37700D02*
D03*
Y22300D02*
D03*
X139000Y137400D02*
D03*
Y122000D02*
D03*
D44*
X774700Y99060D02*
D03*
D45*
X607060D02*
D03*
D46*
X399001Y29500D02*
D03*
X419000Y20000D02*
D03*
Y39000D02*
D03*
D47*
X448880Y87140D02*
D03*
X448880Y132860D02*
D03*
X448880Y110000D02*
D03*
D48*
X393000D02*
D03*
D49*
X116680Y38530D02*
D03*
X30320D02*
D03*
X116680Y100125D02*
D03*
X30320D02*
D03*
Y161720D02*
D03*
X116680D02*
D03*
M02*
