M48
;Layer_Color=9474304
;FILE_FORMAT=4:4
METRIC,TZ
;TYPE=PLATED
T1F00S00C0.3048
T2F00S00C0.8128
;TYPE=NON_PLATED
T3F00S00C1.0000
%
T01
X10000Y20232
Y37186
Y54139
Y71093
Y88046
Y105000
Y121953
Y138907
X29270Y128866
Y113866
Y83300
X37000Y68000
X51000Y68143
Y54406
Y38215
X66337
X81000
X96127
X96000Y53137
X112083Y66522
X126730Y69914
X119816Y89000
X112000Y27000
X128720
X119136Y9000
X102182
X85229
X61907
X44954
X28000
X145674Y27000
X163540Y86776
X155500Y97500
X153338Y114295
X150000Y137500
X170000Y126591
X190000Y110559
X199500Y98866
X232802Y68143
X249755
X266709
X267000Y43000
X250046
X233093
X285093Y44000
X302046
X324093Y79977
X341046
X358000
X375779Y79000
X368742Y54000
X351789
X385696
X405015
X458093Y42000
X480581
X503070
X525558
X280000Y138866
X263046
X246093
X604874Y138969
X642437
X661219
X680000
X678000Y105671
Y88718
Y64000
X686000Y52018
Y42000
X685000Y32000
X690464Y8000
X707418
X724371
X741325
X758279
X775232
X792186
X809139
X826093
X843046
X860000
X861000Y31000
X844046
X827093
X810000Y30124
X793046
X776093
X775000Y54139
X801093Y51966
X818046
X835000
X919000Y52227
Y69180
Y35273
X850586Y137000
X833633
X816679
X788120Y138000
X771166
X754212
X712422Y134024
X743785Y52860
X751024Y30163
X651465Y60600
X628977
X606488
X584000
X593023Y42000
X615512
X570535
X548046
X586093Y166982
X604474
X622856
X641237
X678000
X698470Y167687
X710458Y179674
X736398Y158000
X724410Y146012
X753493Y166000
X770447
X787401
X818093Y164000
X835046
X852000
X504000Y165000
X487046
X470093
X472093Y188000
X489046
X506000
X329000Y178235
X315258Y165535
X302000Y152277
X292000Y177000
X188829Y176046
Y193000
X131304Y188000
X114351
X97397
X74907
X57954
X41000
X28000Y179200
X10000Y172814
Y155861
X29270Y144727
X10000Y189768
X122000Y148000
T02
X880000Y25000
Y50400
Y75800
Y101200
Y126600
Y152000
Y177400
X555000Y179000
X529600
X440800
X415400
X390000
X364600
T03
X51000Y130848
X101000
M30
