G04*
G04 #@! TF.GenerationSoftware,Altium Limited,Altium Designer,19.0.4 (130)*
G04*
G04 Layer_Color=32896*
%FSLAX44Y44*%
%MOMM*%
G71*
G01*
G75*
%ADD12C,0.2000*%
%ADD13C,0.2540*%
%ADD15C,0.1524*%
D12*
X557650Y102400D02*
G03*
X553650Y106400I-4000J0D01*
G01*
X553650Y90600D02*
G03*
X557650Y94600I-0J4000D01*
G01*
X526950Y94600D02*
G03*
X530950Y90600I4000J0D01*
G01*
X530950Y106400D02*
G03*
X526950Y102400I0J-4000D01*
G01*
X483100Y116650D02*
G03*
X487100Y112650I4000J0D01*
G01*
X494900D02*
G03*
X498900Y116650I0J4000D01*
G01*
X498900Y139350D02*
G03*
X494900Y143350I-4000J-0D01*
G01*
X487100D02*
G03*
X483100Y139350I0J-4000D01*
G01*
X464100Y116650D02*
G03*
X468100Y112650I4000J0D01*
G01*
X475900Y112650D02*
G03*
X479900Y116650I0J4000D01*
G01*
Y139350D02*
G03*
X475900Y143350I-4000J-0D01*
G01*
X468100Y143350D02*
G03*
X464100Y139350I0J-4000D01*
G01*
X479900Y97350D02*
G03*
X475900Y101350I-4000J-0D01*
G01*
X468100D02*
G03*
X464100Y97350I0J-4000D01*
G01*
Y74650D02*
G03*
X468100Y70650I4000J0D01*
G01*
X475900D02*
G03*
X479900Y74650I0J4000D01*
G01*
X498900Y97350D02*
G03*
X494900Y101350I-4000J-0D01*
G01*
X487100Y101350D02*
G03*
X483100Y97350I0J-4000D01*
G01*
X483100Y74650D02*
G03*
X487100Y70650I4000J0D01*
G01*
X494900D02*
G03*
X498900Y74650I0J4000D01*
G01*
X557650Y123150D02*
G03*
X553650Y127150I-4000J0D01*
G01*
X553650Y111350D02*
G03*
X557650Y115350I-0J4000D01*
G01*
X526950D02*
G03*
X530950Y111350I4000J0D01*
G01*
X530950Y127150D02*
G03*
X526950Y123150I0J-4000D01*
G01*
X557650Y81650D02*
G03*
X553650Y85650I-4000J0D01*
G01*
Y69850D02*
G03*
X557650Y73850I-0J4000D01*
G01*
X526950Y73850D02*
G03*
X530950Y69850I4000J0D01*
G01*
X530950Y85650D02*
G03*
X526950Y81650I0J-4000D01*
G01*
X373100Y18650D02*
G03*
X377100Y14650I4000J0D01*
G01*
X384900D02*
G03*
X388900Y18650I0J4000D01*
G01*
X388900Y41350D02*
G03*
X384900Y45350I-4000J-0D01*
G01*
X377100D02*
G03*
X373100Y41350I0J-4000D01*
G01*
X167050Y165340D02*
G03*
X163050Y169340I-4000J0D01*
G01*
Y153540D02*
G03*
X167050Y157540I-0J4000D01*
G01*
X136350Y157540D02*
G03*
X140350Y153540I4000J0D01*
G01*
X140350Y169340D02*
G03*
X136350Y165340I0J-4000D01*
G01*
X557650Y143900D02*
G03*
X553650Y147900I-4000J0D01*
G01*
X553650Y132100D02*
G03*
X557650Y136100I-0J4000D01*
G01*
X526950Y136100D02*
G03*
X530950Y132100I4000J0D01*
G01*
X530950Y147900D02*
G03*
X526950Y143900I0J-4000D01*
G01*
X530950Y64900D02*
G03*
X526950Y60900I0J-4000D01*
G01*
X526950Y53100D02*
G03*
X530950Y49100I4000J0D01*
G01*
X553650D02*
G03*
X557650Y53100I-0J4000D01*
G01*
Y60900D02*
G03*
X553650Y64900I-4000J0D01*
G01*
X546300Y90600D02*
X553650Y90600D01*
X530950Y90600D02*
X538300Y90600D01*
X530950Y106400D02*
X538300D01*
X557650Y94600D02*
Y102400D01*
X526950Y94600D02*
Y102400D01*
X546300Y106400D02*
X553650D01*
X483100Y139350D02*
X483100Y132000D01*
X487100Y112650D02*
X494900Y112650D01*
X487100Y143350D02*
X494900D01*
X483100Y116650D02*
X483100Y124000D01*
X498900Y124000D02*
X498900Y116650D01*
X498900Y132000D02*
X498900Y139350D01*
X464100Y139350D02*
X464100Y132000D01*
X468100Y112650D02*
X475900Y112650D01*
X468100Y143350D02*
X475900Y143350D01*
X464100Y124000D02*
X464100Y116650D01*
X479900Y124000D02*
X479900Y116650D01*
X479900Y132000D02*
X479900Y139350D01*
X479900Y74650D02*
Y82000D01*
X468100Y101350D02*
X475900D01*
X468100Y70650D02*
X475900Y70650D01*
X479900Y90000D02*
Y97350D01*
X464100Y90000D02*
Y97350D01*
Y74650D02*
X464100Y82000D01*
X498900Y74650D02*
X498900Y82000D01*
X487100Y101350D02*
X494900Y101350D01*
X487100Y70650D02*
X494900Y70650D01*
X498900Y90000D02*
X498900Y97350D01*
X483100Y90000D02*
Y97350D01*
Y74650D02*
Y82000D01*
X546300Y111350D02*
X553650D01*
X530950D02*
X538300D01*
X530950Y127150D02*
X538300Y127150D01*
X557650Y115350D02*
Y123150D01*
X526950Y123150D02*
X526950Y115350D01*
X546300Y127150D02*
X553650Y127150D01*
X546300Y69850D02*
X553650Y69850D01*
X530950Y69850D02*
X538300D01*
X530950Y85650D02*
X538300D01*
X557650Y73850D02*
Y81650D01*
X526950Y73850D02*
Y81650D01*
X546300Y85650D02*
X553650Y85650D01*
X373100Y34000D02*
Y41350D01*
X377100Y14650D02*
X384900D01*
X377100Y45350D02*
X384900D01*
X373100Y18650D02*
Y26000D01*
X388900Y26000D02*
X388900Y18650D01*
X388900Y34000D02*
Y41350D01*
X131100Y133700D02*
Y145050D01*
Y114350D02*
X146900D01*
X131100Y145050D02*
X146900D01*
X131100Y114350D02*
Y125700D01*
X146900Y133700D02*
Y145050D01*
Y114350D02*
Y125700D01*
X155700Y153540D02*
X163050D01*
X140350Y153540D02*
X147700D01*
X140350Y169340D02*
X147700D01*
X167050Y157540D02*
Y165340D01*
X136350Y157540D02*
Y165340D01*
X155700Y169340D02*
X163050D01*
X546300Y132100D02*
X553650Y132100D01*
X530950Y132100D02*
X538300D01*
X530950Y147900D02*
X538300D01*
X557650Y136100D02*
Y143900D01*
X526950Y136100D02*
Y143900D01*
X546300Y147900D02*
X553650D01*
X546300Y64900D02*
X553650D01*
X526950Y53100D02*
Y60900D01*
X557650Y60900D02*
X557650Y53100D01*
X530950Y64900D02*
X538300D01*
X530950Y49100D02*
X538300Y49100D01*
X546300Y49100D02*
X553650Y49100D01*
D13*
X764540Y157916D02*
G03*
X759460Y170180I-17344J0D01*
G01*
X724312Y164876D02*
G03*
X723900Y33020I-35972J-65816D01*
G01*
X759460Y170180D02*
G03*
X747196Y175260I-12264J-12264D01*
G01*
X759460Y27940D02*
G03*
X764540Y40204I-12264J12264D01*
G01*
X747196Y22860D02*
G03*
X759460Y27940I0J17344D01*
G01*
X746760Y175260D02*
G03*
X725080Y166280I0J-30661D01*
G01*
Y31840D02*
G03*
X746760Y22860I21680J21680D01*
G01*
X770890Y74930D02*
X781050D01*
X775970Y80010D02*
X775970Y69850D01*
X764540Y40204D02*
Y88900D01*
X723900Y33020D02*
X725080Y31840D01*
X764540Y109220D02*
Y160020D01*
X764540Y162560D02*
X764540Y160020D01*
X746760Y22860D02*
X747196D01*
X723900Y165100D02*
X725080Y166280D01*
X746760Y175260D02*
X747196D01*
X516900Y166300D02*
X567700D01*
X516900D02*
Y191700D01*
X567700D01*
Y166300D02*
Y191700D01*
X542300Y166300D02*
Y191700D01*
X437958Y79774D02*
X437958Y76980D01*
X407478D02*
X407478Y143020D01*
X437958Y143020D01*
Y140226D02*
Y143020D01*
X407478Y76980D02*
X437958D01*
X377300Y166300D02*
Y191700D01*
X351900Y166300D02*
Y191700D01*
Y166300D02*
X453500Y166300D01*
Y191700D01*
X351900Y191700D02*
X453500Y191700D01*
X42616Y57530D02*
X105616Y57530D01*
X42616Y19530D02*
X105616Y19530D01*
Y49198D02*
Y57530D01*
X42616Y49198D02*
Y57530D01*
X105616Y19530D02*
Y26846D01*
X42616Y19530D02*
Y26846D01*
X42616Y119125D02*
X105616Y119125D01*
X42616Y81125D02*
X105616Y81125D01*
X105616Y110793D02*
Y119125D01*
X42616Y110793D02*
Y119125D01*
X105616Y81125D02*
Y88441D01*
X42616Y81125D02*
Y88441D01*
X41384Y142720D02*
X104384Y142720D01*
X41384Y180720D02*
X104384Y180720D01*
X41384Y142720D02*
Y151052D01*
X104384Y142720D02*
Y151052D01*
X41384Y173404D02*
Y180720D01*
X104384Y180720D02*
X104384Y173404D01*
X851235Y101157D02*
Y91000D01*
X836000D01*
Y101157D01*
X843617Y91000D02*
Y96078D01*
X836000Y106235D02*
X851235D01*
X836000Y116392D01*
X851235D01*
X801414Y90000D02*
X816649D01*
Y97618D01*
X814110Y100157D01*
X809031D01*
X806492Y97618D01*
Y90000D01*
Y95078D02*
X801414Y100157D01*
X814110Y115392D02*
X816649Y112853D01*
Y107774D01*
X814110Y105235D01*
X811571D01*
X809031Y107774D01*
Y112853D01*
X806492Y115392D01*
X803953D01*
X801414Y112853D01*
Y107774D01*
X803953Y105235D01*
X816649Y120470D02*
Y130627D01*
Y125548D01*
X801414D01*
X699740Y194235D02*
Y179000D01*
X692123D01*
X689583Y181539D01*
Y184078D01*
X692123Y186618D01*
X699740D01*
X692123D01*
X689583Y189157D01*
Y191696D01*
X692123Y194235D01*
X699740D01*
X684505Y179000D02*
Y189157D01*
X679427Y194235D01*
X674348Y189157D01*
Y179000D01*
Y186618D01*
X684505D01*
X669270Y194235D02*
X659113D01*
X664192D01*
Y179000D01*
X654035D02*
X648957D01*
X651496D01*
Y194235D01*
X654035Y191696D01*
X587652Y194910D02*
X592730D01*
X590191D01*
Y182214D01*
X592730Y179674D01*
X595269D01*
X597808Y182214D01*
X572417Y179674D02*
X582573D01*
X572417Y189831D01*
Y192370D01*
X574956Y194910D01*
X580034D01*
X582573Y192370D01*
X521331Y96375D02*
X522997Y94708D01*
Y91376D01*
X521331Y89710D01*
X514666D01*
X513000Y91376D01*
Y94708D01*
X514666Y96375D01*
X513000Y99707D02*
Y103039D01*
Y101373D01*
X522997D01*
X521331Y99707D01*
X513000Y108038D02*
Y111370D01*
Y109704D01*
X522997D01*
X521331Y108038D01*
X491708Y155331D02*
X493374Y156997D01*
X496707D01*
X498373Y155331D01*
Y148666D01*
X496707Y147000D01*
X493374D01*
X491708Y148666D01*
X488376Y147000D02*
X485044D01*
X486710D01*
Y156997D01*
X488376Y155331D01*
X466669Y158696D02*
X469208Y161235D01*
X474287D01*
X476826Y158696D01*
Y148539D01*
X474287Y146000D01*
X469208D01*
X466669Y148539D01*
X451434Y146000D02*
X461591D01*
X451434Y156157D01*
Y158696D01*
X453973Y161235D01*
X459052D01*
X461591Y158696D01*
X451152Y65696D02*
X453691Y68235D01*
X458769D01*
X461309Y65696D01*
Y55539D01*
X458769Y53000D01*
X453691D01*
X451152Y55539D01*
X446074Y65696D02*
X443535Y68235D01*
X438456D01*
X435917Y65696D01*
Y63157D01*
X438456Y60617D01*
X440995D01*
X438456D01*
X435917Y58078D01*
Y55539D01*
X438456Y53000D01*
X443535D01*
X446074Y55539D01*
X510349Y77757D02*
X512015Y76091D01*
Y72759D01*
X510349Y71093D01*
X503684D01*
X502018Y72759D01*
Y76091D01*
X503684Y77757D01*
X502018Y86088D02*
X512015D01*
X507016Y81090D01*
Y87754D01*
X590655Y123696D02*
X593194Y126235D01*
X598273D01*
X600812Y123696D01*
Y113539D01*
X598273Y111000D01*
X593194D01*
X590655Y113539D01*
X585577Y111000D02*
X580498D01*
X583038D01*
Y126235D01*
X585577Y123696D01*
X562724Y111000D02*
X572881D01*
X562724Y121157D01*
Y123696D01*
X565263Y126235D01*
X570342D01*
X572881Y123696D01*
X590655Y82610D02*
X593194Y85149D01*
X598273D01*
X600812Y82610D01*
Y72453D01*
X598273Y69914D01*
X593194D01*
X590655Y72453D01*
X585577Y69914D02*
X580498D01*
X583038D01*
Y85149D01*
X585577Y82610D01*
X572881D02*
X570342Y85149D01*
X565263D01*
X562724Y82610D01*
Y80071D01*
X565263Y77532D01*
X567803D01*
X565263D01*
X562724Y74992D01*
Y72453D01*
X565263Y69914D01*
X570342D01*
X572881Y72453D01*
X450000Y37235D02*
Y22000D01*
X442383D01*
X439843Y24539D01*
Y34696D01*
X442383Y37235D01*
X450000D01*
X434765Y22000D02*
X429687D01*
X432226D01*
Y37235D01*
X434765Y34696D01*
X357316Y36696D02*
X359855Y39235D01*
X364933D01*
X367472Y36696D01*
Y26539D01*
X364933Y24000D01*
X359855D01*
X357316Y26539D01*
X342081Y39235D02*
X347159Y36696D01*
X352237Y31618D01*
Y26539D01*
X349698Y24000D01*
X344620D01*
X342081Y26539D01*
Y29078D01*
X344620Y31618D01*
X352237D01*
X361662Y119909D02*
Y107213D01*
X359123Y104674D01*
X354045D01*
X351506Y107213D01*
Y119909D01*
X346427Y104674D02*
X341349D01*
X343888D01*
Y119909D01*
X346427Y117370D01*
X341843Y185555D02*
X346922D01*
X344383D01*
Y172859D01*
X346922Y170320D01*
X349461D01*
X352000Y172859D01*
X336765Y170320D02*
X331687D01*
X334226D01*
Y185555D01*
X336765Y183016D01*
X149200Y103800D02*
X133965D01*
Y96182D01*
X136504Y93643D01*
X141582D01*
X144122Y96182D01*
Y103800D01*
Y98722D02*
X149200Y93643D01*
Y88565D02*
Y83486D01*
Y86026D01*
X133965D01*
X136504Y88565D01*
X162270Y49235D02*
Y34000D01*
Y39078D01*
X152113Y49235D01*
X159731Y41617D01*
X152113Y34000D01*
X147035Y46696D02*
X144496Y49235D01*
X139417D01*
X136878Y46696D01*
Y44157D01*
X139417Y41617D01*
X141957D01*
X139417D01*
X136878Y39078D01*
Y36539D01*
X139417Y34000D01*
X144496D01*
X147035Y36539D01*
X85441Y77930D02*
Y62695D01*
Y67774D01*
X75285Y77930D01*
X82902Y70313D01*
X75285Y62695D01*
X60050D02*
X70206D01*
X60050Y72852D01*
Y75391D01*
X62589Y77930D01*
X67667D01*
X70206Y75391D01*
X84479Y140068D02*
Y124833D01*
Y129912D01*
X74322Y140068D01*
X81939Y132451D01*
X74322Y124833D01*
X69244D02*
X64165D01*
X66705D01*
Y140068D01*
X69244Y137529D01*
X511843Y61696D02*
X514383Y64235D01*
X519461D01*
X522000Y61696D01*
Y51539D01*
X519461Y49000D01*
X514383D01*
X511843Y51539D01*
X506765Y49000D02*
X501687D01*
X504226D01*
Y64235D01*
X506765Y61696D01*
X483912Y64235D02*
X494069D01*
Y56617D01*
X488991Y59157D01*
X486451D01*
X483912Y56617D01*
Y51539D01*
X486451Y49000D01*
X491530D01*
X494069Y51539D01*
X588843Y144696D02*
X591382Y147235D01*
X596461D01*
X599000Y144696D01*
Y134539D01*
X596461Y132000D01*
X591382D01*
X588843Y134539D01*
X583765Y132000D02*
X578687D01*
X581226D01*
Y147235D01*
X583765Y144696D01*
X563451Y132000D02*
Y147235D01*
X571069Y139618D01*
X560912D01*
X155441Y190692D02*
X157980Y193231D01*
X163059D01*
X165598Y190692D01*
Y180535D01*
X163059Y177996D01*
X157980D01*
X155441Y180535D01*
X140206Y193231D02*
X150363D01*
Y185614D01*
X145285Y188153D01*
X142745D01*
X140206Y185614D01*
Y180535D01*
X142745Y177996D01*
X147824D01*
X150363Y180535D01*
D15*
X416263Y24946D02*
Y34054D01*
X401738Y34446D02*
Y44762D01*
X416263D01*
X401738Y14238D02*
Y24554D01*
Y14238D02*
X416263D01*
M02*
