G04*
G04 #@! TF.GenerationSoftware,Altium Limited,Altium Designer,19.0.4 (130)*
G04*
G04 Layer_Color=2752767*
%FSLAX44Y44*%
%MOMM*%
G71*
G01*
G75*
%ADD10C,0.2540*%
%ADD11C,0.0600*%
%ADD12C,0.1000*%
%ADD13C,0.2000*%
%ADD14C,0.0500*%
%ADD15C,0.2032*%
%ADD16C,0.0508*%
%ADD17C,0.0677*%
G36*
X420501Y36850D02*
X417501D01*
Y41150D01*
X420501D01*
Y36850D01*
D02*
G37*
G36*
X400500Y27350D02*
X397500D01*
Y31650D01*
X400500D01*
Y27350D01*
D02*
G37*
G36*
X420501Y17850D02*
X417501D01*
Y22150D01*
X420501D01*
Y17850D01*
D02*
G37*
G36*
X415501Y15000D02*
X402500Y15000D01*
Y44000D01*
X415501D01*
X415501Y15000D01*
D02*
G37*
D10*
X0Y200000D02*
X930000D01*
Y0D02*
Y200000D01*
X0Y0D02*
Y200000D01*
Y0D02*
X930000D01*
D11*
X420801Y44001D02*
G03*
X420801Y44001I-300J0D01*
G01*
D12*
X263350Y183170D02*
X266350Y186170D01*
X265350Y182170D02*
X268350Y185170D01*
X261300Y177000D02*
X269300Y177000D01*
X263300Y173000D02*
Y181000D01*
X263300Y177000D02*
X267300Y173000D01*
X263300Y177000D02*
X267300Y181000D01*
Y173000D02*
Y181000D01*
D13*
X424502Y39000D02*
G03*
X424502Y39000I-1001J0D01*
G01*
D14*
X180500Y110000D02*
G03*
X180500Y110000I-3500J0D01*
G01*
X172000D02*
X182000D01*
X177000Y105000D02*
Y115000D01*
D15*
X243300Y172000D02*
Y182000D01*
X288300Y182000D02*
X288300Y172000D01*
X283300Y177000D02*
X293300D01*
D16*
X552968Y176968D02*
Y181032D01*
X557032D01*
Y176968D01*
X552968D01*
X527568D02*
Y181032D01*
X531632D01*
Y176968D01*
X527568D01*
X438768D02*
Y181032D01*
X442832D01*
Y176968D01*
X438768D01*
X413368D02*
Y181032D01*
X417432D01*
Y176968D01*
X413368D01*
X387968D02*
Y181032D01*
X392032D01*
Y176968D01*
X387968D01*
X362568D02*
Y181032D01*
X366632D01*
Y176968D01*
X362568D01*
X877968Y48368D02*
Y52432D01*
X882032D01*
Y48368D01*
X877968D01*
Y175368D02*
Y179432D01*
X882032D01*
Y175368D01*
X877968D01*
Y149968D02*
Y154032D01*
X882032D01*
Y149968D01*
X877968D01*
Y124568D02*
Y128632D01*
X882032D01*
Y124568D01*
X877968D01*
Y99168D02*
Y103232D01*
X882032D01*
Y99168D01*
X877968D01*
Y73768D02*
Y77832D01*
X882032D01*
Y73768D01*
X877968D01*
Y22968D02*
Y27032D01*
X882032D01*
Y22968D01*
X877968D01*
X153338Y112263D02*
X151306Y116327D01*
X155370D01*
X153338Y112263D01*
X584000Y58568D02*
X581968Y62632D01*
X586032D01*
X584000Y58568D01*
X628977D02*
X626945Y62632D01*
X631009D01*
X628977Y58568D01*
X606488D02*
X604456Y62632D01*
X608520D01*
X606488Y58568D01*
X651465D02*
X649433Y62632D01*
X653497D01*
X651465Y58568D01*
X405015Y51968D02*
X402983Y56032D01*
X407047D01*
X405015Y51968D01*
X375779Y76968D02*
X373747Y81032D01*
X377811D01*
X375779Y76968D01*
X28000Y177168D02*
X25968Y181232D01*
X30032D01*
X28000Y177168D01*
X29270Y142695D02*
X27238Y146759D01*
X31302D01*
X29270Y142695D01*
Y126834D02*
X27238Y130898D01*
X31302D01*
X29270Y126834D01*
Y111834D02*
X27238Y115898D01*
X31302D01*
X29270Y111834D01*
Y81268D02*
X27238Y85332D01*
X31302D01*
X29270Y81268D01*
X112083Y64490D02*
X110051Y68555D01*
X114115D01*
X112083Y64490D01*
X96000Y51104D02*
X93968Y55168D01*
X98032D01*
X96000Y51104D01*
X96127Y36183D02*
X94095Y40247D01*
X98159D01*
X96127Y36183D01*
X81000D02*
X78968Y40247D01*
X83032D01*
X81000Y36183D01*
X51000D02*
X48968Y40247D01*
X53032D01*
X51000Y36183D01*
Y52375D02*
X48968Y56438D01*
X53032D01*
X51000Y52375D01*
Y66111D02*
X48968Y70175D01*
X53032D01*
X51000Y66111D01*
X37000Y65968D02*
X34968Y70032D01*
X39032D01*
X37000Y65968D01*
X66337Y36183D02*
X64306Y40247D01*
X68369D01*
X66337Y36183D01*
X155500Y95468D02*
X153468Y99532D01*
X157532D01*
X155500Y95468D01*
X199500Y96834D02*
X197468Y100898D01*
X201532D01*
X199500Y96834D01*
X163540Y84744D02*
X161508Y88808D01*
X165572D01*
X163540Y84744D01*
X190000Y108527D02*
X187968Y112591D01*
X192032D01*
X190000Y108527D01*
X170000Y124559D02*
X167968Y128623D01*
X172032D01*
X170000Y124559D01*
X188829Y190968D02*
X186797Y195032D01*
X190861D01*
X188829Y190968D01*
Y174014D02*
X186797Y178078D01*
X190861D01*
X188829Y174014D01*
X686000Y49986D02*
X683968Y54050D01*
X688032D01*
X686000Y49986D01*
X678000Y103639D02*
X675968Y107703D01*
X680032D01*
X678000Y103639D01*
Y61968D02*
X675968Y66032D01*
X680032D01*
X678000Y61968D01*
Y86686D02*
X675968Y90750D01*
X680032D01*
X678000Y86686D01*
X698470Y165655D02*
X696438Y169718D01*
X700502D01*
X698470Y165655D01*
X710458Y177642D02*
X708426Y181707D01*
X712490D01*
X710458Y177642D01*
X736398Y155968D02*
X734366Y160032D01*
X738430D01*
X736398Y155968D01*
X712422Y131992D02*
X710390Y136056D01*
X714454D01*
X712422Y131992D01*
X724410Y143980D02*
X722378Y148044D01*
X726442D01*
X724410Y143980D01*
X787401Y163968D02*
X785368Y168032D01*
X789433D01*
X787401Y163968D01*
X753493D02*
X751461Y168032D01*
X755525D01*
X753493Y163968D01*
X770447D02*
X768415Y168032D01*
X772479D01*
X770447Y163968D01*
X788120Y135968D02*
X786087Y140032D01*
X790152D01*
X788120Y135968D01*
X754212D02*
X752180Y140032D01*
X756244D01*
X754212Y135968D01*
X771166D02*
X769134Y140032D01*
X773198D01*
X771166Y135968D01*
X850586Y134968D02*
X848554Y139032D01*
X852618D01*
X850586Y134968D01*
X816679D02*
X814647Y139032D01*
X818711D01*
X816679Y134968D01*
X833633D02*
X831601Y139032D01*
X835665D01*
X833633Y134968D01*
X852000Y161968D02*
X849968Y166032D01*
X854032D01*
X852000Y161968D01*
X818093D02*
X816061Y166032D01*
X820125D01*
X818093Y161968D01*
X835046D02*
X833014Y166032D01*
X837078D01*
X835046Y161968D01*
X919000Y33241D02*
X916968Y37305D01*
X921032D01*
X919000Y33241D01*
Y67148D02*
X916968Y71212D01*
X921032D01*
X919000Y67148D01*
Y50195D02*
X916968Y54259D01*
X921032D01*
X919000Y50195D01*
X775000Y52107D02*
X772968Y56171D01*
X777032D01*
X775000Y52107D01*
X751024Y28131D02*
X748992Y32195D01*
X753056D01*
X751024Y28131D01*
X743785Y50828D02*
X741753Y54892D01*
X745817D01*
X743785Y50828D01*
X835000Y49934D02*
X832968Y53998D01*
X837032D01*
X835000Y49934D01*
X801093D02*
X799061Y53998D01*
X803125D01*
X801093Y49934D01*
X818046D02*
X816014Y53998D01*
X820078D01*
X818046Y49934D01*
X861000Y28968D02*
X858968Y33032D01*
X863032D01*
X861000Y28968D01*
X827093D02*
X825061Y33032D01*
X829125D01*
X827093Y28968D01*
X844046D02*
X842014Y33032D01*
X846078D01*
X844046Y28968D01*
X810000Y28092D02*
X807968Y32156D01*
X812032D01*
X810000Y28092D01*
X776093D02*
X774061Y32156D01*
X778125D01*
X776093Y28092D01*
X793046D02*
X791014Y32156D01*
X795078D01*
X793046Y28092D01*
X680000Y136938D02*
X677968Y141002D01*
X682032D01*
X680000Y136938D01*
X642437D02*
X640405Y141002D01*
X644469D01*
X642437Y136938D01*
X661219D02*
X659187Y141002D01*
X663251D01*
X661219Y136938D01*
X604874D02*
X602842Y141002D01*
X606906D01*
X604874Y136938D01*
X678000Y164950D02*
X675968Y169014D01*
X680032D01*
X678000Y164950D01*
X641237D02*
X639205Y169014D01*
X643269D01*
X641237Y164950D01*
X622856D02*
X620824Y169014D01*
X624888D01*
X622856Y164950D01*
X586093D02*
X584061Y169014D01*
X588125D01*
X586093Y164950D01*
X604474D02*
X602442Y169014D01*
X606506D01*
X604474Y164950D01*
X504000Y162968D02*
X501968Y167032D01*
X506032D01*
X504000Y162968D01*
X470093D02*
X468061Y167032D01*
X472125D01*
X470093Y162968D01*
X487046D02*
X485014Y167032D01*
X489078D01*
X487046Y162968D01*
X506000Y185968D02*
X503968Y190032D01*
X508032D01*
X506000Y185968D01*
X472093D02*
X470061Y190032D01*
X474125D01*
X472093Y185968D01*
X489046D02*
X487014Y190032D01*
X491078D01*
X489046Y185968D01*
X593023Y39968D02*
X590991Y44032D01*
X595055D01*
X593023Y39968D01*
X615512D02*
X613479Y44032D01*
X617543D01*
X615512Y39968D01*
X570535D02*
X568503Y44032D01*
X572567D01*
X570535Y39968D01*
X525558D02*
X523526Y44032D01*
X527590D01*
X525558Y39968D01*
X548046D02*
X546014Y44032D01*
X550078D01*
X548046Y39968D01*
X503070D02*
X501038Y44032D01*
X505102D01*
X503070Y39968D01*
X458093D02*
X456061Y44032D01*
X460125D01*
X458093Y39968D01*
X480581D02*
X478549Y44032D01*
X482613D01*
X480581Y39968D01*
X358000Y77945D02*
X355968Y82009D01*
X360032D01*
X358000Y77945D01*
X324093D02*
X322061Y82009D01*
X326125D01*
X324093Y77945D01*
X341046D02*
X339014Y82009D01*
X343078D01*
X341046Y77945D01*
X385696Y51968D02*
X383664Y56032D01*
X387728D01*
X385696Y51968D01*
X351789D02*
X349757Y56032D01*
X353821D01*
X351789Y51968D01*
X368742D02*
X366710Y56032D01*
X370774D01*
X368742Y51968D01*
X285093Y41968D02*
X283061Y46032D01*
X287125D01*
X285093Y41968D01*
X302046D02*
X300014Y46032D01*
X304078D01*
X302046Y41968D01*
X145674Y24968D02*
X143642Y29032D01*
X147706D01*
X145674Y24968D01*
X112000D02*
X109968Y29032D01*
X114032D01*
X112000Y24968D01*
X128720D02*
X126688Y29032D01*
X130752D01*
X128720Y24968D01*
X266709Y66111D02*
X264677Y70175D01*
X268741D01*
X266709Y66111D01*
X232802D02*
X230770Y70175D01*
X234834D01*
X232802Y66111D01*
X249755D02*
X247723Y70175D01*
X251787D01*
X249755Y66111D01*
X267000Y40968D02*
X264968Y45032D01*
X269032D01*
X267000Y40968D01*
X233093D02*
X231061Y45032D01*
X235125D01*
X233093Y40968D01*
X250046D02*
X248014Y45032D01*
X252078D01*
X250046Y40968D01*
X280000Y136834D02*
X277968Y140898D01*
X282032D01*
X280000Y136834D01*
X246093D02*
X244061Y140898D01*
X248125D01*
X246093Y136834D01*
X263046D02*
X261014Y140898D01*
X265078D01*
X263046Y136834D01*
X302000Y150245D02*
X299968Y154309D01*
X304032D01*
X302000Y150245D01*
X329000Y176203D02*
X326968Y180267D01*
X331032D01*
X329000Y176203D01*
X315258Y163503D02*
X313226Y167567D01*
X317290D01*
X315258Y163503D01*
X97397Y185968D02*
X95365Y190032D01*
X99429D01*
X97397Y185968D01*
X131304D02*
X129272Y190032D01*
X133336D01*
X131304Y185968D01*
X114351D02*
X112319Y190032D01*
X116383D01*
X114351Y185968D01*
X41000D02*
X38968Y190032D01*
X43032D01*
X41000Y185968D01*
X74907D02*
X72875Y190032D01*
X76939D01*
X74907Y185968D01*
X57954D02*
X55922Y190032D01*
X59986D01*
X57954Y185968D01*
X85229Y6968D02*
X83197Y11032D01*
X87261D01*
X85229Y6968D01*
X119136D02*
X117104Y11032D01*
X121168D01*
X119136Y6968D01*
X102182D02*
X100150Y11032D01*
X104214D01*
X102182Y6968D01*
X28000D02*
X25968Y11032D01*
X30032D01*
X28000Y6968D01*
X61907D02*
X59875Y11032D01*
X63939D01*
X61907Y6968D01*
X44954D02*
X42922Y11032D01*
X46986D01*
X44954Y6968D01*
X690464Y5968D02*
X688432Y10032D01*
X692496D01*
X690464Y5968D01*
X707418D02*
X705386Y10032D01*
X709450D01*
X707418Y5968D01*
X724371D02*
X722339Y10032D01*
X726404D01*
X724371Y5968D01*
X775232D02*
X773200Y10032D01*
X777264D01*
X775232Y5968D01*
X758279D02*
X756247Y10032D01*
X760311D01*
X758279Y5968D01*
X741325D02*
X739293Y10032D01*
X743357D01*
X741325Y5968D01*
X826093D02*
X824061Y10032D01*
X828125D01*
X826093Y5968D01*
X809139D02*
X807107Y10032D01*
X811171D01*
X809139Y5968D01*
X792186D02*
X790154Y10032D01*
X794218D01*
X792186Y5968D01*
X860000D02*
X857968Y10032D01*
X862032D01*
X860000Y5968D01*
X843046D02*
X841014Y10032D01*
X845078D01*
X843046Y5968D01*
X10000Y35154D02*
X7968Y39218D01*
X12032D01*
X10000Y35154D01*
Y18200D02*
X7968Y22264D01*
X12032D01*
X10000Y18200D01*
Y86014D02*
X7968Y90078D01*
X12032D01*
X10000Y86014D01*
Y69061D02*
X7968Y73125D01*
X12032D01*
X10000Y69061D01*
Y52107D02*
X7968Y56171D01*
X12032D01*
X10000Y52107D01*
Y136875D02*
X7968Y140939D01*
X12032D01*
X10000Y136875D01*
Y119922D02*
X7968Y123986D01*
X12032D01*
X10000Y119922D01*
Y102968D02*
X7968Y107032D01*
X12032D01*
X10000Y102968D01*
Y153829D02*
X7968Y157893D01*
X12032D01*
X10000Y153829D01*
Y170782D02*
X7968Y174846D01*
X12032D01*
X10000Y170782D01*
Y187736D02*
X7968Y191800D01*
X12032D01*
X10000Y187736D01*
X150000Y135468D02*
X147968Y139532D01*
X152032D01*
X150000Y135468D01*
X122000Y145968D02*
X119968Y150032D01*
X124032D01*
X122000Y145968D01*
X292000Y174968D02*
X289968Y179032D01*
X294032D01*
X292000Y174968D01*
X686000Y39968D02*
X683968Y44032D01*
X688032D01*
X686000Y39968D01*
X685000Y29968D02*
X682968Y34032D01*
X687032D01*
X685000Y29968D01*
X126730Y67882D02*
X124698Y71946D01*
X128762D01*
X126730Y67882D01*
X119816Y86968D02*
X117784Y91032D01*
X121848D01*
X119816Y86968D01*
D17*
X103032Y130848D02*
G03*
X103032Y130848I-2032J0D01*
G01*
X53032D02*
G03*
X53032Y130848I-2032J0D01*
G01*
M02*
