G04*
G04 #@! TF.GenerationSoftware,Altium Limited,Altium Designer,19.0.4 (130)*
G04*
G04 Layer_Physical_Order=1*
G04 Layer_Color=255*
%FSLAX44Y44*%
%MOMM*%
G71*
G01*
G75*
%ADD11C,0.3000*%
%ADD12C,0.2000*%
%ADD17R,0.9300X0.9800*%
%ADD18O,2.1000X0.3000*%
%ADD19O,0.3000X2.1000*%
%ADD20R,1.1500X1.4000*%
%ADD21R,0.9800X0.9300*%
%ADD34C,1.0000*%
%ADD35C,0.7000*%
%ADD36C,0.4000*%
%ADD37R,1.5240X1.7780*%
%ADD38O,1.5240X1.7780*%
%ADD39O,1.7780X1.5240*%
%ADD40R,1.7780X1.5240*%
%ADD41C,2.0000*%
%ADD42R,2.0000X2.0000*%
%ADD43C,0.5080*%
G36*
X384277Y187421D02*
X384566Y187174D01*
X384838Y186972D01*
X385093Y186816D01*
X385329Y186705D01*
X385548Y186640D01*
X385750Y186621D01*
X385934Y186647D01*
X386101Y186719D01*
X386250Y186836D01*
X383434Y184021D01*
X383551Y184170D01*
X383623Y184336D01*
X383649Y184520D01*
X383629Y184722D01*
X383565Y184941D01*
X383454Y185177D01*
X383298Y185432D01*
X383096Y185704D01*
X382849Y185993D01*
X382556Y186300D01*
X383970Y187714D01*
X384277Y187421D01*
D02*
G37*
G36*
X541787Y187507D02*
X540488Y186159D01*
X538449Y183727D01*
X537710Y182643D01*
X537157Y181648D01*
X536792Y180741D01*
X536613Y179922D01*
X536620Y179192D01*
X536815Y178550D01*
X537196Y177997D01*
X528112Y187750D01*
X529002Y187876D01*
X529887Y188078D01*
X530769Y188358D01*
X531647Y188713D01*
X532522Y189146D01*
X533392Y189655D01*
X534259Y190241D01*
X535122Y190903D01*
X535982Y191642D01*
X536837Y192457D01*
X541787Y187507D01*
D02*
G37*
G36*
X277619Y181870D02*
X268380Y175720D01*
X268867Y176174D01*
X269137Y176745D01*
X269192Y177433D01*
X269030Y178238D01*
X268652Y179160D01*
X268059Y180199D01*
X267250Y181355D01*
X266224Y182628D01*
X263525Y185525D01*
X269656Y189294D01*
X277619Y181870D01*
D02*
G37*
G36*
X171310Y175110D02*
X171140Y175051D01*
X170990Y174951D01*
X170860Y174811D01*
X170750Y174631D01*
X170660Y174410D01*
X170590Y174151D01*
X170540Y173850D01*
X170510Y173510D01*
X170500Y173130D01*
X168500D01*
X168490Y173510D01*
X168460Y173850D01*
X168410Y174151D01*
X168340Y174410D01*
X168250Y174631D01*
X168140Y174811D01*
X168010Y174951D01*
X167860Y175051D01*
X167690Y175110D01*
X167500Y175131D01*
X171500D01*
X171310Y175110D01*
D02*
G37*
G36*
X277689Y181609D02*
X277899Y181376D01*
X278249Y181171D01*
X278739Y180993D01*
X279370Y180842D01*
X280140Y180719D01*
X281049Y180623D01*
X283290Y180514D01*
X284620Y180500D01*
Y173500D01*
X283290Y173486D01*
X280140Y173281D01*
X279370Y173158D01*
X278739Y173007D01*
X278249Y172829D01*
X277899Y172624D01*
X277689Y172391D01*
X277619Y172131D01*
Y181870D01*
X277689Y181609D01*
D02*
G37*
G36*
X437049Y171164D02*
X436901Y171281D01*
X436734Y171353D01*
X436550Y171379D01*
X436348Y171360D01*
X436129Y171295D01*
X435892Y171184D01*
X435638Y171028D01*
X435366Y170826D01*
X435077Y170579D01*
X434770Y170286D01*
X433356Y171700D01*
X433649Y172007D01*
X433896Y172296D01*
X434098Y172568D01*
X434254Y172822D01*
X434365Y173059D01*
X434430Y173278D01*
X434449Y173480D01*
X434423Y173664D01*
X434351Y173831D01*
X434234Y173979D01*
X437049Y171164D01*
D02*
G37*
G36*
X411650D02*
X411501Y171281D01*
X411334Y171353D01*
X411150Y171379D01*
X410948Y171360D01*
X410729Y171295D01*
X410493Y171184D01*
X410238Y171028D01*
X409966Y170826D01*
X409677Y170579D01*
X409370Y170286D01*
X407956Y171700D01*
X408249Y172007D01*
X408496Y172296D01*
X408698Y172568D01*
X408854Y172822D01*
X408965Y173059D01*
X409030Y173278D01*
X409049Y173480D01*
X409023Y173664D01*
X408951Y173831D01*
X408834Y173979D01*
X411650Y171164D01*
D02*
G37*
G36*
X353980Y174097D02*
X353826Y173994D01*
X353826Y173994D01*
X311411Y131578D01*
X232892D01*
X232135Y132500D01*
X231822Y134076D01*
X231481Y134586D01*
X232255Y135744D01*
X232604Y137500D01*
X232255Y139256D01*
X231260Y140744D01*
X229772Y141739D01*
X228016Y142088D01*
X225572D01*
Y157600D01*
X248680Y180708D01*
X249950Y180182D01*
Y172273D01*
X249922Y172131D01*
X249950Y171988D01*
Y169100D01*
X251184D01*
X251364Y166525D01*
X251324Y164441D01*
X251284Y163900D01*
X250650D01*
Y161012D01*
X250622Y160870D01*
X250638Y160788D01*
X250626Y160705D01*
X250650Y160611D01*
Y148100D01*
X265431D01*
X265950Y148100D01*
X267029Y148560D01*
X267220D01*
X272430D01*
Y156000D01*
Y163440D01*
X267029D01*
X265950Y163900D01*
X265431Y163900D01*
X264716D01*
X264535Y166475D01*
X264568Y168154D01*
X265350Y169100D01*
X277477D01*
X277619Y169072D01*
X277762Y169100D01*
X277978D01*
X278016Y169097D01*
X278023Y169100D01*
X280650D01*
Y170249D01*
X283405Y170429D01*
X284651Y170441D01*
X284663Y170444D01*
X292000D01*
X293697Y170667D01*
X295278Y171322D01*
X296636Y172364D01*
X297678Y173722D01*
X298333Y175303D01*
X298556Y177000D01*
X298333Y178697D01*
X297678Y180278D01*
X296636Y181636D01*
X295278Y182678D01*
X293697Y183333D01*
X292000Y183556D01*
X284663D01*
X284651Y183559D01*
X283380Y183572D01*
X281285Y183674D01*
X280650Y183741D01*
Y184900D01*
X278855D01*
X274736Y188740D01*
X275201Y189922D01*
X353980D01*
Y174097D01*
D02*
G37*
G36*
X930000Y0D02*
X0D01*
Y200000D01*
X538386D01*
X538817Y198730D01*
X538694Y198636D01*
X534734Y194676D01*
X534727Y194671D01*
X533928Y193910D01*
X533193Y193278D01*
X532470Y192724D01*
X531763Y192245D01*
X531070Y191840D01*
X530393Y191506D01*
X529731Y191238D01*
X529083Y191032D01*
X528445Y190886D01*
X527683Y190778D01*
X527459Y190700D01*
X526828Y190617D01*
X524244Y189547D01*
X522026Y187844D01*
X520323Y185626D01*
X519253Y183042D01*
X518888Y180270D01*
Y177730D01*
X519253Y174958D01*
X520323Y172374D01*
X522026Y170156D01*
X524244Y168453D01*
X526828Y167383D01*
X529600Y167018D01*
X532372Y167383D01*
X534956Y168453D01*
X537174Y170156D01*
X538876Y172374D01*
X539947Y174958D01*
X540312Y177730D01*
Y180270D01*
X540231Y180882D01*
X540316Y181035D01*
X540891Y181878D01*
X542764Y184112D01*
X543570Y184949D01*
X544840Y184437D01*
Y180270D01*
X555000D01*
X565160D01*
Y187444D01*
X868110D01*
Y166780D01*
X891890D01*
Y182179D01*
X893063Y182665D01*
X904444Y171284D01*
Y82846D01*
X891835Y70237D01*
X890759Y70956D01*
X891617Y73028D01*
X891982Y75800D01*
X891617Y78572D01*
X890547Y81156D01*
X888844Y83374D01*
X886626Y85077D01*
X884042Y86147D01*
X881270Y86512D01*
X878730D01*
X875958Y86147D01*
X873374Y85077D01*
X871156Y83374D01*
X869453Y81156D01*
X868924Y79878D01*
X499666D01*
X479250Y100294D01*
X492377Y113422D01*
X859982D01*
X868690Y104713D01*
X868383Y103972D01*
X868018Y101200D01*
X868383Y98428D01*
X869453Y95844D01*
X871156Y93626D01*
X873374Y91923D01*
X875958Y90853D01*
X878730Y90488D01*
X881270D01*
X884042Y90853D01*
X886626Y91923D01*
X888844Y93626D01*
X890547Y95844D01*
X891617Y98428D01*
X891982Y101200D01*
X891617Y103972D01*
X890547Y106556D01*
X888844Y108774D01*
X886626Y110477D01*
X884042Y111547D01*
X881270Y111912D01*
X878730D01*
X875958Y111547D01*
X874144Y110795D01*
X864555Y120384D01*
X863232Y121268D01*
X861671Y121578D01*
X861671Y121578D01*
X490688D01*
X489127Y121268D01*
X487804Y120384D01*
X487804Y120384D01*
X473999Y106578D01*
X377075D01*
X376589Y107752D01*
X436750Y167913D01*
X438028Y167383D01*
X440800Y167018D01*
X443572Y167383D01*
X446156Y168453D01*
X448374Y170156D01*
X450077Y172374D01*
X451147Y174958D01*
X451512Y177730D01*
Y180270D01*
X451147Y183042D01*
X450077Y185626D01*
X448374Y187844D01*
X446156Y189547D01*
X443572Y190617D01*
X440800Y190982D01*
X438028Y190617D01*
X435444Y189547D01*
X433226Y187844D01*
X431524Y185626D01*
X430453Y183042D01*
X430088Y180270D01*
Y177730D01*
X430453Y174958D01*
X430983Y173680D01*
X368881Y111578D01*
X356675D01*
X356189Y112752D01*
X411350Y167913D01*
X412628Y167383D01*
X415400Y167018D01*
X418172Y167383D01*
X420756Y168453D01*
X422974Y170156D01*
X424677Y172374D01*
X425747Y174958D01*
X426112Y177730D01*
Y180270D01*
X425747Y183042D01*
X424677Y185626D01*
X422974Y187844D01*
X420756Y189547D01*
X418172Y190617D01*
X415400Y190982D01*
X412628Y190617D01*
X410044Y189547D01*
X407826Y187844D01*
X406123Y185626D01*
X405053Y183042D01*
X404688Y180270D01*
Y177730D01*
X405053Y174958D01*
X405583Y173680D01*
X348481Y116578D01*
X233361D01*
X232604Y117500D01*
X232255Y119256D01*
X231758Y120000D01*
X232255Y120744D01*
X232604Y122500D01*
X233361Y123422D01*
X313100D01*
X313100Y123422D01*
X314661Y123732D01*
X315984Y124616D01*
X358478Y167110D01*
X375220D01*
Y187623D01*
X376393Y188109D01*
X380182Y184320D01*
X379653Y183042D01*
X379288Y180270D01*
Y177730D01*
X379653Y174958D01*
X380723Y172374D01*
X382426Y170156D01*
X384644Y168453D01*
X387228Y167383D01*
X390000Y167018D01*
X392772Y167383D01*
X395356Y168453D01*
X397574Y170156D01*
X399277Y172374D01*
X400347Y174958D01*
X400712Y177730D01*
Y180270D01*
X400347Y183042D01*
X399277Y185626D01*
X397574Y187844D01*
X395356Y189547D01*
X392772Y190617D01*
X390000Y190982D01*
X387228Y190617D01*
X385950Y190088D01*
X379154Y196884D01*
X377831Y197768D01*
X376270Y198078D01*
X376270Y198078D01*
X226000D01*
X226000Y198078D01*
X224439Y197768D01*
X223116Y196884D01*
X223116Y196884D01*
X201616Y175384D01*
X200732Y174061D01*
X200422Y172500D01*
X200422Y172500D01*
Y166614D01*
X199500Y165858D01*
X197744Y165509D01*
X197000Y165012D01*
X196256Y165509D01*
X194500Y165858D01*
X192744Y165509D01*
X192000Y165012D01*
X191256Y165509D01*
X189500Y165858D01*
X187744Y165509D01*
X187000Y165012D01*
X186256Y165509D01*
X184500Y165858D01*
X182744Y165509D01*
X182000Y165012D01*
X181256Y165509D01*
X179500Y165858D01*
X177744Y165509D01*
X177000Y165012D01*
X176256Y165509D01*
X174500Y165858D01*
X173578Y166614D01*
Y172100D01*
X176350D01*
Y187900D01*
X161569D01*
X161050Y187900D01*
X159971Y187440D01*
X159780D01*
X154570D01*
Y180000D01*
Y172560D01*
X159971D01*
X161050Y172100D01*
X161569Y172100D01*
X165422D01*
Y166615D01*
X164500Y165858D01*
X162744Y165509D01*
X162000Y165012D01*
X161256Y165509D01*
X159500Y165858D01*
X157744Y165509D01*
X156586Y164735D01*
X156076Y165076D01*
X155770Y165137D01*
Y163788D01*
X155261Y163026D01*
X154911Y161270D01*
Y152270D01*
X154089D01*
Y161270D01*
X153739Y163026D01*
X153230Y163788D01*
Y165137D01*
X152924Y165076D01*
X152414Y164735D01*
X151256Y165509D01*
X149500Y165858D01*
X147744Y165509D01*
X146256Y164514D01*
X145261Y163026D01*
X144912Y161270D01*
Y153103D01*
X144853Y153098D01*
X124342D01*
X124162Y153219D01*
X122000Y153649D01*
X119838Y153219D01*
X118006Y151994D01*
X116782Y150162D01*
X116351Y148000D01*
X116782Y145838D01*
X118006Y144006D01*
X119838Y142781D01*
X122000Y142352D01*
X122862Y142523D01*
X123357Y141327D01*
X122486Y140744D01*
X121491Y139256D01*
X121142Y137500D01*
X121491Y135744D01*
X121988Y135000D01*
X121491Y134256D01*
X121142Y132500D01*
X120542Y131770D01*
X113991D01*
X113665Y134241D01*
X112355Y137404D01*
X111313Y138762D01*
X111178Y139029D01*
X110328Y140112D01*
X109623Y141075D01*
X108435Y142923D01*
X108024Y143684D01*
X107691Y144398D01*
X107451Y145029D01*
X107296Y145566D01*
X107216Y146004D01*
X107185Y146486D01*
Y153066D01*
X107187Y153076D01*
X107230Y155519D01*
X107339Y157100D01*
X108279D01*
Y159831D01*
X108299Y159902D01*
X108284Y160017D01*
X108307Y160131D01*
X108279Y160273D01*
Y172900D01*
X93498D01*
X92979Y172900D01*
X91899Y172440D01*
X91709D01*
X86499D01*
Y165000D01*
Y157560D01*
X91899D01*
X92979Y157100D01*
X93871Y157100D01*
X94060Y154343D01*
X94070Y153105D01*
X94073Y153092D01*
Y146205D01*
X94042Y145699D01*
X93964Y145231D01*
X93815Y144663D01*
X93588Y144002D01*
X93275Y143256D01*
X92902Y142488D01*
X91106Y139493D01*
X90354Y138410D01*
X90272Y138221D01*
X89644Y137404D01*
X88335Y134241D01*
X87888Y130848D01*
X88335Y127454D01*
X89644Y124292D01*
X90852Y122717D01*
X90291Y121578D01*
X65231D01*
X64192Y122617D01*
X64000Y122823D01*
Y123152D01*
X64008Y123251D01*
X64000Y123277D01*
Y143848D01*
X55991D01*
X55944Y143925D01*
X55794Y144295D01*
X55637Y144880D01*
X55505Y145671D01*
X55419Y146656D01*
X55386Y147897D01*
X55385Y147905D01*
Y153066D01*
X55387Y153076D01*
X55430Y155519D01*
X55539Y157100D01*
X56479Y157100D01*
X57558Y157560D01*
X57749D01*
X62959D01*
Y165000D01*
Y172440D01*
X57558D01*
X56479Y172900D01*
X55959Y172900D01*
X41179D01*
Y160273D01*
X41150Y160131D01*
X41173Y160017D01*
X41159Y159902D01*
X41179Y159831D01*
Y157100D01*
X42071D01*
X42260Y154343D01*
X42270Y153105D01*
X42273Y153092D01*
Y147905D01*
X42271Y147897D01*
X42238Y146656D01*
X42152Y145671D01*
X42021Y144880D01*
X41864Y144295D01*
X41713Y143925D01*
X41666Y143848D01*
X38000D01*
Y117848D01*
X57166D01*
X57299Y117820D01*
X57396Y117838D01*
X57641Y117633D01*
X60658Y114616D01*
X60658Y114616D01*
X61791Y113859D01*
X62217Y112489D01*
X61593Y111865D01*
X60551Y110507D01*
X59896Y108926D01*
X59774Y108000D01*
X57479D01*
Y105612D01*
X56305Y105187D01*
X55129Y106003D01*
Y106350D01*
X52241D01*
X52098Y106378D01*
X51956Y106350D01*
X39329D01*
Y91569D01*
X39329Y91050D01*
X39789Y89971D01*
Y89780D01*
Y84570D01*
X47229D01*
X54669D01*
Y89971D01*
X55129Y91050D01*
X56352Y91531D01*
X57479Y90961D01*
Y88000D01*
X90979D01*
Y103954D01*
X92249Y104480D01*
X94329Y102400D01*
Y88050D01*
X94329D01*
X94329Y88002D01*
X94329Y86780D01*
Y86042D01*
X94183Y86004D01*
X93542Y85892D01*
X92249Y85787D01*
X90979Y86000D01*
Y86000D01*
X88090D01*
X87948Y86028D01*
X87840Y86007D01*
X87731Y86021D01*
X87656Y86000D01*
X57479D01*
Y66000D01*
X75101D01*
X75112Y65951D01*
X75212Y65272D01*
X75285Y64218D01*
X75251Y63543D01*
X75180Y62900D01*
X73979Y62900D01*
X72899Y62440D01*
X72709D01*
X67499D01*
Y55000D01*
Y47560D01*
X72899D01*
X73979Y47100D01*
X74498Y47100D01*
X89279D01*
Y59661D01*
X89306Y59778D01*
X89298Y59824D01*
X89307Y59869D01*
X89279Y60012D01*
Y62900D01*
X88668D01*
X88580Y64299D01*
X88679Y65126D01*
X88807Y65786D01*
X88870Y66000D01*
X90979D01*
Y68888D01*
X91007Y69030D01*
X90979Y69173D01*
Y71793D01*
X90990Y71830D01*
X91007Y71990D01*
X91084Y72037D01*
X91449Y72186D01*
X92029Y72343D01*
X92815Y72473D01*
X93793Y72560D01*
X95029Y72592D01*
X95036Y72594D01*
X101079D01*
X101504Y72650D01*
X110129D01*
Y75806D01*
X110829Y76750D01*
X112389Y77060D01*
X113712Y77945D01*
X118884Y83116D01*
X120270Y83196D01*
X121026Y82592D01*
X121175Y82333D01*
X121491Y80744D01*
X122486Y79256D01*
X122652Y79145D01*
Y73901D01*
X122634Y73864D01*
X122590Y73784D01*
X122365Y73432D01*
X122222Y73234D01*
X122082Y72930D01*
X121511Y72076D01*
X121081Y69914D01*
X121511Y67753D01*
X122736Y65920D01*
X124568Y64696D01*
X126730Y64266D01*
X128892Y64696D01*
X130724Y65920D01*
X131949Y67753D01*
X132379Y69914D01*
X131949Y72076D01*
X131378Y72930D01*
X131238Y73234D01*
X131095Y73432D01*
X130870Y73784D01*
X130826Y73864D01*
X130808Y73901D01*
Y77912D01*
X143730D01*
X144084Y77982D01*
X144982Y77084D01*
X144912Y76730D01*
Y58730D01*
X145261Y56974D01*
X146256Y55486D01*
X147744Y54491D01*
X149500Y54142D01*
X150422Y53385D01*
Y40500D01*
X150422Y40500D01*
X150732Y38939D01*
X151616Y37616D01*
X175616Y13616D01*
X176939Y12732D01*
X178500Y12422D01*
X664500D01*
X664500Y12422D01*
X666061Y12732D01*
X667384Y13616D01*
X681434Y27666D01*
X681482Y27635D01*
X681681Y27492D01*
X681984Y27352D01*
X682838Y26781D01*
X685000Y26351D01*
X687162Y26781D01*
X688994Y28006D01*
X690219Y29838D01*
X690648Y32000D01*
X690219Y34162D01*
X688994Y35994D01*
X689132Y37430D01*
X689994Y38006D01*
X691219Y39838D01*
X691648Y42000D01*
X691219Y44162D01*
X689994Y45994D01*
X689426Y46374D01*
Y47644D01*
X689994Y48024D01*
X691219Y49856D01*
X691648Y52018D01*
X691219Y54180D01*
X689994Y56012D01*
X688162Y57236D01*
X686000Y57666D01*
X683838Y57236D01*
X682006Y56012D01*
X680781Y54180D01*
X680581Y53172D01*
X680465Y52859D01*
X680426Y52617D01*
X680336Y52209D01*
X680311Y52121D01*
X680297Y52083D01*
X661293Y33078D01*
X182689D01*
X181841Y33927D01*
X182327Y35100D01*
X189950Y35100D01*
X191029Y35560D01*
X191220D01*
X196430D01*
Y43000D01*
Y50440D01*
X191029D01*
X189950Y50900D01*
X189848D01*
X188578Y51817D01*
Y53385D01*
X189500Y54142D01*
X191256Y54491D01*
X192000Y54988D01*
X192744Y54491D01*
X194500Y54142D01*
X196256Y54491D01*
X197414Y55265D01*
X197924Y54924D01*
X198230Y54864D01*
Y56212D01*
X198739Y56974D01*
X199089Y58730D01*
Y67730D01*
X199911D01*
Y58730D01*
X200261Y56974D01*
X200770Y56212D01*
Y54864D01*
X201076Y54924D01*
X201586Y55265D01*
X202744Y54491D01*
X204500Y54142D01*
X206256Y54491D01*
X207744Y55486D01*
X208739Y56974D01*
X209088Y58730D01*
Y76730D01*
X209028Y77032D01*
X209738Y77741D01*
X210148Y77912D01*
X228016D01*
X229772Y78261D01*
X231260Y79256D01*
X232255Y80744D01*
X232604Y82500D01*
X232255Y84256D01*
X231758Y85000D01*
X232255Y85744D01*
X232604Y87500D01*
X232255Y89256D01*
X231758Y90000D01*
X232255Y90744D01*
X232604Y92500D01*
X233361Y93422D01*
X474587D01*
X495093Y72916D01*
X496416Y72032D01*
X497976Y71722D01*
X497977Y71722D01*
X868924D01*
X869453Y70444D01*
X871156Y68226D01*
X873374Y66523D01*
X875958Y65453D01*
X878730Y65088D01*
X881270D01*
X884042Y65453D01*
X885070Y65879D01*
X886375Y65045D01*
X886385Y64790D01*
X885084Y63536D01*
X883937Y62523D01*
X882914Y61715D01*
X882035Y61116D01*
X881882Y61031D01*
X881270Y61112D01*
X878730D01*
X875958Y60747D01*
X873374Y59676D01*
X871156Y57974D01*
X869453Y55756D01*
X868383Y53172D01*
X868018Y50400D01*
X868383Y47628D01*
X869453Y45044D01*
X871156Y42826D01*
X873374Y41123D01*
X875958Y40053D01*
X878730Y39688D01*
X881270D01*
X881297Y39692D01*
X881425Y39620D01*
X882294Y39021D01*
X884575Y37104D01*
X885870Y35855D01*
X885967Y35426D01*
X884874Y34504D01*
X883922Y34899D01*
X881270Y35248D01*
X881270D01*
Y26270D01*
X891350D01*
X891169Y27652D01*
X890383Y29550D01*
X891459Y30269D01*
X901847Y19881D01*
X901853Y19872D01*
X905502Y16104D01*
X906146Y15367D01*
X906206Y14912D01*
X907012Y12966D01*
X908294Y11294D01*
X909966Y10012D01*
X911912Y9206D01*
X914000Y8931D01*
X916088Y9206D01*
X918035Y10012D01*
X919706Y11294D01*
X920988Y12966D01*
X921794Y14912D01*
X922069Y17000D01*
X921794Y19088D01*
X920988Y21035D01*
X919706Y22706D01*
X918035Y23988D01*
X916088Y24794D01*
X915874Y24822D01*
X911070Y29202D01*
X895530Y44742D01*
X895527Y44747D01*
X894818Y45498D01*
X894240Y46193D01*
X893727Y46896D01*
X893278Y47608D01*
X892889Y48330D01*
X892560Y49065D01*
X892287Y49815D01*
X892156Y50274D01*
X892238Y50531D01*
X892506Y51193D01*
X892840Y51870D01*
X893245Y52562D01*
X893699Y53235D01*
X894939Y54758D01*
X895671Y55527D01*
X895676Y55534D01*
X915636Y75494D01*
X916678Y76852D01*
X917333Y78433D01*
X917556Y80130D01*
Y174000D01*
X917333Y175697D01*
X916678Y177278D01*
X915636Y178636D01*
X895636Y198636D01*
X895513Y198730D01*
X895944Y200000D01*
X930000D01*
Y0D01*
D02*
G37*
G36*
X262073Y172061D02*
X261943Y171850D01*
X261827Y171500D01*
X261727Y171010D01*
X261642Y170380D01*
X261519Y168700D01*
X261475Y166398D01*
X261685Y163389D01*
X261817Y162619D01*
X261979Y161989D01*
X262170Y161500D01*
X262390Y161150D01*
X262640Y160940D01*
X262920Y160870D01*
X253680D01*
X253827Y160940D01*
X253958Y161150D01*
X254073Y161500D01*
X254173Y161989D01*
X254258Y162619D01*
X254381Y164300D01*
X254425Y166602D01*
X254215Y169611D01*
X254083Y170380D01*
X253921Y171010D01*
X253730Y171500D01*
X253509Y171850D01*
X253260Y172061D01*
X252980Y172131D01*
X262220D01*
X262073Y172061D01*
D02*
G37*
G36*
X105036Y160061D02*
X104845Y159851D01*
X104677Y159501D01*
X104532Y159010D01*
X104409Y158380D01*
X104308Y157611D01*
X104173Y155651D01*
X104129Y153131D01*
X97129D01*
X97118Y154460D01*
X96849Y158380D01*
X96726Y159010D01*
X96580Y159501D01*
X96412Y159851D01*
X96222Y160061D01*
X96009Y160131D01*
X105248D01*
X105036Y160061D01*
D02*
G37*
G36*
X53236D02*
X53045Y159851D01*
X52877Y159501D01*
X52732Y159010D01*
X52609Y158380D01*
X52508Y157611D01*
X52373Y155651D01*
X52329Y153131D01*
X45329D01*
X45318Y154460D01*
X45049Y158380D01*
X44926Y159010D01*
X44780Y159501D01*
X44612Y159851D01*
X44422Y160061D01*
X44209Y160131D01*
X53448D01*
X53236Y160061D01*
D02*
G37*
G36*
X123548Y150025D02*
X123601Y150020D01*
X123795Y150011D01*
X125090Y150000D01*
Y146000D01*
X123525Y145969D01*
Y150031D01*
X123548Y150025D01*
D02*
G37*
G36*
X148032Y144000D02*
X147992Y144380D01*
X147871Y144720D01*
X147669Y145020D01*
X147387Y145280D01*
X147025Y145500D01*
X146581Y145680D01*
X146057Y145820D01*
X145453Y145920D01*
X144768Y145980D01*
X144002Y146000D01*
Y150000D01*
X144768Y150020D01*
X145453Y150080D01*
X146057Y150180D01*
X146581Y150320D01*
X147025Y150500D01*
X147387Y150720D01*
X147669Y150980D01*
X147871Y151280D01*
X147992Y151620D01*
X148032Y152000D01*
Y144000D01*
D02*
G37*
G36*
X52364Y146482D02*
X52469Y145286D01*
X52644Y144232D01*
X52889Y143318D01*
X53204Y142544D01*
X53589Y141912D01*
X54044Y141419D01*
X54569Y141068D01*
X55164Y140857D01*
X55829Y140787D01*
X41829D01*
X42494Y140857D01*
X43089Y141068D01*
X43614Y141419D01*
X44069Y141912D01*
X44454Y142544D01*
X44769Y143318D01*
X45014Y144232D01*
X45189Y145286D01*
X45294Y146482D01*
X45329Y147817D01*
X52329D01*
X52364Y146482D01*
D02*
G37*
G36*
X104175Y145629D02*
X104314Y144867D01*
X104547Y144059D01*
X104872Y143207D01*
X105289Y142309D01*
X105800Y141366D01*
X107100Y139344D01*
X107889Y138265D01*
X108772Y137141D01*
X92866Y136666D01*
X93676Y137832D01*
X95594Y141030D01*
X96063Y141995D01*
X96447Y142911D01*
X96745Y143775D01*
X96958Y144590D01*
X97086Y145354D01*
X97129Y146068D01*
X104129Y146346D01*
X104175Y145629D01*
D02*
G37*
G36*
X157744Y139031D02*
X159500Y138682D01*
X161256Y139031D01*
X162000Y139528D01*
X162744Y139031D01*
X164500Y138682D01*
X166256Y139031D01*
X167000Y139528D01*
X167744Y139031D01*
X169500Y138682D01*
X171256Y139031D01*
X172000Y139528D01*
X172744Y139031D01*
X174500Y138682D01*
X176256Y139031D01*
X177000Y139528D01*
X177744Y139031D01*
X179500Y138682D01*
X181256Y139031D01*
X182000Y139528D01*
X182744Y139031D01*
X184500Y138682D01*
X186256Y139031D01*
X187000Y139528D01*
X187744Y139031D01*
X189181Y138745D01*
X189624Y137842D01*
X189682Y137449D01*
X175248Y123016D01*
X174261Y123825D01*
X174785Y124609D01*
X174927Y125321D01*
X171270D01*
Y121664D01*
X171982Y121806D01*
X172766Y122330D01*
X173576Y121343D01*
X155435Y103203D01*
X155397Y103189D01*
X155309Y103163D01*
X154901Y103074D01*
X154659Y103035D01*
X154346Y102919D01*
X153338Y102718D01*
X152484Y102148D01*
X152181Y102008D01*
X151982Y101865D01*
X151630Y101639D01*
X151550Y101596D01*
X151513Y101578D01*
X148642D01*
X147893Y102494D01*
X148109Y103735D01*
X149427Y104616D01*
X153487Y108676D01*
X155500Y109077D01*
X157332Y110301D01*
X158557Y112134D01*
X158987Y114295D01*
X158557Y116457D01*
X157332Y118289D01*
X155500Y119514D01*
X153338Y119944D01*
X151177Y119514D01*
X149443Y118355D01*
X148862Y118441D01*
X148082Y118687D01*
X147969Y119256D01*
X147472Y120000D01*
X147969Y120744D01*
X148318Y122500D01*
X147969Y124256D01*
X147472Y125000D01*
X147969Y125744D01*
X148318Y127500D01*
X147969Y129256D01*
X147472Y130000D01*
X147969Y130744D01*
X148258Y132198D01*
X150000Y131852D01*
X152162Y132281D01*
X153994Y133506D01*
X155219Y135338D01*
X155648Y137500D01*
X155289Y139308D01*
X156076Y139464D01*
X156586Y139805D01*
X157744Y139031D01*
D02*
G37*
G36*
X103452Y131035D02*
X103933Y128623D01*
X103996Y128485D01*
X104057Y128398D01*
X102643Y126984D01*
X102556Y127046D01*
X102418Y127108D01*
X102229Y127173D01*
X101987Y127239D01*
X101350Y127374D01*
X99455Y127664D01*
X103378Y131587D01*
X103452Y131035D01*
D02*
G37*
G36*
X60820Y122781D02*
X60735Y122626D01*
X60715Y122434D01*
X60760Y122205D01*
X60869Y121940D01*
X61042Y121639D01*
X61281Y121302D01*
X61584Y120928D01*
X62384Y120072D01*
X60163Y119464D01*
X59789Y119824D01*
X59102Y120398D01*
X58789Y120612D01*
X58496Y120777D01*
X58224Y120895D01*
X57971Y120963D01*
X57739Y120983D01*
X57527Y120955D01*
X57335Y120878D01*
X60970Y122900D01*
X60820Y122781D01*
D02*
G37*
G36*
X872586Y108013D02*
X872871Y107770D01*
X873138Y107574D01*
X873386Y107424D01*
X873617Y107321D01*
X873829Y107264D01*
X874022Y107254D01*
X874197Y107290D01*
X874355Y107373D01*
X874493Y107502D01*
X871899Y104456D01*
X872006Y104616D01*
X872068Y104792D01*
X872085Y104985D01*
X872057Y105195D01*
X871984Y105422D01*
X871867Y105665D01*
X871705Y105925D01*
X871498Y106202D01*
X871247Y106496D01*
X870951Y106806D01*
X872283Y108302D01*
X872586Y108013D01*
D02*
G37*
G36*
X60540Y91350D02*
X60468Y92015D01*
X60256Y92610D01*
X59904Y93135D01*
X59411Y93590D01*
X58778Y93975D01*
X58005Y94290D01*
X57091Y94535D01*
X56038Y94710D01*
X55835Y94728D01*
X53218Y94573D01*
X52728Y94473D01*
X52378Y94358D01*
X52168Y94227D01*
X52098Y94080D01*
Y103320D01*
X52168Y103040D01*
X52378Y102790D01*
X52728Y102570D01*
X53218Y102379D01*
X53848Y102217D01*
X54618Y102085D01*
X55528Y101982D01*
X55886Y101964D01*
X56029Y101975D01*
X57079Y102131D01*
X57989Y102349D01*
X58759Y102630D01*
X59389Y102973D01*
X59879Y103378D01*
X60229Y103847D01*
X60439Y104377D01*
X60509Y104970D01*
X60540Y91350D01*
D02*
G37*
G36*
X205897Y132500D02*
X206210Y130924D01*
X206551Y130414D01*
X205777Y129256D01*
X205428Y127500D01*
X205777Y125744D01*
X206274Y125000D01*
X205777Y124256D01*
X205428Y122500D01*
X205777Y120744D01*
X206274Y120000D01*
X205777Y119256D01*
X205428Y117500D01*
X205777Y115744D01*
X206274Y115000D01*
X205777Y114256D01*
X205428Y112500D01*
X205777Y110744D01*
X206274Y110000D01*
X205777Y109256D01*
X205428Y107500D01*
X205777Y105744D01*
X206274Y105000D01*
X205777Y104256D01*
X205428Y102500D01*
X205777Y100744D01*
X205847Y100640D01*
X205695Y100272D01*
X204375Y100400D01*
X204374Y100401D01*
X204285Y100848D01*
X203162Y102528D01*
X201482Y103651D01*
X200770Y103792D01*
Y98866D01*
Y93939D01*
X201482Y94080D01*
X203162Y95203D01*
X204262Y96849D01*
X204421Y96875D01*
X205565Y96809D01*
X205777Y95744D01*
X206274Y95000D01*
X205777Y94256D01*
X205428Y92500D01*
X205777Y90744D01*
X206274Y90000D01*
X205777Y89256D01*
X205428Y87500D01*
X205777Y85744D01*
X206274Y85000D01*
X205777Y84256D01*
X205699Y83864D01*
X204321Y83446D01*
X187384Y100384D01*
X186061Y101268D01*
X184500Y101578D01*
X184500Y101578D01*
X167005D01*
X166519Y102752D01*
X197189Y133422D01*
X205140D01*
X205897Y132500D01*
D02*
G37*
G36*
X121491Y105744D02*
X122265Y104586D01*
X121924Y104076D01*
X121863Y103770D01*
X123212D01*
X123974Y103261D01*
X125730Y102911D01*
X134730D01*
Y102089D01*
X125730D01*
X123974Y101739D01*
X123212Y101230D01*
X121863D01*
X121924Y100924D01*
X122265Y100414D01*
X121491Y99256D01*
X121348Y98538D01*
X120078Y98663D01*
Y106337D01*
X121348Y106462D01*
X121491Y105744D01*
D02*
G37*
G36*
X158936Y99522D02*
X158804Y99375D01*
X158681Y99209D01*
X158567Y99022D01*
X158462Y98815D01*
X158417Y98708D01*
X158524Y98665D01*
X158745Y98593D01*
X158958Y98541D01*
X159163Y98510D01*
X159359Y98500D01*
Y96500D01*
X159163Y96490D01*
X158958Y96459D01*
X158745Y96407D01*
X158524Y96335D01*
X158295Y96242D01*
X158058Y96129D01*
X157812Y95995D01*
X157296Y95665D01*
X157025Y95469D01*
Y98132D01*
X155142Y100015D01*
X155472Y100067D01*
X156070Y100199D01*
X156339Y100278D01*
X156587Y100366D01*
X156815Y100462D01*
X157022Y100568D01*
X157209Y100681D01*
X157375Y100804D01*
X157521Y100936D01*
X158936Y99522D01*
D02*
G37*
G36*
X153975Y95469D02*
X153704Y95665D01*
X153188Y95995D01*
X152942Y96129D01*
X152705Y96242D01*
X152476Y96335D01*
X152255Y96407D01*
X152042Y96459D01*
X151837Y96490D01*
X151641Y96500D01*
Y98500D01*
X151837Y98510D01*
X152042Y98541D01*
X152255Y98593D01*
X152476Y98665D01*
X152705Y98758D01*
X152942Y98871D01*
X153188Y99005D01*
X153704Y99335D01*
X153975Y99531D01*
Y95469D01*
D02*
G37*
G36*
X104872Y98093D02*
X105342Y97801D01*
X105843Y97543D01*
X106374Y97319D01*
X106935Y97130D01*
X107098Y97087D01*
Y97700D01*
X107118Y97510D01*
X107178Y97340D01*
X107278Y97190D01*
X107418Y97060D01*
X107571Y96967D01*
X108150Y96855D01*
X108803Y96769D01*
X109486Y96717D01*
X110200Y96700D01*
Y94700D01*
X109486Y94683D01*
X108150Y94545D01*
X107571Y94433D01*
X107418Y94340D01*
X107278Y94210D01*
X107178Y94060D01*
X107118Y93890D01*
X107098Y93700D01*
Y94313D01*
X106935Y94270D01*
X106374Y94081D01*
X105843Y93857D01*
X105342Y93600D01*
X104872Y93307D01*
X104432Y92980D01*
Y98420D01*
X104872Y98093D01*
D02*
G37*
G36*
X193765Y82467D02*
X193347Y81089D01*
X192744Y80969D01*
X192000Y80472D01*
X191256Y80969D01*
X189500Y81318D01*
X187744Y80969D01*
X187000Y80472D01*
X186256Y80969D01*
X184500Y81318D01*
X182744Y80969D01*
X182000Y80472D01*
X181256Y80969D01*
X179500Y81318D01*
X177744Y80969D01*
X177000Y80472D01*
X176256Y80969D01*
X174500Y81318D01*
X172744Y80969D01*
X172000Y80472D01*
X171256Y80969D01*
X169500Y81318D01*
X167744Y80969D01*
X167408Y80744D01*
X166479Y81212D01*
X166324Y82527D01*
X167202Y83114D01*
X168325Y84794D01*
X168467Y85506D01*
X158613D01*
X158755Y84794D01*
X159878Y83114D01*
X161105Y82294D01*
X160609Y81097D01*
X159500Y81318D01*
X157744Y80969D01*
X157000Y80472D01*
X156256Y80969D01*
X154500Y81318D01*
X152744Y80969D01*
X152000Y80472D01*
X151256Y80969D01*
X149500Y81318D01*
X149146Y81248D01*
X148248Y82146D01*
X148318Y82500D01*
X147969Y84256D01*
X147472Y85000D01*
X147969Y85744D01*
X148318Y87500D01*
X147969Y89256D01*
X147472Y90000D01*
X147969Y90744D01*
X148318Y92500D01*
X149075Y93422D01*
X151513D01*
X151550Y93404D01*
X151630Y93360D01*
X151982Y93135D01*
X152181Y92992D01*
X152484Y92852D01*
X153338Y92281D01*
X155500Y91852D01*
X157662Y92281D01*
X158516Y92852D01*
X158819Y92992D01*
X159018Y93135D01*
X159370Y93360D01*
X159450Y93404D01*
X159487Y93422D01*
X182811D01*
X193765Y82467D01*
D02*
G37*
G36*
X97359Y75680D02*
X97289Y75675D01*
X97079Y75669D01*
X94948Y75663D01*
Y75650D01*
X93618Y75615D01*
X92428Y75510D01*
X91378Y75335D01*
X90468Y75090D01*
X89698Y74775D01*
X89068Y74390D01*
X88578Y73935D01*
X88228Y73410D01*
X88018Y72815D01*
X87948Y72150D01*
Y82970D01*
X88018Y82909D01*
X88228Y82854D01*
X88578Y82807D01*
X89698Y82730D01*
X91968Y82695D01*
X93929Y82854D01*
X94839Y83013D01*
X95609Y83217D01*
X96239Y83467D01*
X96729Y83762D01*
X97079Y84102D01*
X97289Y84488D01*
X97359Y84920D01*
Y75680D01*
D02*
G37*
G36*
X128730Y81032D02*
X128540Y81030D01*
X128370Y80983D01*
X128220Y80891D01*
X128090Y80755D01*
X127980Y80574D01*
X127890Y80349D01*
X127820Y80079D01*
X127770Y79764D01*
X127740Y79405D01*
X127730Y79002D01*
X125730D01*
X125720Y79445D01*
X125642Y80197D01*
X125573Y80507D01*
X125484Y80771D01*
X125376Y80992D01*
X125248Y81167D01*
X125101Y81298D01*
X124934Y81384D01*
X124747Y81426D01*
X128730Y81032D01*
D02*
G37*
G36*
X107118Y82638D02*
X107178Y82468D01*
X107278Y82318D01*
X107418Y82188D01*
X107598Y82078D01*
X107818Y81988D01*
X108078Y81918D01*
X108378Y81868D01*
X108718Y81838D01*
X109098Y81828D01*
Y79828D01*
X108718Y79818D01*
X108378Y79788D01*
X108078Y79738D01*
X107818Y79668D01*
X107598Y79578D01*
X107418Y79468D01*
X107278Y79338D01*
X107178Y79188D01*
X107118Y79018D01*
X107098Y78828D01*
Y82828D01*
X107118Y82638D01*
D02*
G37*
G36*
X871435Y73809D02*
X871413Y73997D01*
X871346Y74166D01*
X871234Y74314D01*
X871078Y74443D01*
X870877Y74552D01*
X870631Y74641D01*
X870341Y74711D01*
X870006Y74760D01*
X869626Y74790D01*
X869202Y74800D01*
Y76800D01*
X869626Y76810D01*
X870006Y76840D01*
X870341Y76889D01*
X870631Y76959D01*
X870877Y77048D01*
X871078Y77157D01*
X871234Y77286D01*
X871346Y77434D01*
X871413Y77603D01*
X871435Y77791D01*
Y73809D01*
D02*
G37*
G36*
X127740Y73577D02*
X127771Y73372D01*
X127823Y73159D01*
X127895Y72939D01*
X127988Y72709D01*
X128101Y72472D01*
X128235Y72226D01*
X128565Y71710D01*
X128761Y71439D01*
X124699D01*
X124895Y71710D01*
X125225Y72226D01*
X125359Y72472D01*
X125472Y72709D01*
X125565Y72939D01*
X125637Y73159D01*
X125689Y73372D01*
X125720Y73577D01*
X125730Y73773D01*
X127730D01*
X127740Y73577D01*
D02*
G37*
G36*
X87470Y68960D02*
X87041Y68751D01*
X86663Y68401D01*
X86336Y67910D01*
X86059Y67281D01*
X85832Y66511D01*
X85655Y65601D01*
X85529Y64550D01*
X85514Y64311D01*
X85724Y60989D01*
X85830Y60500D01*
X85953Y60149D01*
X86093Y59939D01*
X86248Y59869D01*
X77009D01*
X77279Y59939D01*
X77520Y60149D01*
X77733Y60500D01*
X77918Y60989D01*
X78074Y61620D01*
X78202Y62389D01*
X78301Y63299D01*
X78349Y64245D01*
X78256Y65601D01*
X78122Y66511D01*
X77949Y67281D01*
X77738Y67910D01*
X77488Y68401D01*
X77200Y68751D01*
X76874Y68960D01*
X76509Y69030D01*
X87948D01*
X87470Y68960D01*
D02*
G37*
G36*
X893457Y57637D02*
X892642Y56782D01*
X891241Y55059D01*
X890655Y54192D01*
X890146Y53322D01*
X889714Y52447D01*
X889358Y51569D01*
X889079Y50687D01*
X888997Y50331D01*
X889096Y49854D01*
X889374Y48872D01*
X889724Y47914D01*
X890144Y46978D01*
X890634Y46066D01*
X891195Y45177D01*
X891826Y44311D01*
X892528Y43468D01*
X893301Y42649D01*
X887993Y38057D01*
X886624Y39378D01*
X884150Y41458D01*
X883046Y42217D01*
X882031Y42790D01*
X881105Y43175D01*
X880267Y43374D01*
X879518Y43386D01*
X878858Y43210D01*
X878286Y42848D01*
X887092Y50456D01*
X878997Y57996D01*
X879550Y57615D01*
X880192Y57420D01*
X880922Y57413D01*
X881741Y57592D01*
X882648Y57957D01*
X883643Y58510D01*
X884727Y59249D01*
X885899Y60175D01*
X887159Y61287D01*
X888507Y62587D01*
X893457Y57637D01*
D02*
G37*
G36*
X686358Y49503D02*
X686028Y49450D01*
X685430Y49319D01*
X685161Y49240D01*
X684913Y49152D01*
X684685Y49056D01*
X684478Y48950D01*
X684291Y48836D01*
X684125Y48714D01*
X683979Y48582D01*
X682564Y49996D01*
X682696Y50142D01*
X682819Y50309D01*
X682932Y50496D01*
X683038Y50703D01*
X683134Y50931D01*
X683222Y51179D01*
X683301Y51447D01*
X683433Y52046D01*
X683485Y52375D01*
X686358Y49503D01*
D02*
G37*
G36*
X185510Y49484D02*
X185540Y49138D01*
X185590Y48834D01*
X185660Y48570D01*
X185750Y48347D01*
X185860Y48164D01*
X185990Y48022D01*
X186140Y47920D01*
X186310Y47859D01*
X186500Y47839D01*
X182500D01*
X182690Y47859D01*
X182860Y47920D01*
X183010Y48022D01*
X183140Y48164D01*
X183250Y48347D01*
X183340Y48570D01*
X183410Y48834D01*
X183460Y49138D01*
X183490Y49484D01*
X183500Y49869D01*
X185500D01*
X185510Y49484D01*
D02*
G37*
G36*
X683475Y29969D02*
X683204Y30165D01*
X682688Y30495D01*
X682442Y30629D01*
X682205Y30742D01*
X681976Y30835D01*
X681755Y30907D01*
X681542Y30959D01*
X681337Y30990D01*
X681141Y31000D01*
Y33000D01*
X681337Y33010D01*
X681542Y33041D01*
X681755Y33093D01*
X681976Y33165D01*
X682205Y33258D01*
X682442Y33371D01*
X682688Y33505D01*
X683204Y33835D01*
X683475Y34031D01*
Y29969D01*
D02*
G37*
G36*
X914452Y21980D02*
X909020Y16548D01*
X908962Y16698D01*
X908806Y16936D01*
X908553Y17261D01*
X907754Y18176D01*
X904051Y22000D01*
X909000Y26950D01*
X914452Y21980D01*
D02*
G37*
%LPC*%
G36*
X330270Y183162D02*
Y179505D01*
X333927D01*
X333785Y180217D01*
X332663Y181897D01*
X330982Y183020D01*
X330270Y183162D01*
D02*
G37*
G36*
X327730D02*
X327018Y183020D01*
X325337Y181897D01*
X324215Y180217D01*
X324073Y179505D01*
X327730D01*
Y183162D01*
D02*
G37*
G36*
X333927Y176965D02*
X330270D01*
Y173308D01*
X330982Y173449D01*
X332663Y174572D01*
X333785Y176253D01*
X333927Y176965D01*
D02*
G37*
G36*
X327730D02*
X324073D01*
X324215Y176253D01*
X325337Y174572D01*
X327018Y173449D01*
X327730Y173308D01*
Y176965D01*
D02*
G37*
G36*
X316528Y170462D02*
Y166805D01*
X320185D01*
X320043Y167517D01*
X318920Y169197D01*
X317240Y170320D01*
X316528Y170462D01*
D02*
G37*
G36*
X313988D02*
X313276Y170320D01*
X311595Y169197D01*
X310473Y167517D01*
X310331Y166805D01*
X313988D01*
Y170462D01*
D02*
G37*
G36*
X320185Y164265D02*
X316528D01*
Y160608D01*
X317240Y160749D01*
X318920Y161872D01*
X320043Y163552D01*
X320185Y164265D01*
D02*
G37*
G36*
X313988D02*
X310331D01*
X310473Y163552D01*
X311595Y161872D01*
X313276Y160749D01*
X313988Y160608D01*
Y164265D01*
D02*
G37*
G36*
X274970Y163440D02*
Y157270D01*
X280890D01*
Y163440D01*
X274970D01*
D02*
G37*
G36*
X303270Y157204D02*
Y153547D01*
X306927D01*
X306785Y154259D01*
X305662Y155939D01*
X303982Y157062D01*
X303270Y157204D01*
D02*
G37*
G36*
X300730D02*
X300018Y157062D01*
X298337Y155939D01*
X297215Y154259D01*
X297073Y153547D01*
X300730D01*
Y157204D01*
D02*
G37*
G36*
X280890Y154730D02*
X274970D01*
Y148560D01*
X280890D01*
Y154730D01*
D02*
G37*
G36*
X306927Y151007D02*
X303270D01*
Y147350D01*
X303982Y147491D01*
X305662Y148614D01*
X306785Y150295D01*
X306927Y151007D01*
D02*
G37*
G36*
X300730D02*
X297073D01*
X297215Y150295D01*
X298337Y148614D01*
X300018Y147491D01*
X300730Y147350D01*
Y151007D01*
D02*
G37*
G36*
X281270Y143792D02*
Y140136D01*
X284927D01*
X284785Y140848D01*
X283662Y142528D01*
X281982Y143651D01*
X281270Y143792D01*
D02*
G37*
G36*
X278730D02*
X278018Y143651D01*
X276338Y142528D01*
X275215Y140848D01*
X275073Y140136D01*
X278730D01*
Y143792D01*
D02*
G37*
G36*
X264316D02*
Y140136D01*
X267973D01*
X267832Y140848D01*
X266709Y142528D01*
X265028Y143651D01*
X264316Y143792D01*
D02*
G37*
G36*
X261776D02*
X261064Y143651D01*
X259384Y142528D01*
X258261Y140848D01*
X258120Y140136D01*
X261776D01*
Y143792D01*
D02*
G37*
G36*
X247363D02*
Y140136D01*
X251020D01*
X250878Y140848D01*
X249755Y142528D01*
X248075Y143651D01*
X247363Y143792D01*
D02*
G37*
G36*
X244823D02*
X244111Y143651D01*
X242430Y142528D01*
X241308Y140848D01*
X241166Y140136D01*
X244823D01*
Y143792D01*
D02*
G37*
G36*
X284927Y137596D02*
X281270D01*
Y133939D01*
X281982Y134080D01*
X283662Y135203D01*
X284785Y136883D01*
X284927Y137596D01*
D02*
G37*
G36*
X278730D02*
X275073D01*
X275215Y136883D01*
X276338Y135203D01*
X278018Y134080D01*
X278730Y133939D01*
Y137596D01*
D02*
G37*
G36*
X267973D02*
X264316D01*
Y133939D01*
X265028Y134080D01*
X266709Y135203D01*
X267832Y136883D01*
X267973Y137596D01*
D02*
G37*
G36*
X261776D02*
X258120D01*
X258261Y136883D01*
X259384Y135203D01*
X261064Y134080D01*
X261776Y133939D01*
Y137596D01*
D02*
G37*
G36*
X251020D02*
X247363D01*
Y133939D01*
X248075Y134080D01*
X249755Y135203D01*
X250878Y136883D01*
X251020Y137596D01*
D02*
G37*
G36*
X243150D02*
X241166D01*
X241308Y136883D01*
X242430Y135203D01*
X244111Y134080D01*
X244823Y133939D01*
Y135922D01*
X244778Y135903D01*
X244571Y135798D01*
X244384Y135684D01*
X244217Y135561D01*
X244071Y135430D01*
X242657Y136844D01*
X242789Y136990D01*
X242911Y137157D01*
X243025Y137344D01*
X243131Y137551D01*
X243150Y137596D01*
D02*
G37*
G36*
X190099Y197927D02*
Y194270D01*
X193756D01*
X193614Y194982D01*
X192491Y196663D01*
X190811Y197785D01*
X190099Y197927D01*
D02*
G37*
G36*
X187559D02*
X186847Y197785D01*
X185166Y196663D01*
X184044Y194982D01*
X183902Y194270D01*
X187559D01*
Y197927D01*
D02*
G37*
G36*
X11270Y194695D02*
Y191038D01*
X14927D01*
X14785Y191750D01*
X13663Y193430D01*
X11982Y194553D01*
X11270Y194695D01*
D02*
G37*
G36*
X8730D02*
X8018Y194553D01*
X6338Y193430D01*
X5215Y191750D01*
X5073Y191038D01*
X8730D01*
Y194695D01*
D02*
G37*
G36*
X507270Y192927D02*
Y189270D01*
X510927D01*
X510785Y189982D01*
X509663Y191663D01*
X507982Y192785D01*
X507270Y192927D01*
D02*
G37*
G36*
X504730D02*
X504018Y192785D01*
X502337Y191663D01*
X501215Y189982D01*
X501073Y189270D01*
X504730D01*
Y192927D01*
D02*
G37*
G36*
X490316D02*
Y189270D01*
X493973D01*
X493832Y189982D01*
X492709Y191663D01*
X491029Y192785D01*
X490316Y192927D01*
D02*
G37*
G36*
X487776D02*
X487064Y192785D01*
X485384Y191663D01*
X484261Y189982D01*
X484119Y189270D01*
X487776D01*
Y192927D01*
D02*
G37*
G36*
X473363D02*
Y189270D01*
X477020D01*
X476878Y189982D01*
X475755Y191663D01*
X474075Y192785D01*
X473363Y192927D01*
D02*
G37*
G36*
X470823D02*
X470111Y192785D01*
X468430Y191663D01*
X467308Y189982D01*
X467166Y189270D01*
X470823D01*
Y192927D01*
D02*
G37*
G36*
X132574D02*
Y189270D01*
X136231D01*
X136089Y189982D01*
X134967Y191663D01*
X133286Y192785D01*
X132574Y192927D01*
D02*
G37*
G36*
X130034D02*
X129322Y192785D01*
X127642Y191663D01*
X126519Y189982D01*
X126377Y189270D01*
X130034D01*
Y192927D01*
D02*
G37*
G36*
X115621D02*
Y189270D01*
X119277D01*
X119136Y189982D01*
X118013Y191663D01*
X116333Y192785D01*
X115621Y192927D01*
D02*
G37*
G36*
X113081D02*
X112368Y192785D01*
X110688Y191663D01*
X109565Y189982D01*
X109424Y189270D01*
X113081D01*
Y192927D01*
D02*
G37*
G36*
X98667D02*
Y189270D01*
X102324D01*
X102182Y189982D01*
X101060Y191663D01*
X99379Y192785D01*
X98667Y192927D01*
D02*
G37*
G36*
X96127D02*
X95415Y192785D01*
X93735Y191663D01*
X92612Y189982D01*
X92470Y189270D01*
X96127D01*
Y192927D01*
D02*
G37*
G36*
X76177D02*
Y189270D01*
X79834D01*
X79692Y189982D01*
X78570Y191663D01*
X76889Y192785D01*
X76177Y192927D01*
D02*
G37*
G36*
X73637D02*
X72925Y192785D01*
X71245Y191663D01*
X70122Y189982D01*
X69980Y189270D01*
X73637D01*
Y192927D01*
D02*
G37*
G36*
X59224D02*
Y189270D01*
X62881D01*
X62739Y189982D01*
X61616Y191663D01*
X59936Y192785D01*
X59224Y192927D01*
D02*
G37*
G36*
X56684D02*
X55971Y192785D01*
X54291Y191663D01*
X53168Y189982D01*
X53027Y189270D01*
X56684D01*
Y192927D01*
D02*
G37*
G36*
X42270D02*
Y189270D01*
X45927D01*
X45785Y189982D01*
X44662Y191663D01*
X42982Y192785D01*
X42270Y192927D01*
D02*
G37*
G36*
X39730D02*
X39018Y192785D01*
X37338Y191663D01*
X36215Y189982D01*
X36073Y189270D01*
X39730D01*
Y192927D01*
D02*
G37*
G36*
X193756Y191730D02*
X190099D01*
Y188073D01*
X190811Y188215D01*
X192491Y189338D01*
X193614Y191018D01*
X193756Y191730D01*
D02*
G37*
G36*
X187559D02*
X183902D01*
X184044Y191018D01*
X185166Y189338D01*
X186847Y188215D01*
X187559Y188073D01*
Y191730D01*
D02*
G37*
G36*
X14927Y188498D02*
X11270D01*
Y184841D01*
X11982Y184982D01*
X13663Y186105D01*
X14785Y187786D01*
X14927Y188498D01*
D02*
G37*
G36*
X8730D02*
X5073D01*
X5215Y187786D01*
X6338Y186105D01*
X8018Y184982D01*
X8730Y184841D01*
Y188498D01*
D02*
G37*
G36*
X510927Y186730D02*
X507270D01*
Y183073D01*
X507982Y183215D01*
X509663Y184338D01*
X510785Y186018D01*
X510927Y186730D01*
D02*
G37*
G36*
X504730D02*
X501073D01*
X501215Y186018D01*
X502337Y184338D01*
X504018Y183215D01*
X504730Y183073D01*
Y186730D01*
D02*
G37*
G36*
X493973D02*
X490316D01*
Y183073D01*
X491029Y183215D01*
X492709Y184338D01*
X493832Y186018D01*
X493973Y186730D01*
D02*
G37*
G36*
X487776D02*
X484119D01*
X484261Y186018D01*
X485384Y184338D01*
X487064Y183215D01*
X487776Y183073D01*
Y186730D01*
D02*
G37*
G36*
X477020D02*
X473363D01*
Y183073D01*
X474075Y183215D01*
X475755Y184338D01*
X476878Y186018D01*
X477020Y186730D01*
D02*
G37*
G36*
X470823D02*
X467166D01*
X467308Y186018D01*
X468430Y184338D01*
X470111Y183215D01*
X470823Y183073D01*
Y186730D01*
D02*
G37*
G36*
X136231D02*
X132574D01*
Y183073D01*
X133286Y183215D01*
X134967Y184338D01*
X136089Y186018D01*
X136231Y186730D01*
D02*
G37*
G36*
X130034D02*
X126377D01*
X126519Y186018D01*
X127642Y184338D01*
X129322Y183215D01*
X130034Y183073D01*
Y186730D01*
D02*
G37*
G36*
X119277D02*
X115621D01*
Y183073D01*
X116333Y183215D01*
X118013Y184338D01*
X119136Y186018D01*
X119277Y186730D01*
D02*
G37*
G36*
X113081D02*
X109424D01*
X109565Y186018D01*
X110688Y184338D01*
X112368Y183215D01*
X113081Y183073D01*
Y186730D01*
D02*
G37*
G36*
X102324D02*
X98667D01*
Y183073D01*
X99379Y183215D01*
X101060Y184338D01*
X102182Y186018D01*
X102324Y186730D01*
D02*
G37*
G36*
X96127D02*
X92470D01*
X92612Y186018D01*
X93735Y184338D01*
X95415Y183215D01*
X96127Y183073D01*
Y186730D01*
D02*
G37*
G36*
X79834D02*
X76177D01*
Y183073D01*
X76889Y183215D01*
X78570Y184338D01*
X79692Y186018D01*
X79834Y186730D01*
D02*
G37*
G36*
X73637D02*
X69980D01*
X70122Y186018D01*
X71245Y184338D01*
X72925Y183215D01*
X73637Y183073D01*
Y186730D01*
D02*
G37*
G36*
X62881D02*
X59224D01*
Y183073D01*
X59936Y183215D01*
X61616Y184338D01*
X62739Y186018D01*
X62881Y186730D01*
D02*
G37*
G36*
X56684D02*
X53027D01*
X53168Y186018D01*
X54291Y184338D01*
X55971Y183215D01*
X56684Y183073D01*
Y186730D01*
D02*
G37*
G36*
X45927D02*
X42270D01*
Y183073D01*
X42982Y183215D01*
X44662Y184338D01*
X45785Y186018D01*
X45927Y186730D01*
D02*
G37*
G36*
X39730D02*
X36073D01*
X36215Y186018D01*
X37338Y184338D01*
X39018Y183215D01*
X39730Y183073D01*
Y186730D01*
D02*
G37*
G36*
X152030Y187440D02*
X146110D01*
Y181270D01*
X152030D01*
Y187440D01*
D02*
G37*
G36*
X711728Y184601D02*
Y180944D01*
X715385D01*
X715243Y181657D01*
X714121Y183337D01*
X712440Y184460D01*
X711728Y184601D01*
D02*
G37*
G36*
X709188D02*
X708476Y184460D01*
X706796Y183337D01*
X705673Y181657D01*
X705531Y180944D01*
X709188D01*
Y184601D01*
D02*
G37*
G36*
X29270Y184127D02*
Y180470D01*
X32927D01*
X32785Y181182D01*
X31662Y182862D01*
X29982Y183985D01*
X29270Y184127D01*
D02*
G37*
G36*
X26730D02*
X26018Y183985D01*
X24337Y182862D01*
X23215Y181182D01*
X23073Y180470D01*
X26730D01*
Y184127D01*
D02*
G37*
G36*
X190099Y180973D02*
Y177316D01*
X193756D01*
X193614Y178029D01*
X192491Y179709D01*
X190811Y180832D01*
X190099Y180973D01*
D02*
G37*
G36*
X187559D02*
X186847Y180832D01*
X185166Y179709D01*
X184044Y178029D01*
X183902Y177316D01*
X187559D01*
Y180973D01*
D02*
G37*
G36*
X715385Y178405D02*
X711728D01*
Y174748D01*
X712440Y174889D01*
X714121Y176012D01*
X715243Y177692D01*
X715385Y178405D01*
D02*
G37*
G36*
X709188D02*
X705531D01*
X705673Y177692D01*
X706796Y176012D01*
X708476Y174889D01*
X709188Y174748D01*
Y178405D01*
D02*
G37*
G36*
X32927Y177930D02*
X29270D01*
Y174273D01*
X29982Y174415D01*
X31662Y175537D01*
X32785Y177218D01*
X32927Y177930D01*
D02*
G37*
G36*
X26730D02*
X23073D01*
X23215Y177218D01*
X24337Y175537D01*
X26018Y174415D01*
X26730Y174273D01*
Y177930D01*
D02*
G37*
G36*
X11270Y177741D02*
Y174084D01*
X14927D01*
X14785Y174796D01*
X13663Y176477D01*
X11982Y177599D01*
X11270Y177741D01*
D02*
G37*
G36*
X8730D02*
X8018Y177599D01*
X6338Y176477D01*
X5215Y174796D01*
X5073Y174084D01*
X8730D01*
Y177741D01*
D02*
G37*
G36*
X152030Y178730D02*
X146110D01*
Y172560D01*
X152030D01*
Y178730D01*
D02*
G37*
G36*
X193756Y174776D02*
X190099D01*
Y171119D01*
X190811Y171261D01*
X192491Y172384D01*
X193614Y174064D01*
X193756Y174776D01*
D02*
G37*
G36*
X187559D02*
X183902D01*
X184044Y174064D01*
X185166Y172384D01*
X186847Y171261D01*
X187559Y171119D01*
Y174776D01*
D02*
G37*
G36*
X699740Y172613D02*
Y168957D01*
X703397D01*
X703255Y169669D01*
X702133Y171349D01*
X700452Y172472D01*
X699740Y172613D01*
D02*
G37*
G36*
X697200D02*
X696488Y172472D01*
X694808Y171349D01*
X693685Y169669D01*
X693543Y168957D01*
X697200D01*
Y172613D01*
D02*
G37*
G36*
X679270Y171909D02*
Y168252D01*
X682927D01*
X682785Y168964D01*
X681663Y170645D01*
X679982Y171767D01*
X679270Y171909D01*
D02*
G37*
G36*
X676730D02*
X676018Y171767D01*
X674337Y170645D01*
X673215Y168964D01*
X673073Y168252D01*
X676730D01*
Y171909D01*
D02*
G37*
G36*
X642507D02*
Y168252D01*
X646164D01*
X646022Y168964D01*
X644900Y170645D01*
X643219Y171767D01*
X642507Y171909D01*
D02*
G37*
G36*
X639967D02*
X639255Y171767D01*
X637575Y170645D01*
X636452Y168964D01*
X636310Y168252D01*
X639967D01*
Y171909D01*
D02*
G37*
G36*
X624126D02*
Y168252D01*
X627783D01*
X627641Y168964D01*
X626518Y170645D01*
X624838Y171767D01*
X624126Y171909D01*
D02*
G37*
G36*
X621586D02*
X620874Y171767D01*
X619193Y170645D01*
X618070Y168964D01*
X617929Y168252D01*
X621586D01*
Y171909D01*
D02*
G37*
G36*
X605744D02*
Y168252D01*
X609401D01*
X609260Y168964D01*
X608137Y170645D01*
X606456Y171767D01*
X605744Y171909D01*
D02*
G37*
G36*
X603204D02*
X602492Y171767D01*
X600812Y170645D01*
X599689Y168964D01*
X599547Y168252D01*
X603204D01*
Y171909D01*
D02*
G37*
G36*
X587363D02*
Y168252D01*
X591020D01*
X590878Y168964D01*
X589755Y170645D01*
X588075Y171767D01*
X587363Y171909D01*
D02*
G37*
G36*
X584823D02*
X584111Y171767D01*
X582430Y170645D01*
X581308Y168964D01*
X581166Y168252D01*
X584823D01*
Y171909D01*
D02*
G37*
G36*
X14927Y171544D02*
X11270D01*
Y167887D01*
X11982Y168029D01*
X13663Y169152D01*
X14785Y170832D01*
X14927Y171544D01*
D02*
G37*
G36*
X8730D02*
X5073D01*
X5215Y170832D01*
X6338Y169152D01*
X8018Y168029D01*
X8730Y167887D01*
Y171544D01*
D02*
G37*
G36*
X565160Y177730D02*
X556270D01*
Y167570D01*
X565160D01*
Y177730D01*
D02*
G37*
G36*
X553730D02*
X544840D01*
Y167570D01*
X553730D01*
Y177730D01*
D02*
G37*
G36*
X788671Y170927D02*
Y167270D01*
X792327D01*
X792186Y167982D01*
X791063Y169662D01*
X789383Y170785D01*
X788671Y170927D01*
D02*
G37*
G36*
X786131D02*
X785418Y170785D01*
X783738Y169662D01*
X782615Y167982D01*
X782474Y167270D01*
X786131D01*
Y170927D01*
D02*
G37*
G36*
X771717D02*
Y167270D01*
X775374D01*
X775232Y167982D01*
X774109Y169662D01*
X772429Y170785D01*
X771717Y170927D01*
D02*
G37*
G36*
X769177D02*
X768465Y170785D01*
X766785Y169662D01*
X765662Y167982D01*
X765520Y167270D01*
X769177D01*
Y170927D01*
D02*
G37*
G36*
X754763D02*
Y167270D01*
X758420D01*
X758279Y167982D01*
X757156Y169662D01*
X755475Y170785D01*
X754763Y170927D01*
D02*
G37*
G36*
X752223D02*
X751511Y170785D01*
X749831Y169662D01*
X748708Y167982D01*
X748567Y167270D01*
X752223D01*
Y170927D01*
D02*
G37*
G36*
X505270Y169927D02*
Y166270D01*
X508927D01*
X508785Y166982D01*
X507663Y168662D01*
X505982Y169785D01*
X505270Y169927D01*
D02*
G37*
G36*
X502730D02*
X502018Y169785D01*
X500337Y168662D01*
X499215Y166982D01*
X499073Y166270D01*
X502730D01*
Y169927D01*
D02*
G37*
G36*
X488316D02*
Y166270D01*
X491973D01*
X491832Y166982D01*
X490709Y168662D01*
X489029Y169785D01*
X488316Y169927D01*
D02*
G37*
G36*
X485776D02*
X485064Y169785D01*
X483384Y168662D01*
X482261Y166982D01*
X482119Y166270D01*
X485776D01*
Y169927D01*
D02*
G37*
G36*
X471363D02*
Y166270D01*
X475020D01*
X474878Y166982D01*
X473755Y168662D01*
X472075Y169785D01*
X471363Y169927D01*
D02*
G37*
G36*
X468823D02*
X468111Y169785D01*
X466430Y168662D01*
X465308Y166982D01*
X465166Y166270D01*
X468823D01*
Y169927D01*
D02*
G37*
G36*
X65499Y172440D02*
Y166270D01*
X71419D01*
Y172440D01*
X65499D01*
D02*
G37*
G36*
X83959D02*
X78039D01*
Y166270D01*
X83959D01*
Y172440D01*
D02*
G37*
G36*
X853270Y168927D02*
Y165270D01*
X856927D01*
X856785Y165982D01*
X855663Y167663D01*
X853982Y168785D01*
X853270Y168927D01*
D02*
G37*
G36*
X850730D02*
X850018Y168785D01*
X848337Y167663D01*
X847215Y165982D01*
X847073Y165270D01*
X850730D01*
Y168927D01*
D02*
G37*
G36*
X836316D02*
Y165270D01*
X839973D01*
X839832Y165982D01*
X838709Y167663D01*
X837029Y168785D01*
X836316Y168927D01*
D02*
G37*
G36*
X833776D02*
X833064Y168785D01*
X831384Y167663D01*
X830261Y165982D01*
X830119Y165270D01*
X833776D01*
Y168927D01*
D02*
G37*
G36*
X819363D02*
Y165270D01*
X823020D01*
X822878Y165982D01*
X821755Y167663D01*
X820075Y168785D01*
X819363Y168927D01*
D02*
G37*
G36*
X816823D02*
X816111Y168785D01*
X814430Y167663D01*
X813308Y165982D01*
X813166Y165270D01*
X816823D01*
Y168927D01*
D02*
G37*
G36*
X703397Y166416D02*
X699740D01*
Y162760D01*
X700452Y162901D01*
X702133Y164024D01*
X703255Y165704D01*
X703397Y166416D01*
D02*
G37*
G36*
X697200D02*
X693543D01*
X693685Y165704D01*
X694808Y164024D01*
X696488Y162901D01*
X697200Y162760D01*
Y166416D01*
D02*
G37*
G36*
X682927Y165712D02*
X679270D01*
Y162055D01*
X679982Y162197D01*
X681663Y163320D01*
X682785Y165000D01*
X682927Y165712D01*
D02*
G37*
G36*
X676730D02*
X673073D01*
X673215Y165000D01*
X674337Y163320D01*
X676018Y162197D01*
X676730Y162055D01*
Y165712D01*
D02*
G37*
G36*
X646164D02*
X642507D01*
Y162055D01*
X643219Y162197D01*
X644900Y163320D01*
X646022Y165000D01*
X646164Y165712D01*
D02*
G37*
G36*
X639967D02*
X636310D01*
X636452Y165000D01*
X637575Y163320D01*
X639255Y162197D01*
X639967Y162055D01*
Y165712D01*
D02*
G37*
G36*
X627783D02*
X624126D01*
Y162055D01*
X624838Y162197D01*
X626518Y163320D01*
X627641Y165000D01*
X627783Y165712D01*
D02*
G37*
G36*
X621586D02*
X617929D01*
X618070Y165000D01*
X619193Y163320D01*
X620874Y162197D01*
X621586Y162055D01*
Y165712D01*
D02*
G37*
G36*
X609401D02*
X605744D01*
Y162055D01*
X606456Y162197D01*
X608137Y163320D01*
X609260Y165000D01*
X609401Y165712D01*
D02*
G37*
G36*
X603204D02*
X599547D01*
X599689Y165000D01*
X600812Y163320D01*
X602492Y162197D01*
X603204Y162055D01*
Y165712D01*
D02*
G37*
G36*
X591020D02*
X587363D01*
Y162055D01*
X588075Y162197D01*
X589755Y163320D01*
X590878Y165000D01*
X591020Y165712D01*
D02*
G37*
G36*
X584823D02*
X581166D01*
X581308Y165000D01*
X582430Y163320D01*
X584111Y162197D01*
X584823Y162055D01*
Y165712D01*
D02*
G37*
G36*
X792327Y164730D02*
X788671D01*
Y161073D01*
X789383Y161215D01*
X791063Y162337D01*
X792186Y164018D01*
X792327Y164730D01*
D02*
G37*
G36*
X786131D02*
X782474D01*
X782615Y164018D01*
X783738Y162337D01*
X785418Y161215D01*
X786131Y161073D01*
Y164730D01*
D02*
G37*
G36*
X775374D02*
X771717D01*
Y161073D01*
X772429Y161215D01*
X774109Y162337D01*
X775232Y164018D01*
X775374Y164730D01*
D02*
G37*
G36*
X769177D02*
X765520D01*
X765662Y164018D01*
X766785Y162337D01*
X768465Y161215D01*
X769177Y161073D01*
Y164730D01*
D02*
G37*
G36*
X758420D02*
X754763D01*
Y161073D01*
X755475Y161215D01*
X757156Y162337D01*
X758279Y164018D01*
X758420Y164730D01*
D02*
G37*
G36*
X752223D02*
X748567D01*
X748708Y164018D01*
X749831Y162337D01*
X751511Y161215D01*
X752223Y161073D01*
Y164730D01*
D02*
G37*
G36*
X508927Y163730D02*
X505270D01*
Y160073D01*
X505982Y160215D01*
X507663Y161338D01*
X508785Y163018D01*
X508927Y163730D01*
D02*
G37*
G36*
X502730D02*
X499073D01*
X499215Y163018D01*
X500337Y161338D01*
X502018Y160215D01*
X502730Y160073D01*
Y163730D01*
D02*
G37*
G36*
X491973D02*
X488316D01*
Y160073D01*
X489029Y160215D01*
X490709Y161338D01*
X491832Y163018D01*
X491973Y163730D01*
D02*
G37*
G36*
X485776D02*
X482119D01*
X482261Y163018D01*
X483384Y161338D01*
X485064Y160215D01*
X485776Y160073D01*
Y163730D01*
D02*
G37*
G36*
X475020D02*
X471363D01*
Y160073D01*
X472075Y160215D01*
X473755Y161338D01*
X474878Y163018D01*
X475020Y163730D01*
D02*
G37*
G36*
X468823D02*
X465166D01*
X465308Y163018D01*
X466430Y161338D01*
X468111Y160215D01*
X468823Y160073D01*
Y163730D01*
D02*
G37*
G36*
X737668Y162927D02*
Y159270D01*
X741325D01*
X741183Y159982D01*
X740061Y161663D01*
X738380Y162785D01*
X737668Y162927D01*
D02*
G37*
G36*
X735128D02*
X734416Y162785D01*
X732736Y161663D01*
X731613Y159982D01*
X731471Y159270D01*
X735128D01*
Y162927D01*
D02*
G37*
G36*
X856927Y162730D02*
X853270D01*
Y159073D01*
X853982Y159215D01*
X855663Y160338D01*
X856785Y162018D01*
X856927Y162730D01*
D02*
G37*
G36*
X850730D02*
X847073D01*
X847215Y162018D01*
X848337Y160338D01*
X850018Y159215D01*
X850730Y159073D01*
Y162730D01*
D02*
G37*
G36*
X839973D02*
X836316D01*
Y159073D01*
X837029Y159215D01*
X838709Y160338D01*
X839832Y162018D01*
X839973Y162730D01*
D02*
G37*
G36*
X833776D02*
X830119D01*
X830261Y162018D01*
X831384Y160338D01*
X833064Y159215D01*
X833776Y159073D01*
Y162730D01*
D02*
G37*
G36*
X823020D02*
X819363D01*
Y159073D01*
X820075Y159215D01*
X821755Y160338D01*
X822878Y162018D01*
X823020Y162730D01*
D02*
G37*
G36*
X816823D02*
X813166D01*
X813308Y162018D01*
X814430Y160338D01*
X816111Y159215D01*
X816823Y159073D01*
Y162730D01*
D02*
G37*
G36*
X71419Y163730D02*
X65499D01*
Y157560D01*
X71419D01*
Y163730D01*
D02*
G37*
G36*
X83959D02*
X78039D01*
Y157560D01*
X83959D01*
Y163730D01*
D02*
G37*
G36*
X11270Y160788D02*
Y157131D01*
X14927D01*
X14785Y157843D01*
X13663Y159523D01*
X11982Y160646D01*
X11270Y160788D01*
D02*
G37*
G36*
X8730D02*
X8018Y160646D01*
X6338Y159523D01*
X5215Y157843D01*
X5073Y157131D01*
X8730D01*
Y160788D01*
D02*
G37*
G36*
X741325Y156730D02*
X737668D01*
Y153073D01*
X738380Y153215D01*
X740061Y154338D01*
X741183Y156018D01*
X741325Y156730D01*
D02*
G37*
G36*
X735128D02*
X731471D01*
X731613Y156018D01*
X732736Y154338D01*
X734416Y153215D01*
X735128Y153073D01*
Y156730D01*
D02*
G37*
G36*
X14927Y154591D02*
X11270D01*
Y150934D01*
X11982Y151075D01*
X13663Y152198D01*
X14785Y153878D01*
X14927Y154591D01*
D02*
G37*
G36*
X8730D02*
X5073D01*
X5215Y153878D01*
X6338Y152198D01*
X8018Y151075D01*
X8730Y150934D01*
Y154591D01*
D02*
G37*
G36*
X725680Y150939D02*
Y147282D01*
X729337D01*
X729195Y147994D01*
X728073Y149675D01*
X726392Y150797D01*
X725680Y150939D01*
D02*
G37*
G36*
X723140D02*
X722428Y150797D01*
X720748Y149675D01*
X719625Y147994D01*
X719483Y147282D01*
X723140D01*
Y150939D01*
D02*
G37*
G36*
X30540Y149654D02*
Y145997D01*
X34197D01*
X34055Y146709D01*
X32933Y148389D01*
X31252Y149512D01*
X30540Y149654D01*
D02*
G37*
G36*
X28000D02*
X27288Y149512D01*
X25608Y148389D01*
X24485Y146709D01*
X24343Y145997D01*
X28000D01*
Y149654D01*
D02*
G37*
G36*
X881270Y162712D02*
X878730D01*
X875958Y162347D01*
X873374Y161277D01*
X871156Y159574D01*
X869453Y157356D01*
X868383Y154772D01*
X868018Y152000D01*
X868383Y149228D01*
X869453Y146644D01*
X871156Y144426D01*
X873374Y142724D01*
X875958Y141653D01*
X878730Y141288D01*
X881270D01*
X884042Y141653D01*
X886626Y142724D01*
X888844Y144426D01*
X890547Y146644D01*
X891617Y149228D01*
X891982Y152000D01*
X891617Y154772D01*
X890547Y157356D01*
X888844Y159574D01*
X886626Y161277D01*
X884042Y162347D01*
X881270Y162712D01*
D02*
G37*
G36*
X729337Y144742D02*
X725680D01*
Y141085D01*
X726392Y141227D01*
X728073Y142350D01*
X729195Y144030D01*
X729337Y144742D01*
D02*
G37*
G36*
X723140D02*
X719483D01*
X719625Y144030D01*
X720748Y142350D01*
X722428Y141227D01*
X723140Y141085D01*
Y144742D01*
D02*
G37*
G36*
X681270Y143896D02*
Y140239D01*
X684927D01*
X684785Y140952D01*
X683662Y142632D01*
X681982Y143755D01*
X681270Y143896D01*
D02*
G37*
G36*
X678730D02*
X678018Y143755D01*
X676338Y142632D01*
X675215Y140952D01*
X675073Y140239D01*
X678730D01*
Y143896D01*
D02*
G37*
G36*
X662489D02*
Y140239D01*
X666145D01*
X666004Y140952D01*
X664881Y142632D01*
X663201Y143755D01*
X662489Y143896D01*
D02*
G37*
G36*
X659949D02*
X659237Y143755D01*
X657556Y142632D01*
X656433Y140952D01*
X656292Y140239D01*
X659949D01*
Y143896D01*
D02*
G37*
G36*
X643707D02*
Y140239D01*
X647364D01*
X647222Y140952D01*
X646100Y142632D01*
X644419Y143755D01*
X643707Y143896D01*
D02*
G37*
G36*
X641167D02*
X640455Y143755D01*
X638775Y142632D01*
X637652Y140952D01*
X637510Y140239D01*
X641167D01*
Y143896D01*
D02*
G37*
G36*
X606144D02*
Y140239D01*
X609801D01*
X609660Y140952D01*
X608537Y142632D01*
X606856Y143755D01*
X606144Y143896D01*
D02*
G37*
G36*
X603604D02*
X602892Y143755D01*
X601212Y142632D01*
X600089Y140952D01*
X599947Y140239D01*
X603604D01*
Y143896D01*
D02*
G37*
G36*
X11270Y143834D02*
Y140177D01*
X14927D01*
X14785Y140889D01*
X13663Y142570D01*
X11982Y143692D01*
X11270Y143834D01*
D02*
G37*
G36*
X8730D02*
X8018Y143692D01*
X6338Y142570D01*
X5215Y140889D01*
X5073Y140177D01*
X8730D01*
Y143834D01*
D02*
G37*
G36*
X34197Y143457D02*
X30540D01*
Y139800D01*
X31252Y139942D01*
X32933Y141064D01*
X34055Y142745D01*
X34197Y143457D01*
D02*
G37*
G36*
X28000D02*
X24343D01*
X24485Y142745D01*
X25608Y141064D01*
X27288Y139942D01*
X28000Y139800D01*
Y143457D01*
D02*
G37*
G36*
X789389Y142927D02*
Y139270D01*
X793046D01*
X792905Y139982D01*
X791782Y141663D01*
X790102Y142785D01*
X789389Y142927D01*
D02*
G37*
G36*
X786850D02*
X786137Y142785D01*
X784457Y141663D01*
X783334Y139982D01*
X783193Y139270D01*
X786850D01*
Y142927D01*
D02*
G37*
G36*
X772436D02*
Y139270D01*
X776093D01*
X775951Y139982D01*
X774828Y141663D01*
X773148Y142785D01*
X772436Y142927D01*
D02*
G37*
G36*
X769896D02*
X769184Y142785D01*
X767503Y141663D01*
X766381Y139982D01*
X766239Y139270D01*
X769896D01*
Y142927D01*
D02*
G37*
G36*
X755482D02*
Y139270D01*
X759139D01*
X758998Y139982D01*
X757875Y141663D01*
X756195Y142785D01*
X755482Y142927D01*
D02*
G37*
G36*
X752942D02*
X752230Y142785D01*
X750550Y141663D01*
X749427Y139982D01*
X749286Y139270D01*
X752942D01*
Y142927D01*
D02*
G37*
G36*
X851856Y141927D02*
Y138270D01*
X855513D01*
X855371Y138982D01*
X854249Y140662D01*
X852568Y141785D01*
X851856Y141927D01*
D02*
G37*
G36*
X849316D02*
X848604Y141785D01*
X846924Y140662D01*
X845801Y138982D01*
X845659Y138270D01*
X849316D01*
Y141927D01*
D02*
G37*
G36*
X834903D02*
Y138270D01*
X838559D01*
X838418Y138982D01*
X837295Y140662D01*
X835615Y141785D01*
X834903Y141927D01*
D02*
G37*
G36*
X832363D02*
X831650Y141785D01*
X829970Y140662D01*
X828847Y138982D01*
X828706Y138270D01*
X832363D01*
Y141927D01*
D02*
G37*
G36*
X817949D02*
Y138270D01*
X821606D01*
X821464Y138982D01*
X820341Y140662D01*
X818661Y141785D01*
X817949Y141927D01*
D02*
G37*
G36*
X815409D02*
X814697Y141785D01*
X813017Y140662D01*
X811894Y138982D01*
X811752Y138270D01*
X815409D01*
Y141927D01*
D02*
G37*
G36*
X713692Y138951D02*
Y135294D01*
X717349D01*
X717207Y136006D01*
X716085Y137687D01*
X714404Y138809D01*
X713692Y138951D01*
D02*
G37*
G36*
X711152D02*
X710440Y138809D01*
X708760Y137687D01*
X707637Y136006D01*
X707495Y135294D01*
X711152D01*
Y138951D01*
D02*
G37*
G36*
X684927Y137699D02*
X681270D01*
Y134043D01*
X681982Y134184D01*
X683662Y135307D01*
X684785Y136987D01*
X684927Y137699D01*
D02*
G37*
G36*
X678730D02*
X675073D01*
X675215Y136987D01*
X676338Y135307D01*
X678018Y134184D01*
X678730Y134043D01*
Y137699D01*
D02*
G37*
G36*
X666145D02*
X662489D01*
Y134043D01*
X663201Y134184D01*
X664881Y135307D01*
X666004Y136987D01*
X666145Y137699D01*
D02*
G37*
G36*
X659949D02*
X656292D01*
X656433Y136987D01*
X657556Y135307D01*
X659237Y134184D01*
X659949Y134043D01*
Y137699D01*
D02*
G37*
G36*
X647364D02*
X643707D01*
Y134043D01*
X644419Y134184D01*
X646100Y135307D01*
X647222Y136987D01*
X647364Y137699D01*
D02*
G37*
G36*
X641167D02*
X637510D01*
X637652Y136987D01*
X638775Y135307D01*
X640455Y134184D01*
X641167Y134043D01*
Y137699D01*
D02*
G37*
G36*
X609801D02*
X606144D01*
Y134043D01*
X606856Y134184D01*
X608537Y135307D01*
X609660Y136987D01*
X609801Y137699D01*
D02*
G37*
G36*
X603604D02*
X599947D01*
X600089Y136987D01*
X601212Y135307D01*
X602892Y134184D01*
X603604Y134043D01*
Y137699D01*
D02*
G37*
G36*
X14927Y137637D02*
X11270D01*
Y133980D01*
X11982Y134122D01*
X13663Y135245D01*
X14785Y136925D01*
X14927Y137637D01*
D02*
G37*
G36*
X8730D02*
X5073D01*
X5215Y136925D01*
X6338Y135245D01*
X8018Y134122D01*
X8730Y133980D01*
Y137637D01*
D02*
G37*
G36*
X793046Y136730D02*
X789389D01*
Y133073D01*
X790102Y133215D01*
X791782Y134338D01*
X792905Y136018D01*
X793046Y136730D01*
D02*
G37*
G36*
X786850D02*
X783193D01*
X783334Y136018D01*
X784457Y134338D01*
X786137Y133215D01*
X786850Y133073D01*
Y136730D01*
D02*
G37*
G36*
X776093D02*
X772436D01*
Y133073D01*
X773148Y133215D01*
X774828Y134338D01*
X775951Y136018D01*
X776093Y136730D01*
D02*
G37*
G36*
X769896D02*
X766239D01*
X766381Y136018D01*
X767503Y134338D01*
X769184Y133215D01*
X769896Y133073D01*
Y136730D01*
D02*
G37*
G36*
X759139D02*
X755482D01*
Y133073D01*
X756195Y133215D01*
X757875Y134338D01*
X758998Y136018D01*
X759139Y136730D01*
D02*
G37*
G36*
X752942D02*
X749286D01*
X749427Y136018D01*
X750550Y134338D01*
X752230Y133215D01*
X752942Y133073D01*
Y136730D01*
D02*
G37*
G36*
X855513Y135730D02*
X851856D01*
Y132073D01*
X852568Y132215D01*
X854249Y133337D01*
X855371Y135018D01*
X855513Y135730D01*
D02*
G37*
G36*
X849316D02*
X845659D01*
X845801Y135018D01*
X846924Y133337D01*
X848604Y132215D01*
X849316Y132073D01*
Y135730D01*
D02*
G37*
G36*
X838559D02*
X834903D01*
Y132073D01*
X835615Y132215D01*
X837295Y133337D01*
X838418Y135018D01*
X838559Y135730D01*
D02*
G37*
G36*
X832363D02*
X828706D01*
X828847Y135018D01*
X829970Y133337D01*
X831650Y132215D01*
X832363Y132073D01*
Y135730D01*
D02*
G37*
G36*
X821606D02*
X817949D01*
Y132073D01*
X818661Y132215D01*
X820341Y133337D01*
X821464Y135018D01*
X821606Y135730D01*
D02*
G37*
G36*
X815409D02*
X811752D01*
X811894Y135018D01*
X813017Y133337D01*
X814697Y132215D01*
X815409Y132073D01*
Y135730D01*
D02*
G37*
G36*
X30540Y133792D02*
Y130136D01*
X34197D01*
X34055Y130848D01*
X32933Y132528D01*
X31252Y133651D01*
X30540Y133792D01*
D02*
G37*
G36*
X28000D02*
X27288Y133651D01*
X25608Y132528D01*
X24485Y130848D01*
X24343Y130136D01*
X28000D01*
Y133792D01*
D02*
G37*
G36*
X717349Y132754D02*
X713692D01*
Y129097D01*
X714404Y129239D01*
X716085Y130362D01*
X717207Y132042D01*
X717349Y132754D01*
D02*
G37*
G36*
X711152D02*
X707495D01*
X707637Y132042D01*
X708760Y130362D01*
X710440Y129239D01*
X711152Y129097D01*
Y132754D01*
D02*
G37*
G36*
X34197Y127596D02*
X30540D01*
Y123939D01*
X31252Y124080D01*
X32933Y125203D01*
X34055Y126883D01*
X34197Y127596D01*
D02*
G37*
G36*
X28000D02*
X24343D01*
X24485Y126883D01*
X25608Y125203D01*
X27288Y124080D01*
X28000Y123939D01*
Y127596D01*
D02*
G37*
G36*
X11270Y126880D02*
Y123223D01*
X14927D01*
X14785Y123936D01*
X13663Y125616D01*
X11982Y126739D01*
X11270Y126880D01*
D02*
G37*
G36*
X8730D02*
X8018Y126739D01*
X6338Y125616D01*
X5215Y123936D01*
X5073Y123223D01*
X8730D01*
Y126880D01*
D02*
G37*
G36*
X14927Y120683D02*
X11270D01*
Y117027D01*
X11982Y117168D01*
X13663Y118291D01*
X14785Y119971D01*
X14927Y120683D01*
D02*
G37*
G36*
X8730D02*
X5073D01*
X5215Y119971D01*
X6338Y118291D01*
X8018Y117168D01*
X8730Y117027D01*
Y120683D01*
D02*
G37*
G36*
X881270Y137312D02*
X878730D01*
X875958Y136947D01*
X873374Y135877D01*
X871156Y134174D01*
X869453Y131956D01*
X868383Y129372D01*
X868018Y126600D01*
X868383Y123828D01*
X869453Y121244D01*
X871156Y119026D01*
X873374Y117323D01*
X875958Y116253D01*
X878730Y115888D01*
X881270D01*
X884042Y116253D01*
X886626Y117323D01*
X888844Y119026D01*
X890547Y121244D01*
X891617Y123828D01*
X891982Y126600D01*
X891617Y129372D01*
X890547Y131956D01*
X888844Y134174D01*
X886626Y135877D01*
X884042Y136947D01*
X881270Y137312D01*
D02*
G37*
G36*
X30540Y118792D02*
Y115136D01*
X34197D01*
X34055Y115848D01*
X32933Y117528D01*
X31252Y118651D01*
X30540Y118792D01*
D02*
G37*
G36*
X28000D02*
X27288Y118651D01*
X25608Y117528D01*
X24485Y115848D01*
X24343Y115136D01*
X28000D01*
Y118792D01*
D02*
G37*
G36*
X34197Y112596D02*
X30540D01*
Y108939D01*
X31252Y109080D01*
X32933Y110203D01*
X34055Y111883D01*
X34197Y112596D01*
D02*
G37*
G36*
X28000D02*
X24343D01*
X24485Y111883D01*
X25608Y110203D01*
X27288Y109080D01*
X28000Y108939D01*
Y112596D01*
D02*
G37*
G36*
X679270Y110598D02*
Y106941D01*
X682927D01*
X682785Y107654D01*
X681663Y109334D01*
X679982Y110457D01*
X679270Y110598D01*
D02*
G37*
G36*
X676730D02*
X676018Y110457D01*
X674337Y109334D01*
X673215Y107654D01*
X673073Y106941D01*
X676730D01*
Y110598D01*
D02*
G37*
G36*
X11270Y109927D02*
Y106270D01*
X14927D01*
X14785Y106982D01*
X13663Y108662D01*
X11982Y109785D01*
X11270Y109927D01*
D02*
G37*
G36*
X8730D02*
X8018Y109785D01*
X6338Y108662D01*
X5215Y106982D01*
X5073Y106270D01*
X8730D01*
Y109927D01*
D02*
G37*
G36*
X682927Y104401D02*
X679270D01*
Y100744D01*
X679982Y100886D01*
X681663Y102009D01*
X682785Y103689D01*
X682927Y104401D01*
D02*
G37*
G36*
X676730D02*
X673073D01*
X673215Y103689D01*
X674337Y102009D01*
X676018Y100886D01*
X676730Y100744D01*
Y104401D01*
D02*
G37*
G36*
X14927Y103730D02*
X11270D01*
Y100073D01*
X11982Y100215D01*
X13663Y101337D01*
X14785Y103018D01*
X14927Y103730D01*
D02*
G37*
G36*
X8730D02*
X5073D01*
X5215Y103018D01*
X6338Y101337D01*
X8018Y100215D01*
X8730Y100073D01*
Y103730D01*
D02*
G37*
G36*
X679270Y93645D02*
Y89988D01*
X682927D01*
X682785Y90700D01*
X681663Y92380D01*
X679982Y93503D01*
X679270Y93645D01*
D02*
G37*
G36*
X676730D02*
X676018Y93503D01*
X674337Y92380D01*
X673215Y90700D01*
X673073Y89988D01*
X676730D01*
Y93645D01*
D02*
G37*
G36*
X11270Y92973D02*
Y89316D01*
X14927D01*
X14785Y90028D01*
X13663Y91709D01*
X11982Y92832D01*
X11270Y92973D01*
D02*
G37*
G36*
X8730D02*
X8018Y92832D01*
X6338Y91709D01*
X5215Y90028D01*
X5073Y89316D01*
X8730D01*
Y92973D01*
D02*
G37*
G36*
X653340Y109419D02*
X650659Y109066D01*
X648161Y108031D01*
X646015Y106385D01*
X644369Y104239D01*
X643334Y101741D01*
X642981Y99060D01*
X643334Y96379D01*
X644369Y93881D01*
X646015Y91735D01*
X648161Y90089D01*
X650659Y89054D01*
X653340Y88701D01*
X656021Y89054D01*
X658519Y90089D01*
X660665Y91735D01*
X662311Y93881D01*
X663346Y96379D01*
X663699Y99060D01*
X663346Y101741D01*
X662311Y104239D01*
X660665Y106385D01*
X658519Y108031D01*
X656021Y109066D01*
X653340Y109419D01*
D02*
G37*
G36*
X725840Y110427D02*
X722898Y110040D01*
X720156Y108904D01*
X717802Y107098D01*
X715996Y104744D01*
X714860Y102002D01*
X714473Y99060D01*
X714860Y96118D01*
X715996Y93376D01*
X717802Y91022D01*
X720156Y89216D01*
X722898Y88080D01*
X725840Y87693D01*
X728782Y88080D01*
X731524Y89216D01*
X733878Y91022D01*
X735684Y93376D01*
X736820Y96118D01*
X737207Y99060D01*
X736820Y102002D01*
X735684Y104744D01*
X733878Y107098D01*
X731524Y108904D01*
X728782Y110040D01*
X725840Y110427D01*
D02*
G37*
G36*
X30540Y88227D02*
Y84570D01*
X34197D01*
X34055Y85282D01*
X32933Y86962D01*
X31252Y88085D01*
X30540Y88227D01*
D02*
G37*
G36*
X28000D02*
X27288Y88085D01*
X25608Y86962D01*
X24485Y85282D01*
X24343Y84570D01*
X28000D01*
Y88227D01*
D02*
G37*
G36*
X682927Y87448D02*
X679270D01*
Y83791D01*
X679982Y83933D01*
X681663Y85055D01*
X682785Y86736D01*
X682927Y87448D01*
D02*
G37*
G36*
X676730D02*
X673073D01*
X673215Y86736D01*
X674337Y85055D01*
X676018Y83933D01*
X676730Y83791D01*
Y87448D01*
D02*
G37*
G36*
X14927Y86776D02*
X11270D01*
Y83119D01*
X11982Y83261D01*
X13663Y84384D01*
X14785Y86064D01*
X14927Y86776D01*
D02*
G37*
G36*
X8730D02*
X5073D01*
X5215Y86064D01*
X6338Y84384D01*
X8018Y83261D01*
X8730Y83119D01*
Y86776D01*
D02*
G37*
G36*
X359270Y84904D02*
Y81247D01*
X362927D01*
X362785Y81959D01*
X361662Y83639D01*
X359982Y84762D01*
X359270Y84904D01*
D02*
G37*
G36*
X356730D02*
X356018Y84762D01*
X354338Y83639D01*
X353215Y81959D01*
X353073Y81247D01*
X356730D01*
Y84904D01*
D02*
G37*
G36*
X342316D02*
Y81247D01*
X345973D01*
X345832Y81959D01*
X344709Y83639D01*
X343028Y84762D01*
X342316Y84904D01*
D02*
G37*
G36*
X339776D02*
X339064Y84762D01*
X337384Y83639D01*
X336261Y81959D01*
X336119Y81247D01*
X339776D01*
Y84904D01*
D02*
G37*
G36*
X325363D02*
Y81247D01*
X329020D01*
X328878Y81959D01*
X327755Y83639D01*
X326075Y84762D01*
X325363Y84904D01*
D02*
G37*
G36*
X322823D02*
X322111Y84762D01*
X320430Y83639D01*
X319308Y81959D01*
X319166Y81247D01*
X322823D01*
Y84904D01*
D02*
G37*
G36*
X377049Y83927D02*
Y80270D01*
X380706D01*
X380565Y80982D01*
X379442Y82662D01*
X377761Y83785D01*
X377049Y83927D01*
D02*
G37*
G36*
X374509D02*
X373797Y83785D01*
X372117Y82662D01*
X370994Y80982D01*
X370853Y80270D01*
X374509D01*
Y83927D01*
D02*
G37*
G36*
X34197Y82030D02*
X30540D01*
Y78373D01*
X31252Y78515D01*
X32933Y79637D01*
X34055Y81318D01*
X34197Y82030D01*
D02*
G37*
G36*
X28000D02*
X24343D01*
X24485Y81318D01*
X25608Y79637D01*
X27288Y78515D01*
X28000Y78373D01*
Y82030D01*
D02*
G37*
G36*
X54669D02*
X48499D01*
Y76110D01*
X54669D01*
Y82030D01*
D02*
G37*
G36*
X45959D02*
X39789D01*
Y76110D01*
X45959D01*
Y82030D01*
D02*
G37*
G36*
X362927Y78707D02*
X359270D01*
Y75050D01*
X359982Y75191D01*
X361662Y76314D01*
X362785Y77994D01*
X362927Y78707D01*
D02*
G37*
G36*
X356730D02*
X353073D01*
X353215Y77994D01*
X354338Y76314D01*
X356018Y75191D01*
X356730Y75050D01*
Y78707D01*
D02*
G37*
G36*
X345973D02*
X342316D01*
Y75050D01*
X343028Y75191D01*
X344709Y76314D01*
X345832Y77994D01*
X345973Y78707D01*
D02*
G37*
G36*
X339776D02*
X336119D01*
X336261Y77994D01*
X337384Y76314D01*
X339064Y75191D01*
X339776Y75050D01*
Y78707D01*
D02*
G37*
G36*
X329020D02*
X325363D01*
Y75050D01*
X326075Y75191D01*
X327755Y76314D01*
X328878Y77994D01*
X329020Y78707D01*
D02*
G37*
G36*
X322823D02*
X319166D01*
X319308Y77994D01*
X320430Y76314D01*
X322111Y75191D01*
X322823Y75050D01*
Y78707D01*
D02*
G37*
G36*
X380706Y77730D02*
X377049D01*
Y74073D01*
X377761Y74215D01*
X379442Y75338D01*
X380565Y77018D01*
X380706Y77730D01*
D02*
G37*
G36*
X374509D02*
X370853D01*
X370994Y77018D01*
X372117Y75338D01*
X373797Y74215D01*
X374509Y74073D01*
Y77730D01*
D02*
G37*
G36*
X11270Y76020D02*
Y72363D01*
X14927D01*
X14785Y73075D01*
X13663Y74755D01*
X11982Y75878D01*
X11270Y76020D01*
D02*
G37*
G36*
X8730D02*
X8018Y75878D01*
X6338Y74755D01*
X5215Y73075D01*
X5073Y72363D01*
X8730D01*
Y76020D01*
D02*
G37*
G36*
X920270Y74107D02*
Y70450D01*
X923927D01*
X923785Y71162D01*
X922663Y72843D01*
X920982Y73966D01*
X920270Y74107D01*
D02*
G37*
G36*
X917730D02*
X917018Y73966D01*
X915338Y72843D01*
X914215Y71162D01*
X914073Y70450D01*
X917730D01*
Y74107D01*
D02*
G37*
G36*
X267979Y73070D02*
Y69413D01*
X271636D01*
X271494Y70125D01*
X270371Y71805D01*
X268691Y72928D01*
X267979Y73070D01*
D02*
G37*
G36*
X265439D02*
X264727Y72928D01*
X263046Y71805D01*
X261924Y70125D01*
X261782Y69413D01*
X265439D01*
Y73070D01*
D02*
G37*
G36*
X251025D02*
Y69413D01*
X254682D01*
X254541Y70125D01*
X253418Y71805D01*
X251737Y72928D01*
X251025Y73070D01*
D02*
G37*
G36*
X248485D02*
X247773Y72928D01*
X246093Y71805D01*
X244970Y70125D01*
X244828Y69413D01*
X248485D01*
Y73070D01*
D02*
G37*
G36*
X234072D02*
Y69413D01*
X237729D01*
X237587Y70125D01*
X236464Y71805D01*
X234784Y72928D01*
X234072Y73070D01*
D02*
G37*
G36*
X231532D02*
X230820Y72928D01*
X229139Y71805D01*
X228016Y70125D01*
X227875Y69413D01*
X231532D01*
Y73070D01*
D02*
G37*
G36*
X52270D02*
Y69413D01*
X55927D01*
X55785Y70125D01*
X54662Y71805D01*
X52982Y72928D01*
X52270Y73070D01*
D02*
G37*
G36*
X49730D02*
X49018Y72928D01*
X47337Y71805D01*
X46215Y70125D01*
X46073Y69413D01*
X49730D01*
Y73070D01*
D02*
G37*
G36*
X38270Y72927D02*
Y69270D01*
X41927D01*
X41785Y69982D01*
X40662Y71663D01*
X38982Y72785D01*
X38270Y72927D01*
D02*
G37*
G36*
X35730D02*
X35018Y72785D01*
X33338Y71663D01*
X32215Y69982D01*
X32073Y69270D01*
X35730D01*
Y72927D01*
D02*
G37*
G36*
X113353Y71449D02*
Y67793D01*
X117010D01*
X116868Y68505D01*
X115745Y70185D01*
X114065Y71308D01*
X113353Y71449D01*
D02*
G37*
G36*
X110813D02*
X110101Y71308D01*
X108420Y70185D01*
X107298Y68505D01*
X107156Y67793D01*
X110813D01*
Y71449D01*
D02*
G37*
G36*
X14927Y69823D02*
X11270D01*
Y66166D01*
X11982Y66308D01*
X13663Y67430D01*
X14785Y69111D01*
X14927Y69823D01*
D02*
G37*
G36*
X8730D02*
X5073D01*
X5215Y69111D01*
X6338Y67430D01*
X8018Y66308D01*
X8730Y66166D01*
Y69823D01*
D02*
G37*
G36*
X679270Y68927D02*
Y65270D01*
X682927D01*
X682785Y65982D01*
X681663Y67663D01*
X679982Y68785D01*
X679270Y68927D01*
D02*
G37*
G36*
X676730D02*
X676018Y68785D01*
X674337Y67663D01*
X673215Y65982D01*
X673073Y65270D01*
X676730D01*
Y68927D01*
D02*
G37*
G36*
X923927Y67910D02*
X920270D01*
Y64253D01*
X920982Y64395D01*
X922663Y65518D01*
X923785Y67198D01*
X923927Y67910D01*
D02*
G37*
G36*
X917730D02*
X914073D01*
X914215Y67198D01*
X915338Y65518D01*
X917018Y64395D01*
X917730Y64253D01*
Y67910D01*
D02*
G37*
G36*
X271636Y66873D02*
X267979D01*
Y63216D01*
X268691Y63358D01*
X270371Y64480D01*
X271494Y66161D01*
X271636Y66873D01*
D02*
G37*
G36*
X265439D02*
X261782D01*
X261924Y66161D01*
X263046Y64480D01*
X264727Y63358D01*
X265439Y63216D01*
Y66873D01*
D02*
G37*
G36*
X254682D02*
X251025D01*
Y63216D01*
X251737Y63358D01*
X253418Y64480D01*
X254541Y66161D01*
X254682Y66873D01*
D02*
G37*
G36*
X248485D02*
X244828D01*
X244970Y66161D01*
X246093Y64480D01*
X247773Y63358D01*
X248485Y63216D01*
Y66873D01*
D02*
G37*
G36*
X237729D02*
X234072D01*
Y63216D01*
X234784Y63358D01*
X236464Y64480D01*
X237587Y66161D01*
X237729Y66873D01*
D02*
G37*
G36*
X231532D02*
X227875D01*
X228016Y66161D01*
X229139Y64480D01*
X230820Y63358D01*
X231532Y63216D01*
Y66873D01*
D02*
G37*
G36*
X55927D02*
X52270D01*
Y63216D01*
X52982Y63358D01*
X54662Y64480D01*
X55785Y66161D01*
X55927Y66873D01*
D02*
G37*
G36*
X49730D02*
X46073D01*
X46215Y66161D01*
X47337Y64480D01*
X49018Y63358D01*
X49730Y63216D01*
Y66873D01*
D02*
G37*
G36*
X41927Y66730D02*
X38270D01*
Y63073D01*
X38982Y63215D01*
X40662Y64338D01*
X41785Y66018D01*
X41927Y66730D01*
D02*
G37*
G36*
X35730D02*
X32073D01*
X32215Y66018D01*
X33338Y64338D01*
X35018Y63215D01*
X35730Y63073D01*
Y66730D01*
D02*
G37*
G36*
X652735Y65527D02*
Y61870D01*
X656392D01*
X656250Y62582D01*
X655128Y64262D01*
X653447Y65385D01*
X652735Y65527D01*
D02*
G37*
G36*
X650195D02*
X649483Y65385D01*
X647803Y64262D01*
X646680Y62582D01*
X646538Y61870D01*
X650195D01*
Y65527D01*
D02*
G37*
G36*
X630247D02*
Y61870D01*
X633904D01*
X633762Y62582D01*
X632639Y64262D01*
X630959Y65385D01*
X630247Y65527D01*
D02*
G37*
G36*
X627707D02*
X626995Y65385D01*
X625314Y64262D01*
X624192Y62582D01*
X624050Y61870D01*
X627707D01*
Y65527D01*
D02*
G37*
G36*
X607758D02*
Y61870D01*
X611415D01*
X611274Y62582D01*
X610151Y64262D01*
X608470Y65385D01*
X607758Y65527D01*
D02*
G37*
G36*
X605218D02*
X604506Y65385D01*
X602826Y64262D01*
X601703Y62582D01*
X601562Y61870D01*
X605218D01*
Y65527D01*
D02*
G37*
G36*
X585270D02*
Y61870D01*
X588927D01*
X588785Y62582D01*
X587663Y64262D01*
X585982Y65385D01*
X585270Y65527D01*
D02*
G37*
G36*
X582730D02*
X582018Y65385D01*
X580337Y64262D01*
X579215Y62582D01*
X579073Y61870D01*
X582730D01*
Y65527D01*
D02*
G37*
G36*
X117010Y65252D02*
X113353D01*
Y61596D01*
X114065Y61737D01*
X115745Y62860D01*
X116868Y64540D01*
X117010Y65252D01*
D02*
G37*
G36*
X110813D02*
X107156D01*
X107298Y64540D01*
X108420Y62860D01*
X110101Y61737D01*
X110813Y61596D01*
Y65252D01*
D02*
G37*
G36*
X682927Y62730D02*
X679270D01*
Y59073D01*
X679982Y59215D01*
X681663Y60338D01*
X682785Y62018D01*
X682927Y62730D01*
D02*
G37*
G36*
X676730D02*
X673073D01*
X673215Y62018D01*
X674337Y60338D01*
X676018Y59215D01*
X676730Y59073D01*
Y62730D01*
D02*
G37*
G36*
X64959Y62440D02*
X59039D01*
Y56270D01*
X64959D01*
Y62440D01*
D02*
G37*
G36*
X52270Y59333D02*
Y55676D01*
X55927D01*
X55785Y56389D01*
X54662Y58069D01*
X52982Y59192D01*
X52270Y59333D01*
D02*
G37*
G36*
X49730D02*
X49018Y59192D01*
X47337Y58069D01*
X46215Y56389D01*
X46073Y55676D01*
X49730D01*
Y59333D01*
D02*
G37*
G36*
X656392Y59330D02*
X652735D01*
Y55673D01*
X653447Y55815D01*
X655128Y56937D01*
X656250Y58618D01*
X656392Y59330D01*
D02*
G37*
G36*
X650195D02*
X646538D01*
X646680Y58618D01*
X647803Y56937D01*
X649483Y55815D01*
X650195Y55673D01*
Y59330D01*
D02*
G37*
G36*
X633904D02*
X630247D01*
Y55673D01*
X630959Y55815D01*
X632639Y56937D01*
X633762Y58618D01*
X633904Y59330D01*
D02*
G37*
G36*
X627707D02*
X624050D01*
X624192Y58618D01*
X625314Y56937D01*
X626995Y55815D01*
X627707Y55673D01*
Y59330D01*
D02*
G37*
G36*
X611415D02*
X607758D01*
Y55673D01*
X608470Y55815D01*
X610151Y56937D01*
X611274Y58618D01*
X611415Y59330D01*
D02*
G37*
G36*
X605218D02*
X601562D01*
X601703Y58618D01*
X602826Y56937D01*
X604506Y55815D01*
X605218Y55673D01*
Y59330D01*
D02*
G37*
G36*
X588927D02*
X585270D01*
Y55673D01*
X585982Y55815D01*
X587663Y56937D01*
X588785Y58618D01*
X588927Y59330D01*
D02*
G37*
G36*
X582730D02*
X579073D01*
X579215Y58618D01*
X580337Y56937D01*
X582018Y55815D01*
X582730Y55673D01*
Y59330D01*
D02*
G37*
G36*
X776270Y59066D02*
Y55409D01*
X779927D01*
X779785Y56121D01*
X778662Y57802D01*
X776982Y58924D01*
X776270Y59066D01*
D02*
G37*
G36*
X773730D02*
X773018Y58924D01*
X771338Y57802D01*
X770215Y56121D01*
X770073Y55409D01*
X773730D01*
Y59066D01*
D02*
G37*
G36*
X11270D02*
Y55409D01*
X14927D01*
X14785Y56121D01*
X13663Y57802D01*
X11982Y58924D01*
X11270Y59066D01*
D02*
G37*
G36*
X8730D02*
X8018Y58924D01*
X6338Y57802D01*
X5215Y56121D01*
X5073Y55409D01*
X8730D01*
Y59066D01*
D02*
G37*
G36*
X406285Y58927D02*
Y55270D01*
X409942D01*
X409800Y55982D01*
X408677Y57663D01*
X406997Y58785D01*
X406285Y58927D01*
D02*
G37*
G36*
X403745D02*
X403033Y58785D01*
X401352Y57663D01*
X400230Y55982D01*
X400088Y55270D01*
X403745D01*
Y58927D01*
D02*
G37*
G36*
X386966D02*
Y55270D01*
X390623D01*
X390481Y55982D01*
X389358Y57663D01*
X387678Y58785D01*
X386966Y58927D01*
D02*
G37*
G36*
X384426D02*
X383714Y58785D01*
X382034Y57663D01*
X380911Y55982D01*
X380769Y55270D01*
X384426D01*
Y58927D01*
D02*
G37*
G36*
X370012D02*
Y55270D01*
X373669D01*
X373528Y55982D01*
X372405Y57663D01*
X370724Y58785D01*
X370012Y58927D01*
D02*
G37*
G36*
X367472D02*
X366760Y58785D01*
X365080Y57663D01*
X363957Y55982D01*
X363815Y55270D01*
X367472D01*
Y58927D01*
D02*
G37*
G36*
X353059D02*
Y55270D01*
X356716D01*
X356574Y55982D01*
X355451Y57663D01*
X353771Y58785D01*
X353059Y58927D01*
D02*
G37*
G36*
X350519D02*
X349807Y58785D01*
X348126Y57663D01*
X347004Y55982D01*
X346862Y55270D01*
X350519D01*
Y58927D01*
D02*
G37*
G36*
X97270Y58063D02*
Y54406D01*
X100927D01*
X100785Y55119D01*
X99663Y56799D01*
X97982Y57922D01*
X97270Y58063D01*
D02*
G37*
G36*
X94730D02*
X94018Y57922D01*
X92338Y56799D01*
X91215Y55119D01*
X91073Y54406D01*
X94730D01*
Y58063D01*
D02*
G37*
G36*
X745055Y57786D02*
Y54130D01*
X748712D01*
X748570Y54842D01*
X747448Y56522D01*
X745767Y57645D01*
X745055Y57786D01*
D02*
G37*
G36*
X742515D02*
X741803Y57645D01*
X740123Y56522D01*
X739000Y54842D01*
X738858Y54130D01*
X742515D01*
Y57786D01*
D02*
G37*
G36*
X920270Y57154D02*
Y53497D01*
X923927D01*
X923785Y54209D01*
X922663Y55889D01*
X920982Y57012D01*
X920270Y57154D01*
D02*
G37*
G36*
X917730D02*
X917018Y57012D01*
X915338Y55889D01*
X914215Y54209D01*
X914073Y53497D01*
X917730D01*
Y57154D01*
D02*
G37*
G36*
X836270Y56893D02*
Y53236D01*
X839927D01*
X839785Y53948D01*
X838662Y55629D01*
X836982Y56751D01*
X836270Y56893D01*
D02*
G37*
G36*
X833730D02*
X833018Y56751D01*
X831338Y55629D01*
X830215Y53948D01*
X830073Y53236D01*
X833730D01*
Y56893D01*
D02*
G37*
G36*
X819316D02*
Y53236D01*
X822973D01*
X822832Y53948D01*
X821709Y55629D01*
X820029Y56751D01*
X819316Y56893D01*
D02*
G37*
G36*
X816776D02*
X816064Y56751D01*
X814384Y55629D01*
X813261Y53948D01*
X813120Y53236D01*
X816776D01*
Y56893D01*
D02*
G37*
G36*
X802363D02*
Y53236D01*
X806020D01*
X805878Y53948D01*
X804755Y55629D01*
X803075Y56751D01*
X802363Y56893D01*
D02*
G37*
G36*
X799823D02*
X799111Y56751D01*
X797430Y55629D01*
X796308Y53948D01*
X796166Y53236D01*
X799823D01*
Y56893D01*
D02*
G37*
G36*
X55927Y53137D02*
X52270D01*
Y49480D01*
X52982Y49621D01*
X54662Y50744D01*
X55785Y52424D01*
X55927Y53137D01*
D02*
G37*
G36*
X49730D02*
X46073D01*
X46215Y52424D01*
X47337Y50744D01*
X49018Y49621D01*
X49730Y49480D01*
Y53137D01*
D02*
G37*
G36*
X779927Y52869D02*
X776270D01*
Y49212D01*
X776982Y49354D01*
X778662Y50477D01*
X779785Y52157D01*
X779927Y52869D01*
D02*
G37*
G36*
X773730D02*
X770073D01*
X770215Y52157D01*
X771338Y50477D01*
X773018Y49354D01*
X773730Y49212D01*
Y52869D01*
D02*
G37*
G36*
X14927D02*
X11270D01*
Y49212D01*
X11982Y49354D01*
X13663Y50477D01*
X14785Y52157D01*
X14927Y52869D01*
D02*
G37*
G36*
X8730D02*
X5073D01*
X5215Y52157D01*
X6338Y50477D01*
X8018Y49354D01*
X8730Y49212D01*
Y52869D01*
D02*
G37*
G36*
X409942Y52730D02*
X406285D01*
Y49073D01*
X406997Y49215D01*
X408677Y50338D01*
X409800Y52018D01*
X409942Y52730D01*
D02*
G37*
G36*
X403745D02*
X400088D01*
X400230Y52018D01*
X401352Y50338D01*
X403033Y49215D01*
X403745Y49073D01*
Y52730D01*
D02*
G37*
G36*
X390623D02*
X386966D01*
Y49073D01*
X387678Y49215D01*
X389358Y50338D01*
X390481Y52018D01*
X390623Y52730D01*
D02*
G37*
G36*
X384426D02*
X380769D01*
X380911Y52018D01*
X382034Y50338D01*
X383714Y49215D01*
X384426Y49073D01*
Y52730D01*
D02*
G37*
G36*
X373669D02*
X370012D01*
Y49073D01*
X370724Y49215D01*
X372405Y50338D01*
X373528Y52018D01*
X373669Y52730D01*
D02*
G37*
G36*
X367472D02*
X363815D01*
X363957Y52018D01*
X365080Y50338D01*
X366760Y49215D01*
X367472Y49073D01*
Y52730D01*
D02*
G37*
G36*
X356716D02*
X353059D01*
Y49073D01*
X353771Y49215D01*
X355451Y50338D01*
X356574Y52018D01*
X356716Y52730D01*
D02*
G37*
G36*
X350519D02*
X346862D01*
X347004Y52018D01*
X348126Y50338D01*
X349807Y49215D01*
X350519Y49073D01*
Y52730D01*
D02*
G37*
G36*
X100927Y51866D02*
X97270D01*
Y48210D01*
X97982Y48351D01*
X99663Y49474D01*
X100785Y51154D01*
X100927Y51866D01*
D02*
G37*
G36*
X94730D02*
X91073D01*
X91215Y51154D01*
X92338Y49474D01*
X94018Y48351D01*
X94730Y48210D01*
Y51866D01*
D02*
G37*
G36*
X748712Y51590D02*
X745055D01*
Y47933D01*
X745767Y48074D01*
X747448Y49197D01*
X748570Y50877D01*
X748712Y51590D01*
D02*
G37*
G36*
X742515D02*
X738858D01*
X739000Y50877D01*
X740123Y49197D01*
X741803Y48074D01*
X742515Y47933D01*
Y51590D01*
D02*
G37*
G36*
X64959Y53730D02*
X59039D01*
Y47560D01*
X64959D01*
Y53730D01*
D02*
G37*
G36*
X923927Y50957D02*
X920270D01*
Y47300D01*
X920982Y47442D01*
X922663Y48564D01*
X923785Y50245D01*
X923927Y50957D01*
D02*
G37*
G36*
X917730D02*
X914073D01*
X914215Y50245D01*
X915338Y48564D01*
X917018Y47442D01*
X917730Y47300D01*
Y50957D01*
D02*
G37*
G36*
X839927Y50696D02*
X836270D01*
Y47039D01*
X836982Y47181D01*
X838662Y48304D01*
X839785Y49984D01*
X839927Y50696D01*
D02*
G37*
G36*
X833730D02*
X830073D01*
X830215Y49984D01*
X831338Y48304D01*
X833018Y47181D01*
X833730Y47039D01*
Y50696D01*
D02*
G37*
G36*
X822973D02*
X819316D01*
Y47039D01*
X820029Y47181D01*
X821709Y48304D01*
X822832Y49984D01*
X822973Y50696D01*
D02*
G37*
G36*
X816776D02*
X813120D01*
X813261Y49984D01*
X814384Y48304D01*
X816064Y47181D01*
X816776Y47039D01*
Y50696D01*
D02*
G37*
G36*
X806020D02*
X802363D01*
Y47039D01*
X803075Y47181D01*
X804755Y48304D01*
X805878Y49984D01*
X806020Y50696D01*
D02*
G37*
G36*
X799823D02*
X796166D01*
X796308Y49984D01*
X797430Y48304D01*
X799111Y47181D01*
X799823Y47039D01*
Y50696D01*
D02*
G37*
G36*
X303316Y48927D02*
Y45270D01*
X306973D01*
X306832Y45982D01*
X305709Y47663D01*
X304028Y48785D01*
X303316Y48927D01*
D02*
G37*
G36*
X300776D02*
X300064Y48785D01*
X298384Y47663D01*
X297261Y45982D01*
X297120Y45270D01*
X300776D01*
Y48927D01*
D02*
G37*
G36*
X286363D02*
Y45270D01*
X290020D01*
X289878Y45982D01*
X288755Y47663D01*
X287075Y48785D01*
X286363Y48927D01*
D02*
G37*
G36*
X283823D02*
X283111Y48785D01*
X281430Y47663D01*
X280308Y45982D01*
X280166Y45270D01*
X283823D01*
Y48927D01*
D02*
G37*
G36*
X268270Y47927D02*
Y44270D01*
X271927D01*
X271785Y44982D01*
X270662Y46663D01*
X268982Y47785D01*
X268270Y47927D01*
D02*
G37*
G36*
X265730D02*
X265018Y47785D01*
X263337Y46663D01*
X262215Y44982D01*
X262073Y44270D01*
X265730D01*
Y47927D01*
D02*
G37*
G36*
X251316D02*
Y44270D01*
X254973D01*
X254832Y44982D01*
X253709Y46663D01*
X252029Y47785D01*
X251316Y47927D01*
D02*
G37*
G36*
X248776D02*
X248064Y47785D01*
X246384Y46663D01*
X245261Y44982D01*
X245119Y44270D01*
X248776D01*
Y47927D01*
D02*
G37*
G36*
X234363D02*
Y44270D01*
X238020D01*
X237878Y44982D01*
X236755Y46663D01*
X235075Y47785D01*
X234363Y47927D01*
D02*
G37*
G36*
X231823D02*
X231111Y47785D01*
X229430Y46663D01*
X228308Y44982D01*
X228166Y44270D01*
X231823D01*
Y47927D01*
D02*
G37*
G36*
X198970Y50440D02*
Y44270D01*
X204890D01*
Y50440D01*
X198970D01*
D02*
G37*
G36*
X616782Y46927D02*
Y43270D01*
X620438D01*
X620297Y43982D01*
X619174Y45662D01*
X617494Y46785D01*
X616782Y46927D01*
D02*
G37*
G36*
X614241D02*
X613529Y46785D01*
X611849Y45662D01*
X610726Y43982D01*
X610585Y43270D01*
X614241D01*
Y46927D01*
D02*
G37*
G36*
X594293D02*
Y43270D01*
X597950D01*
X597808Y43982D01*
X596686Y45662D01*
X595005Y46785D01*
X594293Y46927D01*
D02*
G37*
G36*
X591753D02*
X591041Y46785D01*
X589361Y45662D01*
X588238Y43982D01*
X588096Y43270D01*
X591753D01*
Y46927D01*
D02*
G37*
G36*
X571805D02*
Y43270D01*
X575462D01*
X575320Y43982D01*
X574197Y45662D01*
X572517Y46785D01*
X571805Y46927D01*
D02*
G37*
G36*
X569265D02*
X568553Y46785D01*
X566872Y45662D01*
X565750Y43982D01*
X565608Y43270D01*
X569265D01*
Y46927D01*
D02*
G37*
G36*
X549316D02*
Y43270D01*
X552973D01*
X552832Y43982D01*
X551709Y45662D01*
X550028Y46785D01*
X549316Y46927D01*
D02*
G37*
G36*
X546776D02*
X546064Y46785D01*
X544384Y45662D01*
X543261Y43982D01*
X543120Y43270D01*
X546776D01*
Y46927D01*
D02*
G37*
G36*
X526828D02*
Y43270D01*
X530485D01*
X530343Y43982D01*
X529221Y45662D01*
X527540Y46785D01*
X526828Y46927D01*
D02*
G37*
G36*
X524288D02*
X523576Y46785D01*
X521895Y45662D01*
X520773Y43982D01*
X520631Y43270D01*
X524288D01*
Y46927D01*
D02*
G37*
G36*
X504340D02*
Y43270D01*
X507996D01*
X507855Y43982D01*
X506732Y45662D01*
X505052Y46785D01*
X504340Y46927D01*
D02*
G37*
G36*
X501800D02*
X501087Y46785D01*
X499407Y45662D01*
X498284Y43982D01*
X498143Y43270D01*
X501800D01*
Y46927D01*
D02*
G37*
G36*
X481851D02*
Y43270D01*
X485508D01*
X485367Y43982D01*
X484244Y45662D01*
X482563Y46785D01*
X481851Y46927D01*
D02*
G37*
G36*
X479311D02*
X478599Y46785D01*
X476919Y45662D01*
X475796Y43982D01*
X475654Y43270D01*
X479311D01*
Y46927D01*
D02*
G37*
G36*
X459363D02*
Y43270D01*
X463020D01*
X462878Y43982D01*
X461755Y45662D01*
X460075Y46785D01*
X459363Y46927D01*
D02*
G37*
G36*
X456823D02*
X456111Y46785D01*
X454430Y45662D01*
X453308Y43982D01*
X453166Y43270D01*
X456823D01*
Y46927D01*
D02*
G37*
G36*
X97397Y43142D02*
Y39485D01*
X101054D01*
X100912Y40197D01*
X99789Y41877D01*
X98109Y43000D01*
X97397Y43142D01*
D02*
G37*
G36*
X94857D02*
X94145Y43000D01*
X92465Y41877D01*
X91342Y40197D01*
X91200Y39485D01*
X94857D01*
Y43142D01*
D02*
G37*
G36*
X82270D02*
Y39485D01*
X85927D01*
X85785Y40197D01*
X84663Y41877D01*
X82982Y43000D01*
X82270Y43142D01*
D02*
G37*
G36*
X79730D02*
X79018Y43000D01*
X77337Y41877D01*
X76215Y40197D01*
X76073Y39485D01*
X79730D01*
Y43142D01*
D02*
G37*
G36*
X67607D02*
Y39485D01*
X71264D01*
X71123Y40197D01*
X70000Y41877D01*
X68320Y43000D01*
X67607Y43142D01*
D02*
G37*
G36*
X65068D02*
X64355Y43000D01*
X62675Y41877D01*
X61552Y40197D01*
X61411Y39485D01*
X65068D01*
Y43142D01*
D02*
G37*
G36*
X52270D02*
Y39485D01*
X55927D01*
X55785Y40197D01*
X54662Y41877D01*
X52982Y43000D01*
X52270Y43142D01*
D02*
G37*
G36*
X49730D02*
X49018Y43000D01*
X47337Y41877D01*
X46215Y40197D01*
X46073Y39485D01*
X49730D01*
Y43142D01*
D02*
G37*
G36*
X306973Y42730D02*
X303316D01*
Y39073D01*
X304028Y39215D01*
X305709Y40338D01*
X306832Y42018D01*
X306973Y42730D01*
D02*
G37*
G36*
X300776D02*
X297120D01*
X297261Y42018D01*
X298384Y40338D01*
X300064Y39215D01*
X300776Y39073D01*
Y42730D01*
D02*
G37*
G36*
X290020D02*
X286363D01*
Y39073D01*
X287075Y39215D01*
X288755Y40338D01*
X289878Y42018D01*
X290020Y42730D01*
D02*
G37*
G36*
X283823D02*
X280166D01*
X280308Y42018D01*
X281430Y40338D01*
X283111Y39215D01*
X283823Y39073D01*
Y42730D01*
D02*
G37*
G36*
X11270Y42113D02*
Y38456D01*
X14927D01*
X14785Y39168D01*
X13663Y40848D01*
X11982Y41971D01*
X11270Y42113D01*
D02*
G37*
G36*
X8730D02*
X8018Y41971D01*
X6338Y40848D01*
X5215Y39168D01*
X5073Y38456D01*
X8730D01*
Y42113D01*
D02*
G37*
G36*
X271927Y41730D02*
X268270D01*
Y38073D01*
X268982Y38215D01*
X270662Y39337D01*
X271785Y41018D01*
X271927Y41730D01*
D02*
G37*
G36*
X265730D02*
X262073D01*
X262215Y41018D01*
X263337Y39337D01*
X265018Y38215D01*
X265730Y38073D01*
Y41730D01*
D02*
G37*
G36*
X254973D02*
X251316D01*
Y38073D01*
X252029Y38215D01*
X253709Y39337D01*
X254832Y41018D01*
X254973Y41730D01*
D02*
G37*
G36*
X248776D02*
X245119D01*
X245261Y41018D01*
X246384Y39337D01*
X248064Y38215D01*
X248776Y38073D01*
Y41730D01*
D02*
G37*
G36*
X238020D02*
X234363D01*
Y38073D01*
X235075Y38215D01*
X236755Y39337D01*
X237878Y41018D01*
X238020Y41730D01*
D02*
G37*
G36*
X231823D02*
X228166D01*
X228308Y41018D01*
X229430Y39337D01*
X231111Y38215D01*
X231823Y38073D01*
Y41730D01*
D02*
G37*
G36*
X620438Y40730D02*
X616782D01*
Y37073D01*
X617494Y37215D01*
X619174Y38338D01*
X620297Y40018D01*
X620438Y40730D01*
D02*
G37*
G36*
X614241D02*
X610585D01*
X610726Y40018D01*
X611849Y38338D01*
X613529Y37215D01*
X614241Y37073D01*
Y40730D01*
D02*
G37*
G36*
X597950D02*
X594293D01*
Y37073D01*
X595005Y37215D01*
X596686Y38338D01*
X597808Y40018D01*
X597950Y40730D01*
D02*
G37*
G36*
X591753D02*
X588096D01*
X588238Y40018D01*
X589361Y38338D01*
X591041Y37215D01*
X591753Y37073D01*
Y40730D01*
D02*
G37*
G36*
X575462D02*
X571805D01*
Y37073D01*
X572517Y37215D01*
X574197Y38338D01*
X575320Y40018D01*
X575462Y40730D01*
D02*
G37*
G36*
X569265D02*
X565608D01*
X565750Y40018D01*
X566872Y38338D01*
X568553Y37215D01*
X569265Y37073D01*
Y40730D01*
D02*
G37*
G36*
X552973D02*
X549316D01*
Y37073D01*
X550028Y37215D01*
X551709Y38338D01*
X552832Y40018D01*
X552973Y40730D01*
D02*
G37*
G36*
X546776D02*
X543120D01*
X543261Y40018D01*
X544384Y38338D01*
X546064Y37215D01*
X546776Y37073D01*
Y40730D01*
D02*
G37*
G36*
X530485D02*
X526828D01*
Y37073D01*
X527540Y37215D01*
X529221Y38338D01*
X530343Y40018D01*
X530485Y40730D01*
D02*
G37*
G36*
X524288D02*
X520631D01*
X520773Y40018D01*
X521895Y38338D01*
X523576Y37215D01*
X524288Y37073D01*
Y40730D01*
D02*
G37*
G36*
X507996D02*
X504340D01*
Y37073D01*
X505052Y37215D01*
X506732Y38338D01*
X507855Y40018D01*
X507996Y40730D01*
D02*
G37*
G36*
X501800D02*
X498143D01*
X498284Y40018D01*
X499407Y38338D01*
X501087Y37215D01*
X501800Y37073D01*
Y40730D01*
D02*
G37*
G36*
X485508D02*
X481851D01*
Y37073D01*
X482563Y37215D01*
X484244Y38338D01*
X485367Y40018D01*
X485508Y40730D01*
D02*
G37*
G36*
X479311D02*
X475654D01*
X475796Y40018D01*
X476919Y38338D01*
X478599Y37215D01*
X479311Y37073D01*
Y40730D01*
D02*
G37*
G36*
X463020D02*
X459363D01*
Y37073D01*
X460075Y37215D01*
X461755Y38338D01*
X462878Y40018D01*
X463020Y40730D01*
D02*
G37*
G36*
X456823D02*
X453166D01*
X453308Y40018D01*
X454430Y38338D01*
X456111Y37215D01*
X456823Y37073D01*
Y40730D01*
D02*
G37*
G36*
X920270Y40200D02*
Y36543D01*
X923927D01*
X923785Y37255D01*
X922663Y38936D01*
X920982Y40058D01*
X920270Y40200D01*
D02*
G37*
G36*
X917730D02*
X917018Y40058D01*
X915338Y38936D01*
X914215Y37255D01*
X914073Y36543D01*
X917730D01*
Y40200D01*
D02*
G37*
G36*
X204890Y41730D02*
X198970D01*
Y35560D01*
X204890D01*
Y41730D01*
D02*
G37*
G36*
X101054Y36945D02*
X97397D01*
Y33288D01*
X98109Y33430D01*
X99789Y34552D01*
X100912Y36233D01*
X101054Y36945D01*
D02*
G37*
G36*
X94857D02*
X91200D01*
X91342Y36233D01*
X92465Y34552D01*
X94145Y33430D01*
X94857Y33288D01*
Y36945D01*
D02*
G37*
G36*
X85927D02*
X82270D01*
Y33288D01*
X82982Y33430D01*
X84663Y34552D01*
X85785Y36233D01*
X85927Y36945D01*
D02*
G37*
G36*
X79730D02*
X76073D01*
X76215Y36233D01*
X77337Y34552D01*
X79018Y33430D01*
X79730Y33288D01*
Y36945D01*
D02*
G37*
G36*
X71264D02*
X67607D01*
Y33288D01*
X68320Y33430D01*
X70000Y34552D01*
X71123Y36233D01*
X71264Y36945D01*
D02*
G37*
G36*
X65068D02*
X61411D01*
X61552Y36233D01*
X62675Y34552D01*
X64355Y33430D01*
X65068Y33288D01*
Y36945D01*
D02*
G37*
G36*
X55927D02*
X52270D01*
Y33288D01*
X52982Y33430D01*
X54662Y34552D01*
X55785Y36233D01*
X55927Y36945D01*
D02*
G37*
G36*
X49730D02*
X46073D01*
X46215Y36233D01*
X47337Y34552D01*
X49018Y33430D01*
X49730Y33288D01*
Y36945D01*
D02*
G37*
G36*
X862270Y35927D02*
Y32270D01*
X865927D01*
X865785Y32982D01*
X864662Y34662D01*
X862982Y35785D01*
X862270Y35927D01*
D02*
G37*
G36*
X859730D02*
X859018Y35785D01*
X857337Y34662D01*
X856215Y32982D01*
X856073Y32270D01*
X859730D01*
Y35927D01*
D02*
G37*
G36*
X845316D02*
Y32270D01*
X848973D01*
X848832Y32982D01*
X847709Y34662D01*
X846029Y35785D01*
X845316Y35927D01*
D02*
G37*
G36*
X842776D02*
X842064Y35785D01*
X840384Y34662D01*
X839261Y32982D01*
X839119Y32270D01*
X842776D01*
Y35927D01*
D02*
G37*
G36*
X828363D02*
Y32270D01*
X832020D01*
X831878Y32982D01*
X830755Y34662D01*
X829075Y35785D01*
X828363Y35927D01*
D02*
G37*
G36*
X825823D02*
X825111Y35785D01*
X823430Y34662D01*
X822308Y32982D01*
X822166Y32270D01*
X825823D01*
Y35927D01*
D02*
G37*
G36*
X14927Y35916D02*
X11270D01*
Y32259D01*
X11982Y32400D01*
X13663Y33523D01*
X14785Y35204D01*
X14927Y35916D01*
D02*
G37*
G36*
X8730D02*
X5073D01*
X5215Y35204D01*
X6338Y33523D01*
X8018Y32400D01*
X8730Y32259D01*
Y35916D01*
D02*
G37*
G36*
X752294Y35090D02*
Y31433D01*
X755951D01*
X755809Y32145D01*
X754687Y33826D01*
X753006Y34948D01*
X752294Y35090D01*
D02*
G37*
G36*
X749754D02*
X749042Y34948D01*
X747362Y33826D01*
X746239Y32145D01*
X746097Y31433D01*
X749754D01*
Y35090D01*
D02*
G37*
G36*
X811270Y35051D02*
Y31394D01*
X814927D01*
X814785Y32106D01*
X813662Y33786D01*
X811982Y34909D01*
X811270Y35051D01*
D02*
G37*
G36*
X808730D02*
X808018Y34909D01*
X806338Y33786D01*
X805215Y32106D01*
X805073Y31394D01*
X808730D01*
Y35051D01*
D02*
G37*
G36*
X794316D02*
Y31394D01*
X797973D01*
X797832Y32106D01*
X796709Y33786D01*
X795029Y34909D01*
X794316Y35051D01*
D02*
G37*
G36*
X791776D02*
X791064Y34909D01*
X789384Y33786D01*
X788261Y32106D01*
X788120Y31394D01*
X791776D01*
Y35051D01*
D02*
G37*
G36*
X777363D02*
Y31394D01*
X781020D01*
X780878Y32106D01*
X779755Y33786D01*
X778075Y34909D01*
X777363Y35051D01*
D02*
G37*
G36*
X774823D02*
X774111Y34909D01*
X772430Y33786D01*
X771308Y32106D01*
X771166Y31394D01*
X774823D01*
Y35051D01*
D02*
G37*
G36*
X923927Y34003D02*
X920270D01*
Y30346D01*
X920982Y30488D01*
X922663Y31611D01*
X923785Y33291D01*
X923927Y34003D01*
D02*
G37*
G36*
X917730D02*
X914073D01*
X914215Y33291D01*
X915338Y31611D01*
X917018Y30488D01*
X917730Y30346D01*
Y34003D01*
D02*
G37*
G36*
X146944Y31927D02*
Y28270D01*
X150601D01*
X150459Y28982D01*
X149336Y30663D01*
X147656Y31785D01*
X146944Y31927D01*
D02*
G37*
G36*
X144404D02*
X143692Y31785D01*
X142011Y30663D01*
X140889Y28982D01*
X140747Y28270D01*
X144404D01*
Y31927D01*
D02*
G37*
G36*
X129990D02*
Y28270D01*
X133647D01*
X133505Y28982D01*
X132383Y30663D01*
X130702Y31785D01*
X129990Y31927D01*
D02*
G37*
G36*
X127450D02*
X126738Y31785D01*
X125058Y30663D01*
X123935Y28982D01*
X123793Y28270D01*
X127450D01*
Y31927D01*
D02*
G37*
G36*
X113270D02*
Y28270D01*
X116927D01*
X116785Y28982D01*
X115662Y30663D01*
X113982Y31785D01*
X113270Y31927D01*
D02*
G37*
G36*
X110730D02*
X110018Y31785D01*
X108337Y30663D01*
X107215Y28982D01*
X107073Y28270D01*
X110730D01*
Y31927D01*
D02*
G37*
G36*
X878730Y35248D02*
X876078Y34899D01*
X873606Y33875D01*
X871484Y32246D01*
X869855Y30124D01*
X868831Y27652D01*
X868650Y26270D01*
X878730D01*
Y35248D01*
D02*
G37*
G36*
X865927Y29730D02*
X862270D01*
Y26073D01*
X862982Y26215D01*
X864662Y27338D01*
X865785Y29018D01*
X865927Y29730D01*
D02*
G37*
G36*
X859730D02*
X856073D01*
X856215Y29018D01*
X857337Y27338D01*
X859018Y26215D01*
X859730Y26073D01*
Y29730D01*
D02*
G37*
G36*
X848973D02*
X845316D01*
Y26073D01*
X846029Y26215D01*
X847709Y27338D01*
X848832Y29018D01*
X848973Y29730D01*
D02*
G37*
G36*
X842776D02*
X839119D01*
X839261Y29018D01*
X840384Y27338D01*
X842064Y26215D01*
X842776Y26073D01*
Y29730D01*
D02*
G37*
G36*
X832020D02*
X828363D01*
Y26073D01*
X829075Y26215D01*
X830755Y27338D01*
X831878Y29018D01*
X832020Y29730D01*
D02*
G37*
G36*
X825823D02*
X822166D01*
X822308Y29018D01*
X823430Y27338D01*
X825111Y26215D01*
X825823Y26073D01*
Y29730D01*
D02*
G37*
G36*
X755951Y28893D02*
X752294D01*
Y25236D01*
X753006Y25378D01*
X754687Y26501D01*
X755809Y28181D01*
X755951Y28893D01*
D02*
G37*
G36*
X749754D02*
X746097D01*
X746239Y28181D01*
X747362Y26501D01*
X749042Y25378D01*
X749754Y25236D01*
Y28893D01*
D02*
G37*
G36*
X814927Y28854D02*
X811270D01*
Y25197D01*
X811982Y25339D01*
X813662Y26461D01*
X814785Y28142D01*
X814927Y28854D01*
D02*
G37*
G36*
X808730D02*
X805073D01*
X805215Y28142D01*
X806338Y26461D01*
X808018Y25339D01*
X808730Y25197D01*
Y28854D01*
D02*
G37*
G36*
X797973D02*
X794316D01*
Y25197D01*
X795029Y25339D01*
X796709Y26461D01*
X797832Y28142D01*
X797973Y28854D01*
D02*
G37*
G36*
X791776D02*
X788120D01*
X788261Y28142D01*
X789384Y26461D01*
X791064Y25339D01*
X791776Y25197D01*
Y28854D01*
D02*
G37*
G36*
X781020D02*
X777363D01*
Y25197D01*
X778075Y25339D01*
X779755Y26461D01*
X780878Y28142D01*
X781020Y28854D01*
D02*
G37*
G36*
X774823D02*
X771166D01*
X771308Y28142D01*
X772430Y26461D01*
X774111Y25339D01*
X774823Y25197D01*
Y28854D01*
D02*
G37*
G36*
X150601Y25730D02*
X146944D01*
Y22073D01*
X147656Y22215D01*
X149336Y23338D01*
X150459Y25018D01*
X150601Y25730D01*
D02*
G37*
G36*
X144404D02*
X140747D01*
X140889Y25018D01*
X142011Y23338D01*
X143692Y22215D01*
X144404Y22073D01*
Y25730D01*
D02*
G37*
G36*
X133647D02*
X129990D01*
Y22073D01*
X130702Y22215D01*
X132383Y23338D01*
X133505Y25018D01*
X133647Y25730D01*
D02*
G37*
G36*
X127450D02*
X123793D01*
X123935Y25018D01*
X125058Y23338D01*
X126738Y22215D01*
X127450Y22073D01*
Y25730D01*
D02*
G37*
G36*
X116927D02*
X113270D01*
Y22073D01*
X113982Y22215D01*
X115662Y23338D01*
X116785Y25018D01*
X116927Y25730D01*
D02*
G37*
G36*
X110730D02*
X107073D01*
X107215Y25018D01*
X108337Y23338D01*
X110018Y22215D01*
X110730Y22073D01*
Y25730D01*
D02*
G37*
G36*
X11270Y25159D02*
Y21502D01*
X14927D01*
X14785Y22214D01*
X13663Y23895D01*
X11982Y25017D01*
X11270Y25159D01*
D02*
G37*
G36*
X8730D02*
X8018Y25017D01*
X6338Y23895D01*
X5215Y22214D01*
X5073Y21502D01*
X8730D01*
Y25159D01*
D02*
G37*
G36*
X14927Y18962D02*
X11270D01*
Y15305D01*
X11982Y15447D01*
X13663Y16570D01*
X14785Y18250D01*
X14927Y18962D01*
D02*
G37*
G36*
X8730D02*
X5073D01*
X5215Y18250D01*
X6338Y16570D01*
X8018Y15447D01*
X8730Y15305D01*
Y18962D01*
D02*
G37*
G36*
X878730Y23730D02*
X868650D01*
X868831Y22348D01*
X869855Y19876D01*
X871484Y17754D01*
X873606Y16125D01*
X876078Y15101D01*
X878730Y14752D01*
Y23730D01*
D02*
G37*
G36*
X891350D02*
X881270D01*
Y14752D01*
X881270D01*
X883922Y15101D01*
X886394Y16125D01*
X888516Y17754D01*
X890145Y19876D01*
X891169Y22348D01*
X891350Y23730D01*
D02*
G37*
G36*
X120406Y13927D02*
Y10270D01*
X124063D01*
X123921Y10982D01*
X122798Y12663D01*
X121118Y13785D01*
X120406Y13927D01*
D02*
G37*
G36*
X117866D02*
X117154Y13785D01*
X115473Y12663D01*
X114351Y10982D01*
X114209Y10270D01*
X117866D01*
Y13927D01*
D02*
G37*
G36*
X103452D02*
Y10270D01*
X107109D01*
X106968Y10982D01*
X105845Y12663D01*
X104164Y13785D01*
X103452Y13927D01*
D02*
G37*
G36*
X100912D02*
X100200Y13785D01*
X98520Y12663D01*
X97397Y10982D01*
X97255Y10270D01*
X100912D01*
Y13927D01*
D02*
G37*
G36*
X86499D02*
Y10270D01*
X90156D01*
X90014Y10982D01*
X88891Y12663D01*
X87211Y13785D01*
X86499Y13927D01*
D02*
G37*
G36*
X83959D02*
X83247Y13785D01*
X81566Y12663D01*
X80443Y10982D01*
X80302Y10270D01*
X83959D01*
Y13927D01*
D02*
G37*
G36*
X63177D02*
Y10270D01*
X66834D01*
X66692Y10982D01*
X65570Y12663D01*
X63889Y13785D01*
X63177Y13927D01*
D02*
G37*
G36*
X60637D02*
X59925Y13785D01*
X58245Y12663D01*
X57122Y10982D01*
X56980Y10270D01*
X60637D01*
Y13927D01*
D02*
G37*
G36*
X46224D02*
Y10270D01*
X49880D01*
X49739Y10982D01*
X48616Y12663D01*
X46936Y13785D01*
X46224Y13927D01*
D02*
G37*
G36*
X43684D02*
X42972Y13785D01*
X41291Y12663D01*
X40168Y10982D01*
X40027Y10270D01*
X43684D01*
Y13927D01*
D02*
G37*
G36*
X29270D02*
Y10270D01*
X32927D01*
X32785Y10982D01*
X31662Y12663D01*
X29982Y13785D01*
X29270Y13927D01*
D02*
G37*
G36*
X26730D02*
X26018Y13785D01*
X24337Y12663D01*
X23215Y10982D01*
X23073Y10270D01*
X26730D01*
Y13927D01*
D02*
G37*
G36*
X861270Y12927D02*
Y9270D01*
X864927D01*
X864785Y9982D01*
X863662Y11662D01*
X861982Y12785D01*
X861270Y12927D01*
D02*
G37*
G36*
X858730D02*
X858018Y12785D01*
X856338Y11662D01*
X855215Y9982D01*
X855073Y9270D01*
X858730D01*
Y12927D01*
D02*
G37*
G36*
X844316D02*
Y9270D01*
X847973D01*
X847832Y9982D01*
X846709Y11662D01*
X845029Y12785D01*
X844316Y12927D01*
D02*
G37*
G36*
X841776D02*
X841064Y12785D01*
X839384Y11662D01*
X838261Y9982D01*
X838120Y9270D01*
X841776D01*
Y12927D01*
D02*
G37*
G36*
X827363D02*
Y9270D01*
X831020D01*
X830878Y9982D01*
X829755Y11662D01*
X828075Y12785D01*
X827363Y12927D01*
D02*
G37*
G36*
X824823D02*
X824111Y12785D01*
X822430Y11662D01*
X821308Y9982D01*
X821166Y9270D01*
X824823D01*
Y12927D01*
D02*
G37*
G36*
X810409D02*
Y9270D01*
X814066D01*
X813925Y9982D01*
X812802Y11662D01*
X811121Y12785D01*
X810409Y12927D01*
D02*
G37*
G36*
X807869D02*
X807157Y12785D01*
X805477Y11662D01*
X804354Y9982D01*
X804212Y9270D01*
X807869D01*
Y12927D01*
D02*
G37*
G36*
X793456D02*
Y9270D01*
X797113D01*
X796971Y9982D01*
X795848Y11662D01*
X794168Y12785D01*
X793456Y12927D01*
D02*
G37*
G36*
X790916D02*
X790204Y12785D01*
X788523Y11662D01*
X787401Y9982D01*
X787259Y9270D01*
X790916D01*
Y12927D01*
D02*
G37*
G36*
X776502D02*
Y9270D01*
X780159D01*
X780017Y9982D01*
X778895Y11662D01*
X777214Y12785D01*
X776502Y12927D01*
D02*
G37*
G36*
X773962D02*
X773250Y12785D01*
X771570Y11662D01*
X770447Y9982D01*
X770305Y9270D01*
X773962D01*
Y12927D01*
D02*
G37*
G36*
X759549D02*
Y9270D01*
X763206D01*
X763064Y9982D01*
X761941Y11662D01*
X760261Y12785D01*
X759549Y12927D01*
D02*
G37*
G36*
X757009D02*
X756296Y12785D01*
X754616Y11662D01*
X753493Y9982D01*
X753352Y9270D01*
X757009D01*
Y12927D01*
D02*
G37*
G36*
X742595D02*
Y9270D01*
X746252D01*
X746110Y9982D01*
X744988Y11662D01*
X743307Y12785D01*
X742595Y12927D01*
D02*
G37*
G36*
X740055D02*
X739343Y12785D01*
X737663Y11662D01*
X736540Y9982D01*
X736398Y9270D01*
X740055D01*
Y12927D01*
D02*
G37*
G36*
X725641D02*
Y9270D01*
X729298D01*
X729157Y9982D01*
X728034Y11662D01*
X726354Y12785D01*
X725641Y12927D01*
D02*
G37*
G36*
X723102D02*
X722389Y12785D01*
X720709Y11662D01*
X719586Y9982D01*
X719445Y9270D01*
X723102D01*
Y12927D01*
D02*
G37*
G36*
X708688D02*
Y9270D01*
X712345D01*
X712203Y9982D01*
X711080Y11662D01*
X709400Y12785D01*
X708688Y12927D01*
D02*
G37*
G36*
X706148D02*
X705436Y12785D01*
X703755Y11662D01*
X702633Y9982D01*
X702491Y9270D01*
X706148D01*
Y12927D01*
D02*
G37*
G36*
X691734D02*
Y9270D01*
X695391D01*
X695250Y9982D01*
X694127Y11662D01*
X692447Y12785D01*
X691734Y12927D01*
D02*
G37*
G36*
X689194D02*
X688482Y12785D01*
X686802Y11662D01*
X685679Y9982D01*
X685537Y9270D01*
X689194D01*
Y12927D01*
D02*
G37*
G36*
X124063Y7730D02*
X120406D01*
Y4073D01*
X121118Y4215D01*
X122798Y5337D01*
X123921Y7018D01*
X124063Y7730D01*
D02*
G37*
G36*
X117866D02*
X114209D01*
X114351Y7018D01*
X115473Y5337D01*
X117154Y4215D01*
X117866Y4073D01*
Y7730D01*
D02*
G37*
G36*
X107109D02*
X103452D01*
Y4073D01*
X104164Y4215D01*
X105845Y5337D01*
X106968Y7018D01*
X107109Y7730D01*
D02*
G37*
G36*
X100912D02*
X97255D01*
X97397Y7018D01*
X98520Y5337D01*
X100200Y4215D01*
X100912Y4073D01*
Y7730D01*
D02*
G37*
G36*
X90156D02*
X86499D01*
Y4073D01*
X87211Y4215D01*
X88891Y5337D01*
X90014Y7018D01*
X90156Y7730D01*
D02*
G37*
G36*
X83959D02*
X80302D01*
X80443Y7018D01*
X81566Y5337D01*
X83247Y4215D01*
X83959Y4073D01*
Y7730D01*
D02*
G37*
G36*
X66834D02*
X63177D01*
Y4073D01*
X63889Y4215D01*
X65570Y5337D01*
X66692Y7018D01*
X66834Y7730D01*
D02*
G37*
G36*
X60637D02*
X56980D01*
X57122Y7018D01*
X58245Y5337D01*
X59925Y4215D01*
X60637Y4073D01*
Y7730D01*
D02*
G37*
G36*
X49880D02*
X46224D01*
Y4073D01*
X46936Y4215D01*
X48616Y5337D01*
X49739Y7018D01*
X49880Y7730D01*
D02*
G37*
G36*
X43684D02*
X40027D01*
X40168Y7018D01*
X41291Y5337D01*
X42972Y4215D01*
X43684Y4073D01*
Y7730D01*
D02*
G37*
G36*
X32927D02*
X29270D01*
Y4073D01*
X29982Y4215D01*
X31662Y5337D01*
X32785Y7018D01*
X32927Y7730D01*
D02*
G37*
G36*
X26730D02*
X23073D01*
X23215Y7018D01*
X24337Y5337D01*
X26018Y4215D01*
X26730Y4073D01*
Y7730D01*
D02*
G37*
G36*
X864927Y6730D02*
X861270D01*
Y3073D01*
X861982Y3215D01*
X863662Y4338D01*
X864785Y6018D01*
X864927Y6730D01*
D02*
G37*
G36*
X858730D02*
X855073D01*
X855215Y6018D01*
X856338Y4338D01*
X858018Y3215D01*
X858730Y3073D01*
Y6730D01*
D02*
G37*
G36*
X847973D02*
X844316D01*
Y3073D01*
X845029Y3215D01*
X846709Y4338D01*
X847832Y6018D01*
X847973Y6730D01*
D02*
G37*
G36*
X841776D02*
X838120D01*
X838261Y6018D01*
X839384Y4338D01*
X841064Y3215D01*
X841776Y3073D01*
Y6730D01*
D02*
G37*
G36*
X831020D02*
X827363D01*
Y3073D01*
X828075Y3215D01*
X829755Y4338D01*
X830878Y6018D01*
X831020Y6730D01*
D02*
G37*
G36*
X824823D02*
X821166D01*
X821308Y6018D01*
X822430Y4338D01*
X824111Y3215D01*
X824823Y3073D01*
Y6730D01*
D02*
G37*
G36*
X814066D02*
X810409D01*
Y3073D01*
X811121Y3215D01*
X812802Y4338D01*
X813925Y6018D01*
X814066Y6730D01*
D02*
G37*
G36*
X807869D02*
X804212D01*
X804354Y6018D01*
X805477Y4338D01*
X807157Y3215D01*
X807869Y3073D01*
Y6730D01*
D02*
G37*
G36*
X797113D02*
X793456D01*
Y3073D01*
X794168Y3215D01*
X795848Y4338D01*
X796971Y6018D01*
X797113Y6730D01*
D02*
G37*
G36*
X790916D02*
X787259D01*
X787401Y6018D01*
X788523Y4338D01*
X790204Y3215D01*
X790916Y3073D01*
Y6730D01*
D02*
G37*
G36*
X780159D02*
X776502D01*
Y3073D01*
X777214Y3215D01*
X778895Y4338D01*
X780017Y6018D01*
X780159Y6730D01*
D02*
G37*
G36*
X773962D02*
X770305D01*
X770447Y6018D01*
X771570Y4338D01*
X773250Y3215D01*
X773962Y3073D01*
Y6730D01*
D02*
G37*
G36*
X763206D02*
X759549D01*
Y3073D01*
X760261Y3215D01*
X761941Y4338D01*
X763064Y6018D01*
X763206Y6730D01*
D02*
G37*
G36*
X757009D02*
X753352D01*
X753493Y6018D01*
X754616Y4338D01*
X756296Y3215D01*
X757009Y3073D01*
Y6730D01*
D02*
G37*
G36*
X746252D02*
X742595D01*
Y3073D01*
X743307Y3215D01*
X744988Y4338D01*
X746110Y6018D01*
X746252Y6730D01*
D02*
G37*
G36*
X740055D02*
X736398D01*
X736540Y6018D01*
X737663Y4338D01*
X739343Y3215D01*
X740055Y3073D01*
Y6730D01*
D02*
G37*
G36*
X729298D02*
X725641D01*
Y3073D01*
X726354Y3215D01*
X728034Y4338D01*
X729157Y6018D01*
X729298Y6730D01*
D02*
G37*
G36*
X723102D02*
X719445D01*
X719586Y6018D01*
X720709Y4338D01*
X722389Y3215D01*
X723102Y3073D01*
Y6730D01*
D02*
G37*
G36*
X712345D02*
X708688D01*
Y3073D01*
X709400Y3215D01*
X711080Y4338D01*
X712203Y6018D01*
X712345Y6730D01*
D02*
G37*
G36*
X706148D02*
X702491D01*
X702633Y6018D01*
X703755Y4338D01*
X705436Y3215D01*
X706148Y3073D01*
Y6730D01*
D02*
G37*
G36*
X695391D02*
X691734D01*
Y3073D01*
X692447Y3215D01*
X694127Y4338D01*
X695250Y6018D01*
X695391Y6730D01*
D02*
G37*
G36*
X689194D02*
X685537D01*
X685679Y6018D01*
X686802Y4338D01*
X688482Y3215D01*
X689194Y3073D01*
Y6730D01*
D02*
G37*
G36*
X171270Y131518D02*
Y127861D01*
X174927D01*
X174785Y128573D01*
X173662Y130254D01*
X171982Y131376D01*
X171270Y131518D01*
D02*
G37*
G36*
X168730D02*
X168018Y131376D01*
X166338Y130254D01*
X165215Y128573D01*
X165073Y127861D01*
X168730D01*
Y131518D01*
D02*
G37*
G36*
Y125321D02*
X165073D01*
X165215Y124609D01*
X166338Y122929D01*
X168018Y121806D01*
X168730Y121664D01*
Y125321D01*
D02*
G37*
G36*
X191270Y115486D02*
Y111829D01*
X194927D01*
X194785Y112541D01*
X193662Y114221D01*
X191982Y115344D01*
X191270Y115486D01*
D02*
G37*
G36*
X188730D02*
X188018Y115344D01*
X186338Y114221D01*
X185215Y112541D01*
X185073Y111829D01*
X188730D01*
Y115486D01*
D02*
G37*
G36*
X194927Y109289D02*
X191270D01*
Y105632D01*
X191982Y105773D01*
X193662Y106896D01*
X194785Y108577D01*
X194927Y109289D01*
D02*
G37*
G36*
X188730D02*
X185073D01*
X185215Y108577D01*
X186338Y106896D01*
X188018Y105773D01*
X188730Y105632D01*
Y109289D01*
D02*
G37*
G36*
X198230Y103792D02*
X197518Y103651D01*
X195838Y102528D01*
X194715Y100848D01*
X194573Y100136D01*
X198230D01*
Y103792D01*
D02*
G37*
G36*
Y97596D02*
X194573D01*
X194715Y96883D01*
X195838Y95203D01*
X197518Y94080D01*
X198230Y93939D01*
Y97596D01*
D02*
G37*
G36*
X164810Y91703D02*
Y88046D01*
X168467D01*
X168325Y88758D01*
X167202Y90439D01*
X165522Y91562D01*
X164810Y91703D01*
D02*
G37*
G36*
X162270D02*
X161558Y91562D01*
X159878Y90439D01*
X158755Y88758D01*
X158613Y88046D01*
X162270D01*
Y91703D01*
D02*
G37*
%LPD*%
D11*
X134730Y137500D02*
X150000D01*
D12*
X239727Y132500D02*
X246093Y138866D01*
X219016Y132500D02*
X239727D01*
X116000Y108684D02*
X119816Y112500D01*
X116000Y86000D02*
Y108684D01*
X119816Y112500D02*
X134730D01*
X160609Y114000D02*
Y117200D01*
X149109Y102500D02*
X160609Y114000D01*
X134730Y102500D02*
X149109D01*
X146543Y107500D02*
X153338Y114295D01*
X134730Y107500D02*
X146543D01*
X50597Y130445D02*
X63541Y117500D01*
X48829Y133019D02*
X51000Y130848D01*
X63541Y117500D02*
X107364D01*
X112364Y122500D01*
X134730D01*
X99907Y131134D02*
X103350Y127691D01*
X134539D01*
X134730Y127500D01*
X181000Y29000D02*
X662982D01*
X169500Y40500D02*
X181000Y29000D01*
X662982D02*
X686000Y52018D01*
X497976Y75800D02*
X880000D01*
X476276Y97500D02*
X497976Y75800D01*
X219016Y97500D02*
X476276D01*
X149500Y148462D02*
Y152270D01*
X149038Y148000D02*
X149500Y148462D01*
X195500Y137500D02*
X219016D01*
X273000Y177000D02*
X273000Y177000D01*
X662000Y22000D02*
X682000Y42000D01*
X686000D01*
X680000Y32000D02*
X685000D01*
X664500Y16500D02*
X680000Y32000D01*
X169500Y40500D02*
Y67730D01*
X181000Y22000D02*
X662000D01*
X159500Y43500D02*
X181000Y22000D01*
X159500Y43500D02*
Y67730D01*
X178500Y16500D02*
X664500D01*
X154500Y40500D02*
X178500Y16500D01*
X154500Y40500D02*
Y67730D01*
X182300Y43000D02*
X184500Y45200D01*
X861671Y117500D02*
X877971Y101200D01*
X490688Y117500D02*
X861671D01*
X475688Y102500D02*
X490688Y117500D01*
X877971Y101200D02*
X880000D01*
X219016Y102500D02*
X475688D01*
X440800Y177730D02*
Y179000D01*
X370570Y107500D02*
X440800Y177730D01*
X219016Y107500D02*
X370570D01*
X415400Y177730D02*
Y179000D01*
X350170Y112500D02*
X415400Y177730D01*
X219016Y112500D02*
X350170D01*
X184500Y97500D02*
X204500Y77500D01*
Y67730D02*
Y77500D01*
X155500Y97500D02*
X184500D01*
X127192Y82500D02*
X134730D01*
X126730Y82038D02*
X127192Y82500D01*
X126730Y69914D02*
Y82038D01*
X149500Y152270D02*
Y161500D01*
X219016Y127500D02*
X313100D01*
X356710Y171110D01*
X357980D01*
X364600Y177730D01*
Y179000D01*
X390000D02*
Y180270D01*
X376270Y194000D02*
X390000Y180270D01*
X226000Y194000D02*
X376270D01*
X204500Y172500D02*
X226000Y194000D01*
X204500Y152270D02*
Y172500D01*
X273000Y177000D02*
Y177250D01*
X155500Y97500D02*
X195500Y137500D01*
X134730Y97500D02*
X155500D01*
X184500Y45200D02*
Y67730D01*
X169500Y152270D02*
Y179200D01*
X168700Y180000D02*
X169500Y179200D01*
X119816Y89000D02*
X121230Y87586D01*
X134644D01*
X134730Y87500D01*
X110828Y80828D02*
X116000Y86000D01*
X102229Y80300D02*
X102757Y80828D01*
X110828D01*
X110200Y95700D02*
X113000Y98500D01*
X102229Y95700D02*
X110200D01*
X113000Y98500D02*
Y113184D01*
X117316Y117500D01*
X134730D01*
D17*
X197700Y43000D02*
D03*
X182300D02*
D03*
X81629Y55000D02*
D03*
X66229D02*
D03*
X64229Y165000D02*
D03*
X48829D02*
D03*
X168700Y180000D02*
D03*
X153300D02*
D03*
X85229Y165000D02*
D03*
X100629D02*
D03*
X258300Y156000D02*
D03*
X273700Y156000D02*
D03*
X273000Y177000D02*
D03*
X257600D02*
D03*
D18*
X134730Y137500D02*
D03*
Y132500D02*
D03*
Y127500D02*
D03*
Y122500D02*
D03*
Y117500D02*
D03*
Y112500D02*
D03*
Y107500D02*
D03*
Y102500D02*
D03*
Y97500D02*
D03*
Y92500D02*
D03*
Y87500D02*
D03*
Y82500D02*
D03*
X219016D02*
D03*
X219016Y87500D02*
D03*
Y92500D02*
D03*
X219016Y97500D02*
D03*
Y102500D02*
D03*
Y107500D02*
D03*
Y112500D02*
D03*
Y117500D02*
D03*
X219016Y122500D02*
D03*
Y127500D02*
D03*
X219016Y132500D02*
D03*
Y137500D02*
D03*
D19*
X149500Y67730D02*
D03*
X154500D02*
D03*
X159500D02*
D03*
X164500D02*
D03*
X169500D02*
D03*
X174500D02*
D03*
X179500D02*
D03*
X184500D02*
D03*
X189500D02*
D03*
X194500D02*
D03*
X199500D02*
D03*
X204500D02*
D03*
Y152270D02*
D03*
X199500D02*
D03*
X194500D02*
D03*
X189500D02*
D03*
X184500D02*
D03*
X179500D02*
D03*
X174500D02*
D03*
X169500D02*
D03*
X164500D02*
D03*
X159500D02*
D03*
X154500D02*
D03*
X149500D02*
D03*
D20*
X66229Y98000D02*
D03*
X82229Y76000D02*
D03*
X66229D02*
D03*
X82229Y98000D02*
D03*
D21*
X47229Y98700D02*
D03*
Y83300D02*
D03*
X102229Y95700D02*
D03*
X102229Y80300D02*
D03*
D34*
X914000Y17000D02*
D03*
D35*
X48829Y133019D02*
Y165000D01*
X100629Y131856D02*
Y165000D01*
X99907Y131134D02*
X100629Y131856D01*
X219016Y140016D02*
Y160316D01*
X273000Y177250D02*
Y181000D01*
X266000Y188000D02*
X273000Y181000D01*
X246700Y188000D02*
X266000D01*
X273000Y177000D02*
X292000D01*
X880600Y50400D02*
X914000Y17000D01*
X880000Y50400D02*
X880600D01*
X911000Y80130D02*
Y174000D01*
X891000Y194000D02*
X911000Y174000D01*
X543330Y194000D02*
X891000D01*
X529600Y180270D02*
X543330Y194000D01*
X529600Y179000D02*
Y180270D01*
X881270Y50400D02*
X911000Y80130D01*
X219016Y160316D02*
X246700Y188000D01*
X94000Y112000D02*
X102229Y103771D01*
X71000Y112000D02*
X94000D01*
X66229Y107229D02*
X71000Y112000D01*
X102229Y95700D02*
Y103771D01*
X66229Y98000D02*
Y107229D01*
X257600Y177000D02*
X257950Y176650D01*
Y156350D02*
Y176650D01*
Y156350D02*
X258300Y156000D01*
X101079Y79150D02*
X102229Y80300D01*
X84479Y79150D02*
X101079D01*
X82229Y76900D02*
X84479Y79150D01*
X82229Y76000D02*
Y76900D01*
X81929Y75700D02*
X82229Y76000D01*
X81929Y55300D02*
Y75700D01*
X81629Y55000D02*
X81929Y55300D01*
X65879Y98350D02*
X66229Y98000D01*
X47579Y98350D02*
X65879D01*
X47229Y98700D02*
X47579Y98350D01*
D36*
X122000Y148000D02*
X149038D01*
D37*
X555000Y179000D02*
D03*
X364600D02*
D03*
D38*
X529600D02*
D03*
X440800D02*
D03*
X415400D02*
D03*
X390000D02*
D03*
D39*
X880000Y50400D02*
D03*
Y152000D02*
D03*
Y126600D02*
D03*
Y101200D02*
D03*
Y75800D02*
D03*
Y25000D02*
D03*
D40*
Y177400D02*
D03*
D41*
X101000Y130848D02*
D03*
D42*
X51000D02*
D03*
D43*
X153338Y114295D02*
D03*
X584000Y60600D02*
D03*
X628977D02*
D03*
X606488D02*
D03*
X651465D02*
D03*
X405015Y54000D02*
D03*
X375779Y79000D02*
D03*
X28000Y179200D02*
D03*
X29270Y144727D02*
D03*
Y128866D02*
D03*
Y113866D02*
D03*
Y83300D02*
D03*
X112083Y66522D02*
D03*
X96000Y53137D02*
D03*
X96127Y38215D02*
D03*
X81000D02*
D03*
X51000D02*
D03*
Y54406D02*
D03*
Y68143D02*
D03*
X37000Y68000D02*
D03*
X66337Y38215D02*
D03*
X155500Y97500D02*
D03*
X199500Y98866D02*
D03*
X163540Y86776D02*
D03*
X190000Y110559D02*
D03*
X170000Y126591D02*
D03*
X188829Y193000D02*
D03*
Y176046D02*
D03*
X686000Y52018D02*
D03*
X678000Y105671D02*
D03*
Y64000D02*
D03*
Y88718D02*
D03*
X698470Y167687D02*
D03*
X710458Y179674D02*
D03*
X736398Y158000D02*
D03*
X712422Y134024D02*
D03*
X724410Y146012D02*
D03*
X787401Y166000D02*
D03*
X753493D02*
D03*
X770447D02*
D03*
X788120Y138000D02*
D03*
X754212D02*
D03*
X771166D02*
D03*
X850586Y137000D02*
D03*
X816679D02*
D03*
X833633D02*
D03*
X852000Y164000D02*
D03*
X818093D02*
D03*
X835046D02*
D03*
X919000Y35273D02*
D03*
Y69180D02*
D03*
Y52227D02*
D03*
X775000Y54139D02*
D03*
X751024Y30163D02*
D03*
X743785Y52860D02*
D03*
X835000Y51966D02*
D03*
X801093D02*
D03*
X818046D02*
D03*
X861000Y31000D02*
D03*
X827093D02*
D03*
X844046D02*
D03*
X810000Y30124D02*
D03*
X776093D02*
D03*
X793046D02*
D03*
X680000Y138969D02*
D03*
X642437D02*
D03*
X661219D02*
D03*
X604874D02*
D03*
X678000Y166982D02*
D03*
X641237D02*
D03*
X622856D02*
D03*
X586093D02*
D03*
X604474D02*
D03*
X504000Y165000D02*
D03*
X470093D02*
D03*
X487046D02*
D03*
X506000Y188000D02*
D03*
X472093D02*
D03*
X489046D02*
D03*
X593023Y42000D02*
D03*
X615512D02*
D03*
X570535D02*
D03*
X525558D02*
D03*
X548046D02*
D03*
X503070D02*
D03*
X458093D02*
D03*
X480581D02*
D03*
X358000Y79977D02*
D03*
X324093D02*
D03*
X341046D02*
D03*
X385696Y54000D02*
D03*
X351789D02*
D03*
X368742D02*
D03*
X285093Y44000D02*
D03*
X302046D02*
D03*
X145674Y27000D02*
D03*
X112000D02*
D03*
X128720D02*
D03*
X266709Y68143D02*
D03*
X232802D02*
D03*
X249755D02*
D03*
X267000Y43000D02*
D03*
X233093D02*
D03*
X250046D02*
D03*
X280000Y138866D02*
D03*
X246093D02*
D03*
X263046D02*
D03*
X302000Y152277D02*
D03*
X329000Y178235D02*
D03*
X315258Y165535D02*
D03*
X97397Y188000D02*
D03*
X131304D02*
D03*
X114351D02*
D03*
X41000D02*
D03*
X74907D02*
D03*
X57954D02*
D03*
X85229Y9000D02*
D03*
X119136D02*
D03*
X102182D02*
D03*
X28000D02*
D03*
X61907D02*
D03*
X44954D02*
D03*
X690464Y8000D02*
D03*
X707418D02*
D03*
X724371D02*
D03*
X775232D02*
D03*
X758279D02*
D03*
X741325D02*
D03*
X826093D02*
D03*
X809139D02*
D03*
X792186D02*
D03*
X860000D02*
D03*
X843046D02*
D03*
X10000Y37186D02*
D03*
Y20232D02*
D03*
Y88046D02*
D03*
Y71093D02*
D03*
Y54139D02*
D03*
Y138907D02*
D03*
Y121953D02*
D03*
Y105000D02*
D03*
Y155861D02*
D03*
Y172814D02*
D03*
Y189768D02*
D03*
X150000Y137500D02*
D03*
X122000Y148000D02*
D03*
X292000Y177000D02*
D03*
X686000Y42000D02*
D03*
X685000Y32000D02*
D03*
X126730Y69914D02*
D03*
X119816Y89000D02*
D03*
M02*
