G04*
G04 #@! TF.GenerationSoftware,Altium Limited,Altium Designer,19.0.4 (130)*
G04*
G04 Layer_Color=128*
%FSLAX44Y44*%
%MOMM*%
G71*
G01*
G75*
%ADD10C,0.2540*%
%ADD11C,0.0600*%
%ADD12C,0.1000*%
%ADD13C,0.2000*%
%ADD14C,0.0500*%
%ADD15C,0.2032*%
%ADD16C,0.0508*%
G36*
X420501Y36850D02*
X417501D01*
Y41150D01*
X420501D01*
Y36850D01*
D02*
G37*
G36*
X400500Y27350D02*
X397500D01*
Y31650D01*
X400500D01*
Y27350D01*
D02*
G37*
G36*
X420501Y17850D02*
X417501D01*
Y22150D01*
X420501D01*
Y17850D01*
D02*
G37*
G36*
X415501Y15000D02*
X402500Y15000D01*
Y44000D01*
X415501D01*
X415501Y15000D01*
D02*
G37*
D10*
X0Y200000D02*
X930000D01*
Y0D02*
Y200000D01*
X0Y0D02*
Y200000D01*
Y0D02*
X930000D01*
D11*
X420801Y44001D02*
G03*
X420801Y44001I-300J0D01*
G01*
D12*
X263350Y183170D02*
X266350Y186170D01*
X265350Y182170D02*
X268350Y185170D01*
X261300Y177000D02*
X269300Y177000D01*
X263300Y173000D02*
Y181000D01*
X263300Y177000D02*
X267300Y173000D01*
X263300Y177000D02*
X267300Y181000D01*
Y173000D02*
Y181000D01*
D13*
X424502Y39000D02*
G03*
X424502Y39000I-1001J0D01*
G01*
D14*
X180500Y110000D02*
G03*
X180500Y110000I-3500J0D01*
G01*
X172000D02*
X182000D01*
X177000Y105000D02*
Y115000D01*
D15*
X243300Y172000D02*
Y182000D01*
X288300Y182000D02*
X288300Y172000D01*
X283300Y177000D02*
X293300D01*
D16*
X550936Y179000D02*
X559064D01*
X555000Y174936D02*
Y183064D01*
X525536Y179000D02*
X533664D01*
X529600Y174936D02*
Y183064D01*
X436736Y179000D02*
X444864D01*
X440800Y174936D02*
Y183064D01*
X411336Y179000D02*
X419464D01*
X415400Y174936D02*
Y183064D01*
X385936Y179000D02*
X394064D01*
X390000Y174936D02*
Y183064D01*
X360536Y179000D02*
X368664D01*
X364600Y174936D02*
Y183064D01*
X875936Y50400D02*
X884064D01*
X880000Y46336D02*
Y54464D01*
X875936Y177400D02*
X884064D01*
X880000Y173336D02*
Y181464D01*
X875936Y152000D02*
X884064D01*
X880000Y147936D02*
Y156064D01*
X875936Y126600D02*
X884064D01*
X880000Y122536D02*
Y130664D01*
X875936Y101200D02*
X884064D01*
X880000Y97136D02*
Y105264D01*
X875936Y75800D02*
X884064D01*
X880000Y71736D02*
Y79864D01*
X875936Y25000D02*
X884064D01*
X880000Y20936D02*
Y29064D01*
X96000Y130848D02*
X106000D01*
X101000Y125848D02*
Y135848D01*
X46000Y130848D02*
X56000D01*
X51000Y125848D02*
Y135848D01*
X151814Y114295D02*
X154862D01*
X153338Y112771D02*
Y115819D01*
X582476Y60600D02*
X585524D01*
X584000Y59076D02*
Y62124D01*
X627453Y60600D02*
X630501D01*
X628977Y59076D02*
Y62124D01*
X604964Y60600D02*
X608012D01*
X606488Y59076D02*
Y62124D01*
X649941Y60600D02*
X652989D01*
X651465Y59076D02*
Y62124D01*
X403491Y54000D02*
X406539D01*
X405015Y52476D02*
Y55524D01*
X374255Y79000D02*
X377303D01*
X375779Y77476D02*
Y80524D01*
X26476Y179200D02*
X29524D01*
X28000Y177676D02*
Y180724D01*
X27746Y144727D02*
X30794D01*
X29270Y143203D02*
Y146251D01*
X27746Y128866D02*
X30794D01*
X29270Y127342D02*
Y130390D01*
X27746Y113866D02*
X30794D01*
X29270Y112342D02*
Y115390D01*
X27746Y83300D02*
X30794D01*
X29270Y81776D02*
Y84824D01*
X110559Y66522D02*
X113607D01*
X112083Y64998D02*
Y68046D01*
X94476Y53137D02*
X97524D01*
X96000Y51613D02*
Y54661D01*
X94603Y38215D02*
X97651D01*
X96127Y36691D02*
Y39739D01*
X79476Y38215D02*
X82524D01*
X81000Y36691D02*
Y39739D01*
X49476Y38215D02*
X52524D01*
X51000Y36691D02*
Y39739D01*
X49476Y54406D02*
X52524D01*
X51000Y52882D02*
Y55931D01*
X49476Y68143D02*
X52524D01*
X51000Y66619D02*
Y69667D01*
X35476Y68000D02*
X38524D01*
X37000Y66476D02*
Y69524D01*
X64813Y38215D02*
X67861D01*
X66337Y36691D02*
Y39739D01*
X153976Y97500D02*
X157024D01*
X155500Y95976D02*
Y99024D01*
X197976Y98866D02*
X201024D01*
X199500Y97342D02*
Y100390D01*
X162016Y86776D02*
X165064D01*
X163540Y85252D02*
Y88300D01*
X188476Y110559D02*
X191524D01*
X190000Y109035D02*
Y112083D01*
X168476Y126591D02*
X171524D01*
X170000Y125067D02*
Y128115D01*
X187305Y193000D02*
X190353D01*
X188829Y191476D02*
Y194524D01*
X187305Y176046D02*
X190353D01*
X188829Y174522D02*
Y177570D01*
X684476Y52018D02*
X687524D01*
X686000Y50494D02*
Y53542D01*
X676476Y105671D02*
X679524D01*
X678000Y104147D02*
Y107195D01*
X676476Y64000D02*
X679524D01*
X678000Y62476D02*
Y65524D01*
X676476Y88718D02*
X679524D01*
X678000Y87194D02*
Y90242D01*
X696946Y167687D02*
X699994D01*
X698470Y166162D02*
Y169210D01*
X708934Y179674D02*
X711982D01*
X710458Y178151D02*
Y181199D01*
X734874Y158000D02*
X737922D01*
X736398Y156476D02*
Y159524D01*
X710898Y134024D02*
X713946D01*
X712422Y132500D02*
Y135548D01*
X722886Y146012D02*
X725934D01*
X724410Y144488D02*
Y147536D01*
X785876Y166000D02*
X788924D01*
X787401Y164476D02*
Y167524D01*
X751969Y166000D02*
X755017D01*
X753493Y164476D02*
Y167524D01*
X768923Y166000D02*
X771971D01*
X770447Y164476D02*
Y167524D01*
X786596Y138000D02*
X789643D01*
X788120Y136476D02*
Y139524D01*
X752688Y138000D02*
X755736D01*
X754212Y136476D02*
Y139524D01*
X769642Y138000D02*
X772690D01*
X771166Y136476D02*
Y139524D01*
X849062Y137000D02*
X852110D01*
X850586Y135476D02*
Y138524D01*
X815155Y137000D02*
X818203D01*
X816679Y135476D02*
Y138524D01*
X832109Y137000D02*
X835157D01*
X833633Y135476D02*
Y138524D01*
X850476Y164000D02*
X853524D01*
X852000Y162476D02*
Y165524D01*
X816569Y164000D02*
X819617D01*
X818093Y162476D02*
Y165524D01*
X833522Y164000D02*
X836570D01*
X835046Y162476D02*
Y165524D01*
X917476Y35273D02*
X920524D01*
X919000Y33749D02*
Y36797D01*
X917476Y69180D02*
X920524D01*
X919000Y67656D02*
Y70704D01*
X917476Y52227D02*
X920524D01*
X919000Y50703D02*
Y53751D01*
X773476Y54139D02*
X776524D01*
X775000Y52615D02*
Y55663D01*
X749500Y30163D02*
X752548D01*
X751024Y28639D02*
Y31687D01*
X742261Y52860D02*
X745309D01*
X743785Y51336D02*
Y54384D01*
X833476Y51966D02*
X836524D01*
X835000Y50442D02*
Y53490D01*
X799569Y51966D02*
X802617D01*
X801093Y50442D02*
Y53490D01*
X816522Y51966D02*
X819570D01*
X818046Y50442D02*
Y53490D01*
X859476Y31000D02*
X862524D01*
X861000Y29476D02*
Y32524D01*
X825569Y31000D02*
X828617D01*
X827093Y29476D02*
Y32524D01*
X842522Y31000D02*
X845570D01*
X844046Y29476D02*
Y32524D01*
X808476Y30124D02*
X811524D01*
X810000Y28600D02*
Y31648D01*
X774569Y30124D02*
X777617D01*
X776093Y28600D02*
Y31648D01*
X791522Y30124D02*
X794570D01*
X793046Y28600D02*
Y31648D01*
X678476Y138969D02*
X681524D01*
X680000Y137445D02*
Y140493D01*
X640913Y138969D02*
X643961D01*
X642437Y137445D02*
Y140493D01*
X659695Y138969D02*
X662743D01*
X661219Y137445D02*
Y140493D01*
X603350Y138969D02*
X606398D01*
X604874Y137445D02*
Y140493D01*
X676476Y166982D02*
X679524D01*
X678000Y165458D02*
Y168506D01*
X639713Y166982D02*
X642761D01*
X641237Y165458D02*
Y168506D01*
X621332Y166982D02*
X624380D01*
X622856Y165458D02*
Y168506D01*
X584569Y166982D02*
X587617D01*
X586093Y165458D02*
Y168506D01*
X602950Y166982D02*
X605998D01*
X604474Y165458D02*
Y168506D01*
X502476Y165000D02*
X505524D01*
X504000Y163476D02*
Y166524D01*
X468569Y165000D02*
X471617D01*
X470093Y163476D02*
Y166524D01*
X485522Y165000D02*
X488570D01*
X487046Y163476D02*
Y166524D01*
X504476Y188000D02*
X507524D01*
X506000Y186476D02*
Y189524D01*
X470569Y188000D02*
X473617D01*
X472093Y186476D02*
Y189524D01*
X487522Y188000D02*
X490570D01*
X489046Y186476D02*
Y189524D01*
X591499Y42000D02*
X594547D01*
X593023Y40476D02*
Y43524D01*
X613988Y42000D02*
X617035D01*
X615512Y40476D02*
Y43524D01*
X569011Y42000D02*
X572059D01*
X570535Y40476D02*
Y43524D01*
X524034Y42000D02*
X527082D01*
X525558Y40476D02*
Y43524D01*
X546522Y42000D02*
X549570D01*
X548046Y40476D02*
Y43524D01*
X501546Y42000D02*
X504594D01*
X503070Y40476D02*
Y43524D01*
X456569Y42000D02*
X459617D01*
X458093Y40476D02*
Y43524D01*
X479057Y42000D02*
X482105D01*
X480581Y40476D02*
Y43524D01*
X356476Y79977D02*
X359524D01*
X358000Y78453D02*
Y81501D01*
X322569Y79977D02*
X325617D01*
X324093Y78453D02*
Y81501D01*
X339522Y79977D02*
X342570D01*
X341046Y78453D02*
Y81501D01*
X384172Y54000D02*
X387220D01*
X385696Y52476D02*
Y55524D01*
X350265Y54000D02*
X353313D01*
X351789Y52476D02*
Y55524D01*
X367218Y54000D02*
X370266D01*
X368742Y52476D02*
Y55524D01*
X283569Y44000D02*
X286617D01*
X285093Y42476D02*
Y45524D01*
X300522Y44000D02*
X303570D01*
X302046Y42476D02*
Y45524D01*
X144150Y27000D02*
X147198D01*
X145674Y25476D02*
Y28524D01*
X110476Y27000D02*
X113524D01*
X112000Y25476D02*
Y28524D01*
X127196Y27000D02*
X130244D01*
X128720Y25476D02*
Y28524D01*
X265185Y68143D02*
X268233D01*
X266709Y66619D02*
Y69667D01*
X231278Y68143D02*
X234326D01*
X232802Y66619D02*
Y69667D01*
X248231Y68143D02*
X251279D01*
X249755Y66619D02*
Y69667D01*
X265476Y43000D02*
X268524D01*
X267000Y41476D02*
Y44524D01*
X231569Y43000D02*
X234617D01*
X233093Y41476D02*
Y44524D01*
X248522Y43000D02*
X251570D01*
X250046Y41476D02*
Y44524D01*
X278476Y138866D02*
X281524D01*
X280000Y137342D02*
Y140390D01*
X244569Y138866D02*
X247617D01*
X246093Y137342D02*
Y140390D01*
X261522Y138866D02*
X264570D01*
X263046Y137342D02*
Y140390D01*
X300476Y152277D02*
X303524D01*
X302000Y150753D02*
Y153801D01*
X327476Y178235D02*
X330524D01*
X329000Y176711D02*
Y179759D01*
X313734Y165535D02*
X316782D01*
X315258Y164011D02*
Y167059D01*
X95873Y188000D02*
X98921D01*
X97397Y186476D02*
Y189524D01*
X129780Y188000D02*
X132828D01*
X131304Y186476D02*
Y189524D01*
X112827Y188000D02*
X115875D01*
X114351Y186476D02*
Y189524D01*
X39476Y188000D02*
X42524D01*
X41000Y186476D02*
Y189524D01*
X73383Y188000D02*
X76431D01*
X74907Y186476D02*
Y189524D01*
X56430Y188000D02*
X59478D01*
X57954Y186476D02*
Y189524D01*
X83705Y9000D02*
X86753D01*
X85229Y7476D02*
Y10524D01*
X117612Y9000D02*
X120660D01*
X119136Y7476D02*
Y10524D01*
X100658Y9000D02*
X103706D01*
X102182Y7476D02*
Y10524D01*
X26476Y9000D02*
X29524D01*
X28000Y7476D02*
Y10524D01*
X60383Y9000D02*
X63431D01*
X61907Y7476D02*
Y10524D01*
X43430Y9000D02*
X46478D01*
X44954Y7476D02*
Y10524D01*
X688940Y8000D02*
X691988D01*
X690464Y6476D02*
Y9524D01*
X705894Y8000D02*
X708942D01*
X707418Y6476D02*
Y9524D01*
X722848Y8000D02*
X725895D01*
X724371Y6476D02*
Y9524D01*
X773708Y8000D02*
X776756D01*
X775232Y6476D02*
Y9524D01*
X756755Y8000D02*
X759803D01*
X758279Y6476D02*
Y9524D01*
X739801Y8000D02*
X742849D01*
X741325Y6476D02*
Y9524D01*
X824569Y8000D02*
X827617D01*
X826093Y6476D02*
Y9524D01*
X807615Y8000D02*
X810663D01*
X809139Y6476D02*
Y9524D01*
X790662Y8000D02*
X793710D01*
X792186Y6476D02*
Y9524D01*
X858476Y8000D02*
X861524D01*
X860000Y6476D02*
Y9524D01*
X841522Y8000D02*
X844570D01*
X843046Y6476D02*
Y9524D01*
X8476Y37186D02*
X11524D01*
X10000Y35662D02*
Y38710D01*
X8476Y20232D02*
X11524D01*
X10000Y18708D02*
Y21756D01*
X8476Y88046D02*
X11524D01*
X10000Y86522D02*
Y89570D01*
X8476Y71093D02*
X11524D01*
X10000Y69569D02*
Y72617D01*
X8476Y54139D02*
X11524D01*
X10000Y52615D02*
Y55663D01*
X8476Y138907D02*
X11524D01*
X10000Y137383D02*
Y140431D01*
X8476Y121953D02*
X11524D01*
X10000Y120429D02*
Y123477D01*
X8476Y105000D02*
X11524D01*
X10000Y103476D02*
Y106524D01*
X8476Y155861D02*
X11524D01*
X10000Y154337D02*
Y157385D01*
X8476Y172814D02*
X11524D01*
X10000Y171290D02*
Y174338D01*
X8476Y189768D02*
X11524D01*
X10000Y188244D02*
Y191292D01*
X148476Y137500D02*
X151524D01*
X150000Y135976D02*
Y139024D01*
X120476Y148000D02*
X123524D01*
X122000Y146476D02*
Y149524D01*
X290476Y177000D02*
X293524D01*
X292000Y175476D02*
Y178524D01*
X684476Y42000D02*
X687524D01*
X686000Y40476D02*
Y43524D01*
X683476Y32000D02*
X686524D01*
X685000Y30476D02*
Y33524D01*
X125206Y69914D02*
X128254D01*
X126730Y68390D02*
Y71438D01*
X118292Y89000D02*
X121340D01*
X119816Y87476D02*
Y90524D01*
M02*
